<svg width="40" height="40" viewBox="0 0 40 40" fill="none" xmlns="http://www.w3.org/2000/svg">
<path d="M24.1666 11.6667H15.8333C10.3541 11.6667 7.61455 11.6667 5.77064 13.18C5.43307 13.457 5.12355 13.7665 4.84652 14.1041C3.33325 15.948 3.33325 18.6875 3.33325 24.1667C3.33325 29.6459 3.33325 32.3854 4.84652 34.2294C5.12355 34.5669 5.43307 34.8764 5.77064 35.1534C7.61455 36.6667 10.3541 36.6667 15.8333 36.6667H24.1666C29.6458 36.6667 32.3853 36.6667 34.2293 35.1534C34.5668 34.8764 34.8762 34.5669 35.1532 34.2294C36.6666 32.3854 36.6666 29.6459 36.6666 24.1667C36.6666 18.6875 36.6666 15.948 35.1532 14.1041C34.8762 13.7665 34.5668 13.457 34.2293 13.18C32.3853 11.6667 29.6458 11.6667 24.1666 11.6667Z" stroke="#669B1F" stroke-width="2" stroke-linecap="round"/>
<path d="M20 11.6666V8.33331C20 7.41285 20.7462 6.66665 21.6667 6.66665C22.5872 6.66665 23.3333 5.92045 23.3333 4.99998V3.33331" stroke="#669B1F" stroke-width="2" stroke-linecap="round" stroke-linejoin="round"/>
<path d="M11.6667 20H13.3334" stroke="#669B1F" stroke-width="2" stroke-linecap="round" stroke-linejoin="round"/>
<path d="M19.1667 20H20.8334" stroke="#669B1F" stroke-width="2" stroke-linecap="round" stroke-linejoin="round"/>
<path d="M26.6667 20H28.3334" stroke="#669B1F" stroke-width="2" stroke-linecap="round" stroke-linejoin="round"/>
<path d="M11.6667 28.3333H28.3334" stroke="#669B1F" stroke-width="2" stroke-linecap="round" stroke-linejoin="round"/>
</svg>
