<svg width="40" height="40" viewBox="0 0 40 40" fill="none" xmlns="http://www.w3.org/2000/svg">
<path d="M15.2252 4.1665C10.7814 4.26775 8.18582 4.69077 6.41239 6.45804C4.86025 8.00479 4.34142 10.1791 4.16797 13.6665M24.7774 4.1665C29.2212 4.26775 31.8169 4.69077 33.5902 6.45804C35.1424 8.00479 35.6612 10.1791 35.8347 13.6665M24.7774 35.8332C29.2212 35.732 31.8169 35.3088 33.5902 33.5417C35.1424 31.9948 35.6612 29.8205 35.8347 26.3332M15.2252 35.8332C10.7814 35.732 8.18582 35.3088 6.41239 33.5417C4.86025 31.9948 4.34142 29.8205 4.16797 26.3332" stroke="#669B1F" stroke-width="2" stroke-linecap="round" stroke-linejoin="round"/>
<path d="M13.3333 28.3334C16.3974 24.0077 23.5313 23.7717 26.6666 28.3334M24.1666 15.8334C24.1666 18.1345 22.3011 20 19.9999 20C17.6988 20 15.8333 18.1345 15.8333 15.8334C15.8333 13.5322 17.6988 11.6667 19.9999 11.6667C22.3011 11.6667 24.1666 13.5322 24.1666 15.8334Z" stroke="#669B1F" stroke-width="2" stroke-linecap="round"/>
</svg>
