<svg width="40" height="40" viewBox="0 0 40 40" fill="none" xmlns="http://www.w3.org/2000/svg">
<path d="M28.2729 14.9701C28.2689 10.0532 28.1946 7.50637 26.7631 5.76252C26.4868 5.42574 26.1779 5.11695 25.8413 4.84057C24.0014 3.33087 21.2683 3.33087 15.8015 3.33087C10.3349 3.33087 7.60159 3.33087 5.76189 4.84057C5.42509 5.11694 5.11628 5.42574 4.83988 5.76252C3.33008 7.6021 3.33008 10.3352 3.33008 15.8015C3.33008 21.2678 3.33008 24.0008 4.83988 25.8405C5.11626 26.1771 5.42509 26.486 5.76189 26.7623C7.50586 28.1936 10.0529 28.268 14.9701 28.272" stroke="#669B1F" stroke-width="2" stroke-linecap="round" stroke-linejoin="round"/>
<path d="M23.3806 15.0409L28.3234 14.9699M23.3573 36.6689L28.2999 36.5977M36.6194 23.3702L36.5728 28.303M15.0173 23.3929L14.9707 28.3255M19.1456 15.0409C17.7576 15.2895 15.5298 15.5452 15.0173 18.4147M32.4911 36.5977C33.8828 36.3705 36.1143 36.149 36.6709 33.2877M32.4911 15.0409C33.8791 15.2895 36.1069 15.5452 36.6194 18.4147M19.1668 36.5955C17.7788 36.3477 15.5508 36.0932 15.0367 33.224" stroke="#669B1F" stroke-width="2" stroke-linecap="round" stroke-linejoin="round"/>
</svg>
