<svg width="51" height="50" viewBox="0 0 51 50" fill="none" xmlns="http://www.w3.org/2000/svg">
<mask id="mask0_173_848" style="mask-type:alpha" maskUnits="userSpaceOnUse" x="0" y="0" width="51" height="50">
<rect x="0.666626" width="50" height="50" fill="#D9D9D9"/>
</mask>
<g mask="url(#mask0_173_848)">
<path d="M31.5333 39.5827C27.4573 39.5827 24.0048 38.1683 21.176 35.3395C18.3472 32.5106 16.9328 29.0582 16.9328 24.9822C16.9328 20.9363 18.3472 17.4973 21.176 14.665C24.0048 11.8323 27.4573 10.416 31.5333 10.416C35.5788 10.416 39.0178 11.8323 41.8505 14.665C44.6831 17.4973 46.0994 20.9363 46.0994 24.9822C46.0994 29.0582 44.6831 32.5106 41.8505 35.3395C39.0178 38.1683 35.5788 39.5827 31.5333 39.5827ZM31.5161 37.4994C34.9883 37.4994 37.9397 36.2841 40.3703 33.8535C42.8008 31.423 44.0161 28.4716 44.0161 24.9993C44.0161 21.5271 42.8008 18.5757 40.3703 16.1452C37.9397 13.7146 34.9883 12.4993 31.5161 12.4993C28.0439 12.4993 25.0925 13.7146 22.6619 16.1452C20.2314 18.5757 19.0161 21.5271 19.0161 24.9993C19.0161 28.4716 20.2314 31.423 22.6619 33.8535C25.0925 36.2841 28.0439 37.4994 31.5161 37.4994ZM36.6562 31.678L38.1427 30.1915L32.5578 24.6066V17.3072H30.4744V25.4441L36.6562 31.678ZM7.31714 17.7077V15.6243H14.8494V17.7077H7.31714ZM5.23381 26.041V23.9577H14.8494V26.041H5.23381ZM7.31714 34.3744V32.291H14.8494V34.3744H7.31714Z" fill="#F1F1F1"/>
</g>
</svg>
