<svg width="50" height="50" viewBox="0 0 50 50" fill="none" xmlns="http://www.w3.org/2000/svg">
<mask id="mask0_173_833" style="mask-type:alpha" maskUnits="userSpaceOnUse" x="0" y="0" width="50" height="50">
<rect width="50" height="50" fill="#D9D9D9"/>
</mask>
<g mask="url(#mask0_173_833)">
<path d="M25.1203 41.666C20.4904 41.666 16.5552 40.0457 13.3146 36.8051C10.0739 33.5641 8.45361 29.6289 8.45361 24.9994C8.45361 20.7792 9.82913 17.12 12.5802 14.0217C15.3312 10.9235 18.7366 9.09397 22.7963 8.5332C22.9085 8.5332 23.0187 8.5372 23.1271 8.54518C23.235 8.55317 23.3411 8.56515 23.4453 8.58112C22.7429 9.56133 22.1868 10.6518 21.7771 11.8525C21.367 13.0528 21.1619 14.3101 21.1619 15.6244C21.1619 19.3282 22.4581 22.4763 25.0505 25.0686C27.6432 27.6613 30.7915 28.9577 34.4953 28.9577C35.8172 28.9577 37.0765 28.7527 38.2734 28.3426C39.4699 27.9325 40.5449 27.3763 41.4984 26.6738C41.5144 26.778 41.5264 26.8842 41.5343 26.9926C41.5423 27.1006 41.5463 27.2108 41.5463 27.3233C41.0123 31.383 39.1962 34.7884 36.0979 37.5395C32.9996 40.2905 29.3404 41.666 25.1203 41.666ZM25.1203 39.5827C28.1758 39.5827 30.9189 38.7407 33.3494 37.0566C35.78 35.3726 37.5508 33.1764 38.6619 30.4681C37.9675 30.6417 37.2731 30.7806 36.5786 30.8848C35.8842 30.9889 35.1897 31.041 34.4953 31.041C30.2244 31.041 26.5873 29.5393 23.5838 26.5358C20.5804 23.5323 19.0786 19.8952 19.0786 15.6244C19.0786 14.9299 19.1307 14.2355 19.2349 13.541C19.339 12.8466 19.4779 12.1521 19.6515 11.4577C16.9432 12.5688 14.747 14.3396 13.063 16.7702C11.379 19.2007 10.5369 21.9438 10.5369 24.9994C10.5369 29.0271 11.9606 32.4646 14.8078 35.3119C17.655 38.1591 21.0925 39.5827 25.1203 39.5827Z" fill="black"/>
</g>
</svg>
