<svg width="50" height="50" viewBox="0 0 50 50" fill="none" xmlns="http://www.w3.org/2000/svg">
<mask id="mask0_173_863" style="mask-type:alpha" maskUnits="userSpaceOnUse" x="0" y="0" width="50" height="50">
<rect width="50" height="50" fill="#D9D9D9"/>
</mask>
<g mask="url(#mask0_173_863)">
<path d="M30.2083 34.3743H38.5417V26.041H36.4583V32.291H30.2083V34.3743ZM11.4583 23.9577H13.5417V17.7077H19.7917V15.6243H11.4583V23.9577ZM9.61562 39.5827C8.6566 39.5827 7.8559 39.2615 7.21354 38.6191C6.57118 37.9768 6.25 37.1761 6.25 36.2171V13.7816C6.25 12.8226 6.57118 12.0219 7.21354 11.3796C7.8559 10.7372 8.6566 10.416 9.61562 10.416H40.3844C41.3434 10.416 42.1441 10.7372 42.7865 11.3796C43.4288 12.0219 43.75 12.8226 43.75 13.7816V36.2171C43.75 37.1761 43.4288 37.9768 42.7865 38.6191C42.1441 39.2615 41.3434 39.5827 40.3844 39.5827H9.61562ZM9.61562 37.4993H40.3844C40.7052 37.4993 40.9991 37.3658 41.2661 37.0988C41.5332 36.8318 41.6667 36.5379 41.6667 36.2171V13.7816C41.6667 13.4608 41.5332 13.1669 41.2661 12.8999C40.9991 12.6329 40.7052 12.4993 40.3844 12.4993H9.61562C9.29479 12.4993 9.00087 12.6329 8.73385 12.8999C8.46684 13.1669 8.33333 13.4608 8.33333 13.7816V36.2171C8.33333 36.5379 8.46684 36.8318 8.73385 37.0988C9.00087 37.3658 9.29479 37.4993 9.61562 37.4993Z" fill="#101010"/>
</g>
</svg>
