<svg width="51" height="50" viewBox="0 0 51 50" fill="none" xmlns="http://www.w3.org/2000/svg">
<mask id="mask0_173_840" style="mask-type:alpha" maskUnits="userSpaceOnUse" x="0" y="0" width="51" height="50">
<rect x="0.333344" width="50" height="50" fill="#D9D9D9"/>
</mask>
<g mask="url(#mask0_173_840)">
<path d="M2.41666 36.6195V34.8206C2.41666 33.5411 3.10034 32.4793 4.4677 31.6352C5.83541 30.7914 7.59565 30.3695 9.74843 30.3695C10.0661 30.3695 10.4066 30.3848 10.7698 30.4154C11.1333 30.4463 11.5194 30.4964 11.9281 30.5659C11.6021 31.1346 11.3642 31.7181 11.2146 32.3164C11.0653 32.9147 10.9906 33.5143 10.9906 34.1154V36.6195H2.41666ZM14.9167 36.6195V34.2758C14.9167 33.4362 15.1604 32.6687 15.6479 31.9732C16.1354 31.278 16.8545 30.6767 17.8052 30.169C18.7562 29.6617 19.8641 29.2812 21.1286 29.0273C22.3932 28.7735 23.7894 28.6466 25.3172 28.6466C26.8745 28.6466 28.2854 28.7735 29.55 29.0273C30.8146 29.2812 31.9224 29.6617 32.8734 30.169C33.8241 30.6767 34.5413 31.278 35.025 31.9732C35.5083 32.6687 35.75 33.4362 35.75 34.2758V36.6195H14.9167ZM39.676 36.6195V34.1273C39.676 33.4628 39.6033 32.8365 39.4578 32.2487C39.3123 31.6609 39.0941 31.0999 38.8031 30.5659C39.2382 30.4964 39.6288 30.4463 39.975 30.4154C40.3208 30.3848 40.6486 30.3695 40.9583 30.3695C43.1111 30.3695 44.8646 30.7895 46.2187 31.6294C47.5729 32.4694 48.25 33.5331 48.25 34.8206V36.6195H39.676ZM17.0599 34.5362H33.6187V34.0956C33.5385 33.107 32.7285 32.299 31.1885 31.6716C29.649 31.0438 27.6972 30.7299 25.3333 30.7299C22.9694 30.7299 21.0177 31.0438 19.4781 31.6716C17.9382 32.299 17.1321 33.107 17.0599 34.0956V34.5362ZM9.73749 28.406C8.91943 28.406 8.22256 28.1157 7.64687 27.5352C7.07152 26.9546 6.78384 26.2567 6.78384 25.4414C6.78384 24.6348 7.07412 23.9457 7.65468 23.3742C8.23523 22.8027 8.93315 22.5169 9.74843 22.5169C10.555 22.5169 11.2509 22.8027 11.8359 23.3742C12.4207 23.9457 12.713 24.6388 12.713 25.4534C12.713 26.244 12.4279 26.9338 11.8578 27.5227C11.2873 28.1115 10.5805 28.406 9.73749 28.406ZM40.9583 28.406C40.1597 28.406 39.466 28.1115 38.8771 27.5227C38.2882 26.9338 37.9937 26.244 37.9937 25.4534C37.9937 24.6388 38.2882 23.9457 38.8771 23.3742C39.466 22.8027 40.1623 22.5169 40.9661 22.5169C41.7943 22.5169 42.4941 22.8027 43.0656 23.3742C43.6371 23.9457 43.9229 24.6348 43.9229 25.4414C43.9229 26.2567 43.6389 26.9546 43.0708 27.5352C42.5024 28.1157 41.7983 28.406 40.9583 28.406ZM25.3474 27.0841C24.0828 27.0841 23.0031 26.64 22.1083 25.7518C21.2135 24.864 20.7661 23.7857 20.7661 22.5169C20.7661 21.2228 21.2101 20.1381 22.0979 19.2628C22.9861 18.3871 24.0646 17.9492 25.3333 17.9492C26.6274 17.9492 27.7121 18.3857 28.5875 19.2586C29.4628 20.1312 29.9005 21.2126 29.9005 22.5029C29.9005 23.7674 29.4642 24.8471 28.5917 25.7419C27.7191 26.6367 26.6377 27.0841 25.3474 27.0841ZM25.3531 25.0008C26.0371 25.0008 26.6187 24.7544 27.0979 24.2617C27.5774 23.7687 27.8172 23.1803 27.8172 22.4966C27.8172 21.8129 27.5792 21.2313 27.1031 20.7518C26.6271 20.2723 26.0371 20.0326 25.3333 20.0326C24.6628 20.0326 24.0812 20.2707 23.5885 20.7471C23.0958 21.2232 22.8495 21.8131 22.8495 22.5169C22.8495 23.1871 23.0958 23.7687 23.5885 24.2617C24.0812 24.7544 24.6694 25.0008 25.3531 25.0008Z" fill="black"/>
</g>
</svg>
