<svg width="50" height="50" viewBox="0 0 50 50" fill="none" xmlns="http://www.w3.org/2000/svg">
<mask id="mask0_173_856" style="mask-type:alpha" maskUnits="userSpaceOnUse" x="0" y="0" width="50" height="50">
<rect width="50" height="50" fill="#D9D9D9"/>
</mask>
<g mask="url(#mask0_173_856)">
<path d="M8.33333 38.3017V39.584V16.6673V38.3017ZM9.61562 41.6673C8.6566 41.6673 7.8559 41.3461 7.21354 40.7038C6.57118 40.0614 6.25 39.2607 6.25 38.3017V17.9496C6.25 16.9906 6.57118 16.1899 7.21354 15.5475C7.8559 14.9052 8.6566 14.584 9.61562 14.584H18.75V11.6991C18.75 10.7404 19.0712 9.93989 19.7135 9.29753C20.3559 8.65516 21.1566 8.33398 22.1156 8.33398H27.8844C28.8434 8.33398 29.6441 8.65516 30.2865 9.29753C30.9288 9.93989 31.25 10.7404 31.25 11.6991V14.584H40.3844C41.3434 14.584 42.1441 14.9052 42.7865 15.5475C43.4288 16.1899 43.75 16.9906 43.75 17.9496V26.6954C43.4187 26.4843 43.0863 26.3006 42.7526 26.1444C42.4186 25.9881 42.0566 25.842 41.6667 25.7059V17.9496C41.6667 17.5757 41.5465 17.2684 41.3063 17.0277C41.0656 16.7875 40.7583 16.6673 40.3844 16.6673H9.61562C9.24167 16.6673 8.93437 16.7875 8.69375 17.0277C8.45347 17.2684 8.33333 17.5757 8.33333 17.9496V38.3017C8.33333 38.6757 8.45347 38.9829 8.69375 39.2236C8.93437 39.4638 9.24167 39.584 9.61562 39.584H25.1562C25.2337 39.9659 25.3165 40.3239 25.4047 40.6579C25.4929 40.9916 25.5997 41.3281 25.725 41.6673H9.61562ZM20.8333 14.584H29.1667V11.6991C29.1667 11.3255 29.0465 11.0184 28.8062 10.7777C28.5656 10.5375 28.2583 10.4173 27.8844 10.4173H22.1156C21.7417 10.4173 21.4344 10.5375 21.1938 10.7777C20.9535 11.0184 20.8333 11.3255 20.8333 11.6991V14.584ZM37.5 45.834C35.1788 45.834 33.2097 45.0253 31.5927 43.4079C29.9753 41.7909 29.1667 39.8218 29.1667 37.5007C29.1667 35.1795 29.9753 33.2104 31.5927 31.5934C33.2097 29.976 35.1788 29.1673 37.5 29.1673C39.8212 29.1673 41.7903 29.976 43.4073 31.5934C45.0247 33.2104 45.8333 35.1795 45.8333 37.5007C45.8333 39.8218 45.0247 41.7909 43.4073 43.4079C41.7903 45.0253 39.8212 45.834 37.5 45.834ZM37.5 42.9095L42.7885 37.621L41.6505 36.4829L38.301 39.8324V32.0918H36.699V39.8324L33.3495 36.4829L32.2115 37.621L37.5 42.9095Z" fill="#1C1B1F"/>
</g>
</svg>
