<svg width="66" height="66" viewBox="0 0 66 66" fill="none" xmlns="http://www.w3.org/2000/svg">
<path d="M49.0615 66C54.9328 66 58.8131 64.4142 62.2545 60.5676C62.5248 60.2977 62.761 59.9939 63.0305 59.724C65.0553 57.4633 66 55.2363 66 53.1106C66 50.6812 64.5834 48.4204 61.58 46.3284L51.7609 39.5126C48.724 37.4207 45.1811 37.1844 42.3468 39.985L39.7486 42.5831C38.9725 43.3591 38.2977 43.3929 37.5216 42.9204C35.7332 41.7733 32.0553 38.5678 29.5583 36.0708C26.9264 33.4728 24.3621 30.5709 23.0461 28.4453C22.5737 27.6692 22.6411 27.0281 23.4172 26.252L25.9816 23.6538C28.816 20.8196 28.5799 17.2429 26.4878 14.2399L19.6381 4.42102C17.5798 1.4179 15.319 0.0345358 12.8896 0.000847807C10.7638 -0.0329841 8.53686 0.94555 6.27613 2.96999C5.97236 3.24007 5.70242 3.47618 5.39879 3.71242C1.58595 7.15407 0 11.0344 0 16.8717C0 26.5219 5.93867 38.2642 16.8375 49.1628C27.6687 59.9939 39.4449 66 49.0615 66ZM49.0953 60.8037C40.4909 60.9724 29.4571 54.3591 20.7178 45.6536C11.911 36.8807 4.99381 25.476 5.16254 16.8717C5.23006 13.1602 6.51224 9.95463 9.17795 7.66025C9.38036 7.45769 9.58293 7.28896 9.81903 7.12038C10.7976 6.24305 11.911 5.7707 12.8559 5.7707C13.8681 5.7707 14.7455 6.14184 15.3866 7.15407L21.9326 16.973C22.6411 18.019 22.7086 19.2 21.6625 20.2459L18.6932 23.2152C16.3313 25.5435 16.5337 28.3778 18.221 30.6384C20.1443 33.2366 23.4847 37.0157 26.0491 39.5802C28.6473 42.1782 32.7302 45.8224 35.3283 47.7794C37.5891 49.4664 40.4572 49.6351 42.7854 47.3069L45.7547 44.3376C46.8008 43.2917 47.948 43.3591 48.994 44.034L58.8131 50.58C59.8254 51.2548 60.2302 52.0984 60.2302 53.1106C60.2302 54.0891 59.7579 55.1689 58.8468 56.1811C58.6781 56.4174 58.5432 56.5859 58.3406 56.8222C56.0125 59.454 52.8069 60.7363 49.0953 60.8037Z" fill="#8CC63E"/>
</svg>
