<svg width="79" height="62" viewBox="0 0 79 62" fill="none" xmlns="http://www.w3.org/2000/svg">
<path d="M11.4065 61.4905H68.8639C75.2884 61.4905 79 57.779 79 50.4273V11.0276C79 3.71156 75.2527 0 67.7939 0H10.3359C3.94763 0 0.200439 3.67593 0.200439 11.0276V50.4273C0.200439 57.8146 3.98341 61.4905 11.4065 61.4905ZM35.3533 32.5475L8.40866 5.95996C9.19391 5.63868 10.1217 5.46022 11.2281 5.46022H68.0081C69.1139 5.46022 70.0779 5.63868 70.8988 6.03138L43.9897 32.5475C42.4551 34.0821 41.099 34.7601 39.6715 34.7601C38.244 34.7601 36.8878 34.0821 35.3533 32.5475ZM5.66081 50.4273V11.0276C5.66081 10.7778 5.66081 10.8848 5.66081 10.6707L26.1814 30.7989L5.69644 51.0339C5.66081 50.8554 5.66081 50.6413 5.66081 50.4273ZM73.5395 11.0633V50.4629V50.9268L53.1616 30.7989L73.5395 10.7778V11.0633ZM11.2281 56.0303C10.1931 56.0303 9.33659 55.8875 8.58712 55.5663L29.9287 34.4746L32.2484 36.7587C34.7465 39.2212 37.1376 40.2561 39.6715 40.2561C42.1696 40.2561 44.5965 39.2212 47.0946 36.7587L49.4143 34.4746L70.7204 55.5306C69.9706 55.8875 69.043 56.0303 68.0081 56.0303H11.2281Z" fill="#8CC63E"/>
</svg>
