<svg width="72" height="70" viewBox="0 0 72 70" fill="none" xmlns="http://www.w3.org/2000/svg">
<path d="M47.0368 69.113C48.2727 69.113 49.4745 68.804 50.47 68.2204L68.4605 58.0233C70.4863 56.8904 71.4137 55.2424 71.4137 52.942V5.32166C71.4137 2.78095 70.006 1.37319 67.5337 1.37319C66.6752 1.37319 65.7828 1.648 64.6839 2.26604L46.453 12.3943L27.8101 0.961261C26.7801 0.343224 25.5783 0 24.3767 0C23.1065 0 21.8704 0.343224 20.806 0.961261L2.98706 11.1239C0.926983 12.2913 0 13.9393 0 16.2396V63.7913C0 66.332 1.44204 67.7741 3.87976 67.7741C4.77232 67.7741 5.63075 67.4651 6.76369 66.8471L24.2051 57.4397L43.1914 68.083C44.4618 68.7697 45.7664 69.113 47.0368 69.113ZM6.0084 60.667C5.6993 60.667 5.52777 60.461 5.52777 60.1177V17.5787C5.52777 16.7545 5.87099 16.1709 6.66071 15.6903L20.7717 7.45029C21.1836 7.2099 21.5613 7.00394 21.9734 6.76355V51.9806L6.48903 60.4953C6.31734 60.564 6.14566 60.667 6.0084 60.667ZM43.9125 61.7314C43.4318 61.4567 42.9168 61.2163 42.4017 60.9417L27.5011 52.53V7.48457C27.8788 7.69068 28.2564 7.89664 28.5998 8.1026L43.9125 17.4413V61.7314ZM49.4401 62.3494V17.0979L64.9244 8.65194C65.1304 8.54896 65.3019 8.48025 65.4398 8.48025C65.714 8.48025 65.8855 8.68622 65.8855 9.02959V51.5687C65.8855 52.427 65.5769 53.0107 64.7873 53.4914L51.0195 61.491C50.47 61.8001 49.9551 62.109 49.4401 62.3494Z" fill="#8CC63E"/>
</svg>
