<svg width="41" height="40" viewBox="0 0 41 40" fill="none" xmlns="http://www.w3.org/2000/svg">
<path d="M3.93384 13.3333C3.93384 15.5696 17.4253 21.6667 20.5773 21.6667C23.7292 21.6667 37.2208 15.5696 37.2208 13.3333C37.2208 11.097 23.7292 5 20.5773 5C17.4253 5 3.93384 11.097 3.93384 13.3333Z" stroke="#F7F7F7" stroke-width="2.5" stroke-linecap="round" stroke-linejoin="round"/>
<path d="M10.5901 18.334L10.9986 27.7172C11.0068 27.905 11.0271 28.0931 11.0815 28.2731C11.2498 28.8295 11.56 29.335 12.0332 29.6746C15.7356 32.3315 25.4167 32.3315 29.119 29.6746C29.5925 29.335 29.9025 28.8295 30.0709 28.2731C30.1252 28.0931 30.1455 27.905 30.1539 27.7172L30.5622 18.334" stroke="#F7F7F7" stroke-width="2.5" stroke-linecap="round" stroke-linejoin="round"/>
<path d="M34.7228 15.834V27.5007M34.7228 27.5007C33.4028 29.9112 32.8191 31.2027 32.2263 33.334C32.0976 34.0923 32.1998 34.4745 32.7225 34.8138C32.9348 34.9517 33.19 35.0007 33.443 35.0007H35.977C36.2465 35.0007 36.5183 34.9445 36.7401 34.7915C37.226 34.4565 37.351 34.089 37.2193 33.334C36.6996 31.355 36.0376 30.002 34.7228 27.5007Z" stroke="#F7F7F7" stroke-width="2.5" stroke-linecap="round" stroke-linejoin="round"/>
</svg>
