<svg width="51" height="50" viewBox="0 0 51 50" fill="none" xmlns="http://www.w3.org/2000/svg">
<path d="M17.8242 5.31861C20.8969 3.41476 23.5788 4.18199 25.1898 5.40409C25.8504 5.90518 26.1806 6.15574 26.375 6.15574C26.5694 6.15574 26.8996 5.90518 27.5602 5.40409C29.1713 4.18199 31.8531 3.41476 34.9259 5.31861C38.9586 7.8172 39.8711 16.0602 30.5694 23.0145C28.7977 24.3391 27.9119 25.0012 26.375 25.0012C24.8381 25.0012 23.9523 24.3391 22.1806 23.0145C12.8791 16.0602 13.7916 7.8172 17.8242 5.31861Z" stroke="#141B34" stroke-width="2.5" stroke-linecap="round"/>
<path d="M8.66669 29.168H13.6559C14.2687 29.168 14.8731 29.3061 15.4212 29.5713L19.6753 31.6296C20.2234 31.8948 20.8278 32.0328 21.4406 32.0328H23.6127C25.7136 32.0328 27.4167 33.6809 27.4167 35.7138C27.4167 35.7959 27.3604 35.8682 27.2788 35.8907L21.9852 37.3544C21.0356 37.6169 20.0188 37.5255 19.1354 37.098L14.5877 34.8978" stroke="#141B34" stroke-width="2.5" stroke-linecap="round" stroke-linejoin="round"/>
<path d="M27.4167 34.3751L36.985 31.4353C38.6813 30.9067 40.5148 31.5334 41.5773 33.0049C42.3456 34.0686 42.0327 35.5921 40.9136 36.238L25.2561 45.2719C24.2602 45.8465 23.0852 45.9867 21.99 45.6617L8.66669 41.7082" stroke="#141B34" stroke-width="2.5" stroke-linecap="round" stroke-linejoin="round"/>
</svg>
