<svg width="51" height="50" viewBox="0 0 51 50" fill="none" xmlns="http://www.w3.org/2000/svg">
<path d="M5.54167 24.9987C5.54167 15.6688 5.54167 11.0039 8.44009 8.10545C11.3385 5.20703 16.0035 5.20703 25.3333 5.20703C34.6631 5.20703 39.3281 5.20703 42.2267 8.10545C45.125 11.0039 45.125 15.6688 45.125 24.9987C45.125 34.3285 45.125 38.9935 42.2267 41.892C39.3281 44.7904 34.6631 44.7904 25.3333 44.7904C16.0035 44.7904 11.3385 44.7904 8.44009 41.892C5.54167 38.9935 5.54167 34.3285 5.54167 24.9987Z" stroke="#141B34" stroke-width="2.5"/>
<path d="M5.54167 18.75H45.125" stroke="#141B34" stroke-width="2.5" stroke-linejoin="round"/>
<path d="M14.9163 12.5H14.9365" stroke="#141B34" stroke-width="2.5" stroke-linecap="round" stroke-linejoin="round"/>
<path d="M23.2496 12.5H23.2699" stroke="#141B34" stroke-width="2.5" stroke-linecap="round" stroke-linejoin="round"/>
</svg>
