<svg width="51" height="50" viewBox="0 0 51 50" fill="none" xmlns="http://www.w3.org/2000/svg">
<path d="M39.6634 22.3186C39.2619 22.6994 38.7253 22.9121 38.1667 22.9121C37.6082 22.9121 37.0715 22.6994 36.6701 22.3186C32.993 18.8115 28.0655 14.8936 30.4686 9.20555C31.7678 6.13007 34.8867 4.16211 38.1667 4.16211C41.4467 4.16211 44.5655 6.13007 45.8649 9.20555C48.2649 14.8864 43.3494 18.8235 39.6634 22.3186Z" stroke="#141B34" stroke-width="2.5"/>
<path d="M38.1666 12.4941H38.1869" stroke="#141B34" stroke-width="2.5" stroke-linecap="round" stroke-linejoin="round"/>
<path d="M11.0833 45.8301C14.535 45.8301 17.3333 43.0319 17.3333 39.5801C17.3333 36.1283 14.535 33.3301 11.0833 33.3301C7.63147 33.3301 4.83325 36.1283 4.83325 39.5801C4.83325 43.0319 7.63147 45.8301 11.0833 45.8301Z" stroke="#141B34" stroke-width="2.5" stroke-linecap="round" stroke-linejoin="round"/>
<path d="M23.5833 14.5801H20.4583C16.4312 14.5801 13.1666 17.3783 13.1666 20.8301C13.1666 24.282 16.4312 27.0801 20.4583 27.0801H26.7083C30.7354 27.0801 34 29.8782 34 33.3301C34 36.782 30.7354 39.5801 26.7083 39.5801H23.5833" stroke="#141B34" stroke-width="2.5" stroke-linecap="round" stroke-linejoin="round"/>
</svg>
