<svg width="50" height="50" viewBox="0 0 50 50" fill="none" xmlns="http://www.w3.org/2000/svg">
<path d="M35.4167 45.8333C41.1696 45.8333 45.8333 41.1696 45.8333 35.4167C45.8333 29.6637 41.1696 25 35.4167 25C29.6637 25 25 29.6637 25 35.4167C25 41.1696 29.6637 45.8333 35.4167 45.8333Z" stroke="#141B34" stroke-width="2.5"/>
<path d="M15.625 27.0846H13.3333C9.01211 27.0846 6.85151 27.0846 5.50909 25.7421C4.16666 24.3998 4.16666 22.2392 4.16666 17.918V13.3346C4.16666 9.01343 4.16666 6.85282 5.50909 5.51041C6.85151 4.16797 9.01211 4.16797 13.3333 4.16797H17.9167C22.2379 4.16797 24.3985 4.16797 25.7408 5.51041C27.0833 6.85282 27.0833 9.01343 27.0833 13.3346V15.6263" stroke="#141B34" stroke-width="2.5"/>
<path d="M25.0725 39.5859C19.1195 38.5872 14.5834 33.4099 14.5834 27.173C14.5834 20.2213 20.2188 14.5859 27.1704 14.5859C33.4073 14.5859 38.5846 19.1221 39.5834 25.0751" stroke="#141B34" stroke-width="2.5"/>
</svg>
