<svg width="51" height="50" viewBox="0 0 51 50" fill="none" xmlns="http://www.w3.org/2000/svg">
<path d="M24.9194 13.5165L28.0144 10.4216C31.4992 6.93675 36.0615 5.49127 40.8898 5.25506C42.7679 5.16319 43.7069 5.11725 44.4598 5.87025C45.2129 6.62323 45.1669 7.56223 45.075 9.44027C44.8388 14.2686 43.3933 18.831 39.9086 22.3157L36.8136 25.4107C34.2648 27.9595 33.5402 28.6843 34.0752 31.4488C34.6033 33.5607 35.1144 35.6057 33.5788 37.1413C31.7161 39.004 30.0169 39.004 28.1542 37.1413L13.1887 22.1759C11.326 20.3132 11.326 18.614 13.1887 16.7513C14.7243 15.2157 16.7694 15.7268 18.8812 16.2549C21.6459 16.7899 22.3706 16.0653 24.9194 13.5165Z" stroke="#141B34" stroke-width="2.5" stroke-linejoin="round"/>
<path d="M35.7415 14.5801H35.7617" stroke="#141B34" stroke-width="2.5" stroke-linecap="round" stroke-linejoin="round"/>
<path d="M5.54167 44.7858L15.9583 34.3691" stroke="#141B34" stroke-width="2.5" stroke-linecap="round"/>
<path d="M18.0417 44.7858L22.2084 40.6191" stroke="#141B34" stroke-width="2.5" stroke-linecap="round"/>
<path d="M5.54167 32.2858L9.70834 28.1191" stroke="#141B34" stroke-width="2.5" stroke-linecap="round"/>
</svg>
