<svg width="50" height="50" viewBox="0 0 50 50" fill="none" xmlns="http://www.w3.org/2000/svg">
<path d="M45.8333 15.1704C45.8333 20.6737 41.169 25.1358 35.4167 25.1358C34.7402 25.1366 34.0658 25.0741 33.4015 24.9493C32.9231 24.8595 32.684 24.8147 32.5171 24.8402C32.3502 24.8656 32.1135 24.9914 31.6404 25.2431C30.3021 25.9547 28.7415 26.2062 27.2406 25.927C27.811 25.2254 28.2006 24.3835 28.3725 23.481C28.4767 22.9289 28.2187 22.3927 27.8321 22.0002C26.0762 20.2171 25 17.8145 25 15.1704C25 9.66712 29.6642 5.20508 35.4167 5.20508C41.169 5.20508 45.8333 9.66712 45.8333 15.1704Z" stroke="#141B34" stroke-width="2.5" stroke-linejoin="round"/>
<path d="M32.2754 15.6191H32.2923M38.5254 15.6191H38.5423" stroke="#141B34" stroke-width="2.5" stroke-linecap="round"/>
<path d="M15.6289 44.7889H9.82951C9.15599 44.7889 8.47959 44.6941 7.86097 44.4283C5.8472 43.563 4.82549 42.4205 4.34934 41.7058C4.07841 41.2993 4.11701 40.7812 4.41095 40.3908C6.74407 37.2918 12.1634 35.4201 15.6388 35.4199C19.1142 35.4201 24.5237 37.2918 26.8569 40.3908C27.1508 40.7812 27.1894 41.2993 26.9185 41.7058C26.4423 42.4205 25.4206 43.563 23.4069 44.4283C22.7881 44.6941 22.1119 44.7889 21.4383 44.7889H15.6289Z" stroke="#141B34" stroke-width="2.5" stroke-linecap="round" stroke-linejoin="round"/>
<path d="M21.4279 24.5557C21.4279 27.7459 18.836 30.3321 15.6388 30.3321C12.4416 30.3321 9.84979 27.7459 9.84979 24.5557C9.84979 21.3655 12.4416 18.7793 15.6388 18.7793C18.836 18.7793 21.4279 21.3655 21.4279 24.5557Z" stroke="#141B34" stroke-width="2.5" stroke-linecap="round" stroke-linejoin="round"/>
</svg>
