<svg width="51" height="50" viewBox="0 0 51 50" fill="none" xmlns="http://www.w3.org/2000/svg">
<path d="M4.83374 41.668H38.167" stroke="#141B34" stroke-width="2.5" stroke-linecap="round" stroke-linejoin="round"/>
<path d="M8.63577 25.3486C8.06285 24.932 7.54202 24.4111 6.91704 22.5882C6.74752 22.1361 6.10685 19.8697 5.56287 17.7965C5.10402 16.0478 4.69515 14.4517 4.88579 14.0465C5.04206 13.6299 5.25035 13.3174 5.92744 12.9007C6.3441 12.6443 8.47952 12.1195 8.89619 12.0153C9.31285 11.9111 9.88575 11.859 10.3545 12.0153C11.2399 12.1715 13.0629 14.8278 13.5316 15.1403C13.7399 15.3486 14.417 15.9547 15.1983 16.0257C15.7712 16.0778 16.3441 15.9215 16.9691 15.6611C17.542 15.4224 28.8442 9.93196 29.8858 9.46321C38.3754 5.92154 44.5421 11.7445 45.4796 12.9945C46.4483 14.2028 46.6567 14.5674 46.3962 15.609C46.0596 16.7028 45.1462 16.9111 44.6254 17.0674C44.1046 17.2236 36.9171 19.1507 34.1046 19.932C33.4902 20.132 33.1902 20.5337 33.115 20.609C32.7504 21.1299 31.0942 24.6716 30.6254 25.4528C30.3025 26.2861 29.4171 27.3278 28.2712 27.7445C27.0733 28.1611 24.99 28.6299 24.5212 28.7861C24.0525 28.9424 22.9587 29.2549 22.5942 29.1507C22.1254 29.0466 21.6775 28.5778 21.8858 27.8486C22.0942 27.1195 22.49 25.0882 22.5421 24.7757C22.5942 24.4632 23.115 23.1611 22.5421 23.1091C22.4379 22.9528 21.3441 23.4216 19.7295 23.7861C18.53 24.1239 17.2737 24.458 16.3962 24.6716C13.0108 25.6611 11.1773 25.9216 10.7712 25.9216C9.98994 25.9216 9.41702 25.8174 8.63577 25.3486Z" stroke="#141B34" stroke-width="2.5"/>
</svg>
