<svg width="50" height="50" viewBox="0 0 50 50" fill="none" xmlns="http://www.w3.org/2000/svg">
<path d="M41.1361 27.0846C42.7838 24.7225 43.75 21.8496 43.75 18.7513C43.75 10.6972 37.2209 4.16797 29.1667 4.16797C21.1125 4.16797 14.5834 10.6971 14.5834 18.7513C14.5834 20.988 15.0869 23.1069 15.9868 25.0013" stroke="#141B34" stroke-width="2.5" stroke-linecap="round" stroke-linejoin="round"/>
<path d="M29.1667 12.5013C26.8654 12.5013 25 13.9004 25 15.6263C25 17.3522 26.8654 18.7513 29.1667 18.7513C31.4679 18.7513 33.3333 20.1504 33.3333 21.8763C33.3333 23.6021 31.4679 25.0013 29.1667 25.0013M29.1667 12.5013C30.9808 12.5013 32.5242 13.3709 33.0962 14.5846M29.1667 12.5013V10.418M29.1667 25.0013C27.3525 25.0013 25.8092 24.1317 25.2371 22.918M29.1667 25.0013V27.0846" stroke="#141B34" stroke-width="2.5" stroke-linecap="round"/>
<path d="M6.25 29.168H11.2392C11.852 29.168 12.4564 29.3061 13.0045 29.5713L17.2586 31.6296C17.8067 31.8948 18.4111 32.0328 19.024 32.0328H21.196C23.2969 32.0328 25 33.6809 25 35.7138C25 35.7959 24.9437 35.8682 24.8621 35.8907L19.5685 37.3544C18.6189 37.6169 17.6021 37.5255 16.7187 37.098L12.1711 34.8978M25 34.3763L34.5683 31.4365C36.2646 30.908 38.0981 31.5346 39.1606 33.0061C39.929 34.0698 39.616 35.5934 38.4969 36.2392L22.8394 45.2732C21.8435 45.8478 20.6686 45.988 19.5732 45.663L6.25 41.7094" stroke="#141B34" stroke-width="2.5" stroke-linecap="round" stroke-linejoin="round"/>
</svg>
