<svg width="51" height="50" viewBox="0 0 51 50" fill="none" xmlns="http://www.w3.org/2000/svg">
<path d="M36.0831 22.5133C36.0831 21.7931 36.0831 21.4331 36.1915 21.1122C36.5065 20.1798 37.3369 19.818 38.1688 19.4391C39.104 19.0131 39.5715 18.8001 40.0348 18.7627C40.5608 18.7201 41.0877 18.8334 41.5373 19.0858C42.1333 19.4202 42.549 20.0558 42.9746 20.5727C44.94 22.9597 45.9225 24.1535 46.2821 25.4697C46.5723 26.5318 46.5723 27.6427 46.2821 28.7047C45.7577 30.6245 44.1008 32.2339 42.8744 33.7235C42.2471 34.4854 41.9333 34.8664 41.5373 35.0887C41.0877 35.341 40.5608 35.4543 40.0348 35.4118C39.5715 35.3743 39.104 35.1614 38.1688 34.7354C37.3369 34.3564 36.5065 33.9947 36.1915 33.0622C36.0831 32.7414 36.0831 32.3814 36.0831 31.6612V22.5133Z" stroke="#141B34" stroke-width="2.5"/>
<path d="M15.2499 22.5135C15.2499 21.6068 15.2245 20.7919 14.4914 20.1543C14.2248 19.9225 13.8713 19.7614 13.1643 19.4394C12.2291 19.0135 11.7615 18.8005 11.2982 18.763C9.90806 18.6506 9.16017 19.5994 8.35852 20.573C6.39315 22.9602 5.41046 24.1537 5.05088 25.47C4.76071 26.5322 4.76071 27.6431 5.05088 28.7052C5.57534 30.625 7.23225 32.2341 8.45869 33.7239C9.23177 34.6629 9.97027 35.5195 11.2982 35.4122C11.7615 35.3747 12.2291 35.1616 13.1643 34.7358C13.8713 34.4137 14.2248 34.2527 14.4914 34.0208C15.2245 33.3833 15.2499 32.5685 15.2499 31.6616V22.5135Z" stroke="#141B34" stroke-width="2.5"/>
<path d="M11.0833 18.7539C11.0833 11.8503 17.6124 6.25391 25.6666 6.25391C33.7208 6.25391 40.2499 11.8503 40.2499 18.7539" stroke="#141B34" stroke-width="2.5" stroke-linecap="square" stroke-linejoin="round"/>
<path d="M40.2498 35.4297V37.0964C40.2498 40.7782 36.5187 43.763 31.9164 43.763H27.7498" stroke="#141B34" stroke-width="2.5" stroke-linecap="round" stroke-linejoin="round"/>
</svg>
