<svg width="40" height="40" viewBox="0 0 40 40" fill="none" xmlns="http://www.w3.org/2000/svg">
<path d="M26.667 23.334C26.667 24.7147 27.7863 25.834 29.167 25.834C30.5477 25.834 31.667 24.7147 31.667 23.334C31.667 21.9533 30.5477 20.834 29.167 20.834C27.7863 20.834 26.667 21.9533 26.667 23.334Z" stroke="#101010" stroke-width="2.5"/>
<path d="M31.5002 13.334C31.6096 12.7955 31.6669 12.2381 31.6669 11.6673C31.6669 7.06495 27.9359 3.33398 23.3336 3.33398C18.7312 3.33398 15.0002 7.06495 15.0002 11.6673C15.0002 12.2381 15.0576 12.7955 15.1669 13.334" stroke="#101010" stroke-width="2.5"/>
<path d="M11.6673 13.3234H26.6673C31.3813 13.3234 33.7383 13.3234 35.2028 14.7885C36.6673 16.2537 36.6673 18.6118 36.6673 23.3281V26.6631C36.6673 31.3795 36.6673 33.7376 35.2028 35.2028C33.7383 36.668 31.3813 36.668 26.6673 36.668H16.6673C10.3819 36.668 7.23923 36.668 5.2866 34.7145C3.33398 32.7608 3.33398 29.6166 3.33398 23.3281V19.9933C3.33398 13.7048 3.33398 10.5606 5.2866 8.60704C6.85842 7.03447 9.20137 6.72779 13.334 6.66797H16.6673" stroke="#101010" stroke-width="2.5" stroke-linecap="round"/>
</svg>
