<svg width="41" height="40" viewBox="0 0 41 40" fill="none" xmlns="http://www.w3.org/2000/svg">
<path d="M20.3998 3.33398H10.3998C6.26311 3.33398 5.39978 4.19732 5.39978 8.33398V36.6673H25.3998V8.33398C25.3998 4.19732 24.5364 3.33398 20.3998 3.33398Z" stroke="#101010" stroke-width="2.5" stroke-linejoin="round"/>
<path d="M30.3998 13.334H25.3998V36.6673H35.3998V18.334C35.3998 14.1973 34.5364 13.334 30.3998 13.334Z" stroke="#101010" stroke-width="2.5" stroke-linejoin="round"/>
<path d="M13.733 10H17.0664M13.733 15H17.0664M13.733 20H17.0664" stroke="#101010" stroke-width="2.5" stroke-linecap="round" stroke-linejoin="round"/>
<path d="M19.5664 36.668V30.0013C19.5664 28.43 19.5664 27.6443 19.0782 27.1561C18.59 26.668 17.8044 26.668 16.233 26.668H14.5664C12.995 26.668 12.2093 26.668 11.7212 27.1561C11.233 27.6443 11.233 28.43 11.233 30.0013V36.668" stroke="#101010" stroke-width="2.5" stroke-linejoin="round"/>
</svg>
