<svg width="41" height="40" viewBox="0 0 41 40" fill="none" xmlns="http://www.w3.org/2000/svg">
<path d="M14.1922 4.2545C16.6504 2.73142 18.7959 3.3452 20.0847 4.32288C20.6132 4.72375 20.8774 4.9242 21.0329 4.9242C21.1884 4.9242 21.4525 4.72375 21.981 4.32288C23.2699 3.3452 25.4154 2.73142 27.8735 4.2545C31.0997 6.25337 31.8297 12.8477 24.3884 18.4112C22.971 19.4709 22.2624 20.0006 21.0329 20.0006C19.8034 20.0006 19.0947 19.4709 17.6774 18.4112C10.2361 12.8477 10.9661 6.25337 14.1922 4.2545Z" stroke="#101010" stroke-width="2.5" stroke-linecap="round"/>
<path d="M6.86621 23.334H10.8576C11.3478 23.334 11.8313 23.4445 12.2698 23.6567L15.6731 25.3033C16.1116 25.5155 16.5951 25.6258 17.0854 25.6258H18.823C20.5037 25.6258 21.8662 26.9443 21.8662 28.5707C21.8662 28.6363 21.8212 28.6942 21.7559 28.7122L17.521 29.8832C16.7613 30.0932 15.9479 30.02 15.2412 29.678L11.6031 27.9178" stroke="#101010" stroke-width="2.5" stroke-linecap="round" stroke-linejoin="round"/>
<path d="M21.8662 27.5L29.5209 25.1482C30.8779 24.7254 32.3447 25.2267 33.1947 26.4039C33.8094 27.2549 33.559 28.4737 32.6637 28.9904L20.1377 36.2175C19.341 36.6772 18.401 36.7894 17.5249 36.5294L6.86621 33.3665" stroke="#101010" stroke-width="2.5" stroke-linecap="round" stroke-linejoin="round"/>
</svg>
