<svg width="16" height="17" viewBox="0 0 16 17" fill="none" xmlns="http://www.w3.org/2000/svg">
<path d="M13.6331 14.1332H11.2622V10.4204C11.2622 9.53495 11.2464 8.39564 10.0291 8.39564C8.79436 8.39564 8.60513 9.35991 8.60513 10.3565V14.1332H6.23506V6.49784H8.51131V7.54096H8.54285C9.00724 6.74778 9.86981 6.27392 10.7884 6.30782C13.1915 6.30782 13.6339 7.88867 13.6339 9.94415L13.6331 14.1332ZM3.55985 5.45393C2.79978 5.45393 2.184 4.83816 2.184 4.07809C2.184 3.31803 2.79978 2.70225 3.55985 2.70225C4.31991 2.70225 4.93569 3.31803 4.93569 4.07809C4.93569 4.83816 4.31991 5.45393 3.55985 5.45393ZM4.74489 14.1332H2.37166V6.49784H4.74489V14.1332ZM14.815 0.500896H1.18031C0.536146 0.4938 0.00788449 1.01023 0 1.6544V15.345C0.00788449 15.99 0.536146 16.5064 1.18031 16.4993H14.815C15.4607 16.5072 15.9913 15.9908 16 15.345V1.65361C15.9905 1.00787 15.4599 0.491435 14.815 0.500108" fill="#555555"/>
</svg>
