<svg width="32" height="32" viewBox="0 0 32 32" fill="none" xmlns="http://www.w3.org/2000/svg">
<mask id="mask0_189_958" style="mask-type:alpha" maskUnits="userSpaceOnUse" x="0" y="0" width="32" height="32">
<rect width="32" height="32" fill="#D9D9D9"/>
</mask>
<g mask="url(#mask0_189_958)">
<path d="M7.07684 27.3337C6.41195 27.3337 5.84395 27.0982 5.37284 26.6273C4.90195 26.1562 4.6665 25.5882 4.6665 24.9233V7.07733C4.6665 6.41244 4.90195 5.84444 5.37284 5.37333C5.84395 4.90244 6.41195 4.66699 7.07684 4.66699H24.9228C25.5877 4.66699 26.1557 4.90244 26.6268 5.37333C27.0977 5.84444 27.3332 6.41244 27.3332 7.07733V10.7057H25.3332V7.07733C25.3332 6.95755 25.2947 6.85922 25.2178 6.78233C25.1409 6.70544 25.0426 6.66699 24.9228 6.66699H7.07684C6.95706 6.66699 6.85873 6.70544 6.78184 6.78233C6.70495 6.85922 6.6665 6.95755 6.6665 7.07733V24.9233C6.6665 25.0431 6.70495 25.1414 6.78184 25.2183C6.85873 25.2952 6.95706 25.3337 7.07684 25.3337H24.9228C25.0426 25.3337 25.1409 25.2952 25.2178 25.2183C25.2947 25.1414 25.3332 25.0431 25.3332 24.9233V21.295H27.3332V24.9233C27.3332 25.5882 27.0977 26.1562 26.6268 26.6273C26.1557 27.0982 25.5877 27.3337 24.9228 27.3337H7.07684ZM17.7435 22.0003C17.0786 22.0003 16.5106 21.7649 16.0395 21.294C15.5686 20.8229 15.3332 20.2549 15.3332 19.59V12.4107C15.3332 11.7458 15.5686 11.1778 16.0395 10.7067C16.5106 10.2358 17.0786 10.0003 17.7435 10.0003H26.2562C26.9211 10.0003 27.4891 10.2358 27.9602 10.7067C28.4311 11.1778 28.6665 11.7458 28.6665 12.4107V19.59C28.6665 20.2549 28.4311 20.8229 27.9602 21.294C27.4891 21.7649 26.9211 22.0003 26.2562 22.0003H17.7435ZM26.2562 20.0003C26.3759 20.0003 26.4743 19.9619 26.5512 19.885C26.6281 19.8081 26.6665 19.7098 26.6665 19.59V12.4107C26.6665 12.2909 26.6281 12.1925 26.5512 12.1157C26.4743 12.0388 26.3759 12.0003 26.2562 12.0003H17.7435C17.6237 12.0003 17.5254 12.0388 17.4485 12.1157C17.3716 12.1925 17.3332 12.2909 17.3332 12.4107V19.59C17.3332 19.7098 17.3716 19.8081 17.4485 19.885C17.5254 19.9619 17.6237 20.0003 17.7435 20.0003H26.2562ZM21.3332 18.0003C21.8887 18.0003 22.3609 17.8059 22.7498 17.417C23.1387 17.0281 23.3332 16.5559 23.3332 16.0003C23.3332 15.4448 23.1387 14.9725 22.7498 14.5837C22.3609 14.1948 21.8887 14.0003 21.3332 14.0003C20.7776 14.0003 20.3054 14.1948 19.9165 14.5837C19.5276 14.9725 19.3332 15.4448 19.3332 16.0003C19.3332 16.5559 19.5276 17.0281 19.9165 17.417C20.3054 17.8059 20.7776 18.0003 21.3332 18.0003Z" fill="#101010"/>
</g>
</svg>
