<svg width="32" height="32" viewBox="0 0 32 32" fill="none" xmlns="http://www.w3.org/2000/svg">
<mask id="mask0_189_979" style="mask-type:alpha" maskUnits="userSpaceOnUse" x="0" y="0" width="32" height="32">
<rect width="32" height="32" fill="#D9D9D9"/>
</mask>
<g mask="url(#mask0_189_979)">
<path d="M4.93335 13.3325C4.93335 14.6641 5.1628 15.9359 5.62169 17.1479C6.0808 18.3599 6.73602 19.4702 7.58735 20.4789C7.75313 20.672 7.83813 20.8878 7.84235 21.1262C7.84658 21.3647 7.75902 21.5735 7.57969 21.7529C7.40013 21.9324 7.18558 22.0145 6.93602 21.9992C6.68647 21.9839 6.4788 21.8795 6.31302 21.6862C5.31302 20.5204 4.5408 19.2227 3.99635 17.7929C3.45191 16.3629 3.17969 14.8761 3.17969 13.3325C3.17969 11.789 3.45191 10.3022 3.99635 8.87221C4.5408 7.44243 5.31302 6.14465 6.31302 4.97887C6.4788 4.78554 6.68647 4.68121 6.93602 4.66587C7.18558 4.65054 7.40013 4.73265 7.57969 4.91221C7.75902 5.09154 7.84658 5.30043 7.84235 5.53887C7.83813 5.77732 7.75313 5.99309 7.58735 6.1862C6.73602 7.19487 6.0808 8.3052 5.62169 9.51721C5.1628 10.7292 4.93335 12.001 4.93335 13.3325ZM9.33335 13.3325C9.33335 14.0779 9.44613 14.792 9.67169 15.4749C9.89746 16.1578 10.2317 16.7924 10.6744 17.3789C10.8266 17.572 10.9048 17.7933 10.909 18.0429C10.9132 18.2924 10.8257 18.5069 10.6464 18.6862C10.4668 18.8658 10.2578 18.9513 10.0194 18.9429C9.78091 18.9342 9.58558 18.8333 9.43335 18.6402C8.83335 17.8967 8.37435 17.0698 8.05635 16.1595C7.73858 15.2493 7.57969 14.307 7.57969 13.3325C7.57969 12.3581 7.73858 11.4158 8.05635 10.5055C8.37435 9.59532 8.83335 8.76843 9.43335 8.02487C9.58558 7.83176 9.78091 7.73087 10.0194 7.72221C10.2578 7.71376 10.4668 7.79932 10.6464 7.97887C10.8257 8.15821 10.9132 8.37265 10.909 8.62221C10.9048 8.87176 10.8266 9.09309 10.6744 9.28621C10.2317 9.87265 9.89746 10.5073 9.67169 11.1902C9.44613 11.8731 9.33335 12.5872 9.33335 13.3325ZM15 26.4095V16.0915C14.4171 15.8933 13.9466 15.542 13.5884 15.0375C13.2304 14.5333 13.0514 13.965 13.0514 13.3325C13.0514 12.5103 13.3372 11.8133 13.909 11.2415C14.4808 10.6698 15.1778 10.3839 16 10.3839C16.8222 10.3839 17.5192 10.6698 18.091 11.2415C18.6628 11.8133 18.9487 12.5103 18.9487 13.3325C18.9487 13.965 18.7697 14.5333 18.4117 15.0375C18.0535 15.542 17.5829 15.8933 17 16.0915V26.4095C17 26.6933 16.9042 26.9309 16.7127 27.1222C16.5214 27.3138 16.2838 27.4095 16 27.4095C15.7162 27.4095 15.4787 27.3138 15.2874 27.1222C15.0958 26.9309 15 26.6933 15 26.4095ZM22.6667 13.3325C22.6667 12.5872 22.5539 11.8731 22.3284 11.1902C22.1026 10.5073 21.7684 9.87265 21.3257 9.28621C21.1735 9.09309 21.0952 8.87176 21.091 8.62221C21.0868 8.37265 21.1744 8.15821 21.3537 7.97887C21.5332 7.79932 21.7422 7.71376 21.9807 7.72221C22.2191 7.73087 22.4145 7.83176 22.5667 8.02487C23.1667 8.76843 23.6257 9.59532 23.9437 10.5055C24.2615 11.4158 24.4204 12.3581 24.4204 13.3325C24.4204 14.307 24.2615 15.2493 23.9437 16.1595C23.6257 17.0698 23.1667 17.8967 22.5667 18.6402C22.4145 18.8333 22.2191 18.9342 21.9807 18.9429C21.7422 18.9513 21.5332 18.8658 21.3537 18.6862C21.1744 18.5069 21.0868 18.2924 21.091 18.0429C21.0952 17.7933 21.1735 17.572 21.3257 17.3789C21.7684 16.7924 22.1026 16.1578 22.3284 15.4749C22.5539 14.792 22.6667 14.0779 22.6667 13.3325ZM27.0667 13.3325C27.0667 12.001 26.8372 10.7292 26.3784 9.51721C25.9192 8.3052 25.264 7.19487 24.4127 6.1862C24.2469 5.99309 24.1619 5.77732 24.1577 5.53887C24.1535 5.30043 24.241 5.09154 24.4204 4.91221C24.5999 4.73265 24.8145 4.65054 25.064 4.66587C25.3136 4.68121 25.5212 4.78554 25.687 4.97887C26.687 6.14465 27.4592 7.44243 28.0037 8.87221C28.5481 10.3022 28.8204 11.789 28.8204 13.3325C28.8204 14.8761 28.5481 16.3629 28.0037 17.7929C27.4592 19.2227 26.687 20.5204 25.687 21.6862C25.5212 21.8795 25.3136 21.9839 25.064 21.9992C24.8145 22.0145 24.5999 21.9324 24.4204 21.7529C24.241 21.5735 24.1535 21.3647 24.1577 21.1262C24.1619 20.8878 24.2469 20.672 24.4127 20.4789C25.264 19.4702 25.9192 18.3599 26.3784 17.1479C26.8372 15.9359 27.0667 14.6641 27.0667 13.3325Z" fill="#101010"/>
</g>
</svg>
