<svg width="32" height="32" viewBox="0 0 32 32" fill="none" xmlns="http://www.w3.org/2000/svg">
<mask id="mask0_189_965" style="mask-type:alpha" maskUnits="userSpaceOnUse" x="0" y="0" width="32" height="32">
<rect width="32" height="32" fill="#D9D9D9"/>
</mask>
<g mask="url(#mask0_189_965)">
<path d="M7.6664 21.667V13.667C7.6664 13.3837 7.76229 13.1462 7.95406 12.9544C8.14584 12.7628 8.3834 12.667 8.66673 12.667C8.95029 12.667 9.18784 12.7628 9.3794 12.9544C9.57073 13.1462 9.6664 13.3837 9.6664 13.667V21.667C9.6664 21.9504 9.57051 22.1879 9.37873 22.3797C9.18695 22.5713 8.9494 22.667 8.66606 22.667C8.38251 22.667 8.14506 22.5713 7.95373 22.3797C7.76217 22.1879 7.6664 21.9504 7.6664 21.667ZM14.9997 21.667V13.667C14.9997 13.3837 15.0956 13.1462 15.2874 12.9544C15.4792 12.7628 15.7167 12.667 16.0001 12.667C16.2836 12.667 16.5211 12.7628 16.7124 12.9544C16.904 13.1462 16.9997 13.3837 16.9997 13.667V21.667C16.9997 21.9504 16.9038 22.1879 16.7121 22.3797C16.5203 22.5713 16.2827 22.667 15.9994 22.667C15.7158 22.667 15.4784 22.5713 15.2871 22.3797C15.0955 22.1879 14.9997 21.9504 14.9997 21.667ZM4.69206 27.3337C4.40873 27.3337 4.17128 27.2378 3.97973 27.046C3.78795 26.8543 3.69206 26.6167 3.69206 26.3334C3.69206 26.0498 3.78795 25.8124 3.97973 25.621C4.17128 25.4295 4.40873 25.3337 4.69206 25.3337H27.3074C27.5907 25.3337 27.8282 25.4296 28.0197 25.6214C28.2115 25.8132 28.3074 26.0507 28.3074 26.334C28.3074 26.6176 28.2115 26.855 28.0197 27.0464C27.8282 27.2379 27.5907 27.3337 27.3074 27.3337H4.69206ZM22.3331 21.667V13.667C22.3331 13.3837 22.429 13.1462 22.6207 12.9544C22.8125 12.7628 23.0501 12.667 23.3334 12.667C23.617 12.667 23.8544 12.7628 24.0457 12.9544C24.2373 13.1462 24.3331 13.3837 24.3331 13.667V21.667C24.3331 21.9504 24.2372 22.1879 24.0454 22.3797C23.8536 22.5713 23.6161 22.667 23.3327 22.667C23.0492 22.667 22.8116 22.5713 22.6201 22.3797C22.4287 22.1879 22.3331 21.9504 22.3331 21.667ZM27.3587 10.0004H4.54606C4.30873 10.0004 4.10706 9.91749 3.94106 9.75171C3.77506 9.58615 3.69206 9.38493 3.69206 9.14804V8.62737C3.69206 8.45382 3.73551 8.30415 3.8224 8.17838C3.90951 8.05282 4.02417 7.95071 4.1664 7.87204L14.9407 2.60037C15.2736 2.43971 15.6261 2.35938 15.9981 2.35938C16.3701 2.35938 16.7236 2.43971 17.0587 2.60037L27.7791 7.83871C27.9466 7.92426 28.0765 8.04393 28.1687 8.19771C28.2612 8.35171 28.3074 8.51704 28.3074 8.69371V9.05504C28.3074 9.32793 28.2181 9.55371 28.0394 9.73238C27.8607 9.91104 27.6338 10.0004 27.3587 10.0004ZM8.42006 8.00037H23.5794L16.1794 4.41071C16.1194 4.38493 16.0595 4.37204 15.9997 4.37204C15.94 4.37204 15.8801 4.38493 15.8201 4.41071L8.42006 8.00037Z" fill="#101010"/>
</g>
</svg>
