<svg width="32" height="32" viewBox="0 0 32 32" fill="none" xmlns="http://www.w3.org/2000/svg">
<mask id="mask0_189_951" style="mask-type:alpha" maskUnits="userSpaceOnUse" x="0" y="0" width="32" height="32">
<rect width="32" height="32" fill="#D9D9D9"/>
</mask>
<g mask="url(#mask0_189_951)">
<path d="M16.0002 27.3469C15.6942 27.3469 15.3963 27.2897 15.1065 27.1752C14.8167 27.0608 14.5616 26.889 14.3412 26.6599L5.66416 17.9495C4.88638 17.1718 4.3035 16.2893 3.9155 15.3022C3.5275 14.3149 3.3335 13.2939 3.3335 12.2392C3.3335 10.1385 4.00527 8.34288 5.34883 6.85221C6.69239 5.36154 8.35561 4.61621 10.3385 4.61621C11.3283 4.61621 12.2697 4.81665 13.1628 5.21754C14.0562 5.61843 14.8524 6.17954 15.5515 6.90088L16.0002 7.37521L16.4232 6.92654C17.1172 6.1881 17.9129 5.61843 18.8105 5.21754C19.7078 4.81665 20.6472 4.61621 21.6285 4.61621C23.6114 4.61621 25.2802 5.36154 26.6348 6.85221C27.9895 8.34288 28.6668 10.1274 28.6668 12.2059C28.6668 13.2692 28.4694 14.2944 28.0745 15.2815C27.6796 16.2689 27.1002 17.1514 26.3362 17.9292L17.6258 26.6599C17.3967 26.889 17.1449 27.0608 16.8705 27.1752C16.5963 27.2897 16.3062 27.3469 16.0002 27.3469ZM17.3335 11.0009C17.5044 11.0009 17.6642 11.0414 17.8128 11.1225C17.9617 11.2039 18.0788 11.3121 18.1642 11.4472L20.5205 15.0009H26.0028C26.2353 14.5547 26.4096 14.0965 26.5258 13.6265C26.6421 13.1565 26.6959 12.683 26.6875 12.2059C26.6515 10.6725 26.1532 9.36443 25.1925 8.28154C24.2318 7.19865 23.0438 6.65721 21.6285 6.65721C20.9225 6.65721 20.2399 6.79699 19.5808 7.07654C18.9219 7.3561 18.3506 7.76421 17.8668 8.30088L16.8128 9.43421C16.7104 9.5591 16.5874 9.65188 16.4438 9.71254C16.3003 9.77321 16.1524 9.80354 16.0002 9.80354C15.8479 9.80354 15.6979 9.77099 15.5502 9.70588C15.4024 9.64099 15.2704 9.55043 15.1542 9.43421L14.1002 8.30088C13.6164 7.76421 13.0484 7.34921 12.3962 7.05588C11.7442 6.76277 11.0583 6.61621 10.3385 6.61621C8.92316 6.61621 7.73516 7.16454 6.7745 8.26121C5.81383 9.35765 5.3335 10.6725 5.3335 12.2059C5.3335 12.6914 5.38816 13.1671 5.4975 13.6329C5.60705 14.0987 5.77372 14.5547 5.9975 15.0009H12.0002C12.1711 15.0009 12.3287 15.0414 12.4732 15.1225C12.6176 15.2039 12.7326 15.3121 12.8182 15.4472L14.3695 17.7572L16.3875 11.7035C16.4593 11.4967 16.5797 11.3279 16.7488 11.1972C16.9182 11.0663 17.1131 11.0009 17.3335 11.0009ZM17.6308 14.2445L15.6128 20.2982C15.5411 20.5051 15.4151 20.6739 15.2348 20.8045C15.0544 20.9354 14.8539 21.0009 14.6335 21.0009C14.4626 21.0009 14.3049 20.9603 14.1605 20.8792C14.0161 20.7979 13.9011 20.6897 13.8155 20.5545L11.4465 17.0009H7.54616L15.7668 25.2342C15.8113 25.2787 15.8502 25.3064 15.8835 25.3175C15.9168 25.3287 15.9557 25.3342 16.0002 25.3342C16.0446 25.3342 16.0835 25.3287 16.1168 25.3175C16.1502 25.3064 16.1891 25.2787 16.2335 25.2342L24.4335 17.0009H20.0002C19.8293 17.0009 19.6695 16.9581 19.5208 16.8725C19.3719 16.7872 19.2479 16.677 19.1488 16.5419L17.6308 14.2445Z" fill="#101010"/>
</g>
</svg>
