<svg width="20" height="20" viewBox="0 0 20 20" fill="none" xmlns="http://www.w3.org/2000/svg">
<mask id="mask0_162_3682" style="mask-type:alpha" maskUnits="userSpaceOnUse" x="0" y="0" width="20" height="20">
<rect width="20" height="20" fill="#D9D9D9"/>
</mask>
<g mask="url(#mask0_162_3682)">
<path d="M10.0002 13.958C10.1775 13.958 10.3259 13.8981 10.4455 13.7782C10.5652 13.6585 10.625 13.5101 10.625 13.333V9.79134C10.625 9.61426 10.5651 9.46579 10.4452 9.34592C10.3254 9.2262 10.1769 9.16634 9.99983 9.16634C9.82261 9.16634 9.67421 9.2262 9.55462 9.34592C9.4349 9.46579 9.37504 9.61426 9.37504 9.79134V13.333C9.37504 13.5101 9.43497 13.6585 9.55483 13.7782C9.67469 13.8981 9.82317 13.958 10.0002 13.958ZM10 7.74009C10.1907 7.74009 10.3506 7.67558 10.4796 7.54655C10.6087 7.41752 10.6732 7.25766 10.6732 7.06697C10.6732 6.87627 10.6087 6.71641 10.4796 6.58738C10.3506 6.45849 10.1907 6.39405 10 6.39405C9.80935 6.39405 9.64949 6.45849 9.52046 6.58738C9.39143 6.71641 9.32692 6.87627 9.32692 7.06697C9.32692 7.25766 9.39143 7.41752 9.52046 7.54655C9.64949 7.67558 9.80935 7.74009 10 7.74009ZM10.0015 17.9163C8.9065 17.9163 7.87726 17.7086 6.91379 17.293C5.95032 16.8775 5.11226 16.3135 4.39962 15.6011C3.68698 14.8888 3.12275 14.0511 2.70692 13.088C2.29122 12.125 2.08337 11.096 2.08337 10.0011C2.08337 8.90613 2.29115 7.8769 2.70671 6.91342C3.12226 5.94995 3.68622 5.1119 4.39858 4.39926C5.11094 3.68662 5.94865 3.12238 6.91171 2.70655C7.87476 2.29085 8.90372 2.08301 9.99858 2.08301C11.0936 2.08301 12.1228 2.29079 13.0863 2.70634C14.0498 3.1219 14.8878 3.68586 15.6005 4.39822C16.3131 5.11058 16.8773 5.94829 17.2932 6.91134C17.7089 7.8744 17.9167 8.90335 17.9167 9.99822C17.9167 11.0932 17.7089 12.1225 17.2934 13.0859C16.8778 14.0494 16.3139 14.8875 15.6015 15.6001C14.8891 16.3127 14.0514 16.877 13.0884 17.2928C12.1253 17.7085 11.0964 17.9163 10.0015 17.9163ZM10 16.6663C11.8612 16.6663 13.4375 16.0205 14.7292 14.7288C16.0209 13.4372 16.6667 11.8608 16.6667 9.99967C16.6667 8.13856 16.0209 6.56217 14.7292 5.27051C13.4375 3.97884 11.8612 3.33301 10 3.33301C8.13893 3.33301 6.56254 3.97884 5.27087 5.27051C3.97921 6.56217 3.33337 8.13856 3.33337 9.99967C3.33337 11.8608 3.97921 13.4372 5.27087 14.7288C6.56254 16.0205 8.13893 16.6663 10 16.6663Z" fill="#555555"/>
</g>
</svg>
