<svg width="40" height="40" viewBox="0 0 40 40" fill="none" xmlns="http://www.w3.org/2000/svg">
<path d="M24.1666 15.0026C24.1666 17.3038 22.3011 19.1693 20 19.1693C17.6988 19.1693 15.8333 17.3038 15.8333 15.0026C15.8333 12.7014 17.6988 10.8359 20 10.8359C22.3011 10.8359 24.1666 12.7014 24.1666 15.0026Z" stroke="#141B34" stroke-width="2.5"/>
<path d="M22.0956 29.1586C21.5335 29.6999 20.7821 30.0026 20.0003 30.0026C19.2183 30.0026 18.467 29.6999 17.9048 29.1586C12.7571 24.1706 5.85863 18.5984 9.22283 10.5088C11.0418 6.1348 15.4082 3.33594 20.0003 3.33594C24.5923 3.33594 28.9586 6.13482 30.7776 10.5088C34.1376 18.5883 27.256 24.1878 22.0956 29.1586Z" stroke="#141B34" stroke-width="2.5"/>
<path d="M30 33.3359C30 35.1769 25.5228 36.6693 20 36.6693C14.4771 36.6693 10 35.1769 10 33.3359" stroke="#141B34" stroke-width="2.5" stroke-linecap="round"/>
</svg>
