<svg width="40" height="40" viewBox="0 0 40 40" fill="none" xmlns="http://www.w3.org/2000/svg">
<path d="M3.33331 10L14.855 16.5283C19.1026 18.935 20.8973 18.935 25.145 16.5283L36.6666 10" stroke="#141B34" stroke-width="2.5" stroke-linejoin="round"/>
<path d="M3.3596 22.458C3.46855 27.5674 3.52303 30.1219 5.40825 32.0144C7.29345 33.9067 9.9172 33.9725 15.1647 34.1044C18.3988 34.1857 21.6011 34.1857 24.8353 34.1044C30.0828 33.9725 32.7065 33.9067 34.5918 32.0144C36.477 30.1219 36.5315 27.5674 36.6403 22.458C36.6755 20.8152 36.6755 19.1822 36.6403 17.5394C36.5315 12.4301 36.477 9.87552 34.5918 7.98313C32.7065 6.09075 30.0828 6.02483 24.8353 5.89298C21.6011 5.81172 18.3988 5.81172 15.1647 5.89297C9.9172 6.0248 7.29345 6.09072 5.40823 7.98312C3.52301 9.8755 3.46855 12.4301 3.35958 17.5394C3.32455 19.1822 3.32456 20.8152 3.3596 22.458Z" stroke="#141B34" stroke-width="2.5" stroke-linejoin="round"/>
</svg>
