<svg width="51" height="50" viewBox="0 0 51 50" fill="none" xmlns="http://www.w3.org/2000/svg">
<path d="M21.1666 14.5833L20.0919 17.4875C18.6827 21.2958 17.9781 23.1999 16.589 24.5891C15.2 25.978 13.2958 26.6826 9.48752 28.092L6.58325 29.1666L9.48752 30.2412C13.2958 31.6505 15.2 32.3551 16.589 33.7441C17.9781 35.1333 18.6827 37.0374 20.0919 40.8455L21.1666 43.7499L22.2412 40.8455C23.6505 37.0374 24.3551 35.1333 25.7441 33.7441C27.1333 32.3551 29.0374 31.6505 32.8455 30.2412L35.7499 29.1666L32.8455 28.092C29.0374 26.6826 27.1333 25.978 25.7441 24.5891C24.3551 23.1999 23.6505 21.2958 22.2412 17.4875L21.1666 14.5833Z" stroke="black" stroke-width="3.125" stroke-linejoin="round"/>
<path d="M37.8333 6.25L37.3726 7.49469C36.7687 9.12681 36.4668 9.9429 35.8714 10.5382C35.2762 11.1335 34.4601 11.4355 32.828 12.0394L31.5833 12.5L32.828 12.9606C34.4601 13.5645 35.2762 13.8665 35.8714 14.4618C36.4668 15.0571 36.7687 15.8732 37.3726 17.5053L37.8333 18.75L38.2939 17.5053C38.8978 15.8732 39.1997 15.0571 39.7951 14.4618C40.3903 13.8665 41.2064 13.5645 42.8385 12.9606L44.0833 12.5L42.8385 12.0394C41.2064 11.4355 40.3903 11.1335 39.7951 10.5382C39.1997 9.9429 38.8978 9.12681 38.2939 7.49469L37.8333 6.25Z" stroke="black" stroke-width="3.125" stroke-linejoin="round"/>
</svg>
