<svg width="51" height="50" viewBox="0 0 51 50" fill="none" xmlns="http://www.w3.org/2000/svg">
<path d="M36.0832 45.8331C41.8361 45.8331 46.4998 41.1694 46.4998 35.4164C46.4998 29.6635 41.8361 24.9998 36.0832 24.9998C30.3302 24.9998 25.6665 29.6635 25.6665 35.4164C25.6665 41.1694 30.3302 45.8331 36.0832 45.8331Z" stroke="black" stroke-width="2.5"/>
<path d="M16.2913 27.0832H13.9997C9.67847 27.0832 7.51786 27.0832 6.17545 25.7407C4.83301 24.3984 4.83301 22.2378 4.83301 17.9165V13.3332C4.83301 9.01196 4.83301 6.85136 6.17545 5.50894C7.51786 4.1665 9.67847 4.1665 13.9997 4.1665H18.583C22.9043 4.1665 25.0649 4.1665 26.4072 5.50894C27.7497 6.85136 27.7497 9.01196 27.7497 13.3332V15.6248" stroke="black" stroke-width="2.5"/>
<path d="M25.7392 39.5833C19.7861 38.5845 15.25 33.4072 15.25 27.1703C15.25 20.2186 20.8854 14.5833 27.8371 14.5833C34.074 14.5833 39.2512 19.1194 40.25 25.0724" stroke="black" stroke-width="2.5"/>
</svg>
