<svg width="50" height="50" viewBox="0 0 50 50" fill="none" xmlns="http://www.w3.org/2000/svg">
<path d="M45.8333 15.1738C45.8333 20.6771 41.169 25.1392 35.4167 25.1392C34.7402 25.14 34.0658 25.0775 33.4015 24.9527C32.9231 24.863 32.684 24.8182 32.5171 24.8436C32.3502 24.869 32.1135 24.9948 31.6404 25.2465C30.3021 25.9582 28.7415 26.2096 27.2406 25.9305C27.811 25.2288 28.2006 24.3869 28.3725 23.4844C28.4767 22.9323 28.2187 22.3961 27.8321 22.0036C26.0762 20.2205 25 17.818 25 15.1738C25 9.67054 29.6642 5.2085 35.4167 5.2085C41.169 5.2085 45.8333 9.67054 45.8333 15.1738Z" stroke="black" stroke-width="2.5" stroke-linejoin="round"/>
<path d="M32.2754 15.6252H32.2923M38.5254 15.6252H38.5423" stroke="black" stroke-width="2.5" stroke-linecap="round"/>
<path d="M15.6288 44.7921H9.82936C9.15584 44.7921 8.47944 44.6973 7.86082 44.4314C5.84705 43.5662 4.82534 42.4237 4.34919 41.7089C4.07825 41.3025 4.11686 40.7843 4.4108 40.3939C6.74392 37.295 12.1633 35.4233 15.6387 35.4231C19.1141 35.4233 24.5236 37.295 26.8567 40.3939C27.1507 40.7843 27.1892 41.3025 26.9184 41.7089C26.4421 42.4237 25.4205 43.5662 23.4067 44.4314C22.788 44.6973 22.1117 44.7921 21.4382 44.7921H15.6288Z" stroke="black" stroke-width="2.5" stroke-linecap="round" stroke-linejoin="round"/>
<path d="M21.4277 24.5603C21.4277 27.7505 18.8358 30.3368 15.6386 30.3368C12.4414 30.3368 9.84961 27.7505 9.84961 24.5603C9.84961 21.3701 12.4414 18.7839 15.6386 18.7839C18.8358 18.7839 21.4277 21.3701 21.4277 24.5603Z" stroke="black" stroke-width="2.5" stroke-linecap="round" stroke-linejoin="round"/>
</svg>
