<svg width="155" height="45" viewBox="0 0 155 45" fill="none" xmlns="http://www.w3.org/2000/svg">
<path d="M52.1685 28.4135V11.3015H49.3625V28.4135H52.1685Z" fill="white"/>
<path d="M53.886 22.7095C53.886 26.2055 56.232 28.6895 59.797 28.6895C63.362 28.6895 65.708 26.2055 65.708 22.7095C65.708 19.2135 63.362 16.7295 59.797 16.7295C56.232 16.7295 53.886 19.2135 53.886 22.7095ZM56.715 22.7095C56.715 20.6625 57.934 19.2365 59.797 19.2365C61.66 19.2365 62.879 20.6625 62.879 22.7095C62.879 24.7335 61.66 26.1825 59.797 26.1825C57.934 26.1825 56.715 24.7335 56.715 22.7095Z" fill="white"/>
<path d="M66.6516 22.4796C66.6516 25.7916 68.7906 28.1836 71.9876 28.1836C73.6436 28.1836 75.0696 27.5166 75.7826 26.4126V28.3446C75.7826 30.2076 74.6096 31.4496 72.6546 31.4496C70.9066 31.4496 69.7106 30.5986 69.5496 29.1036H66.7206C67.0886 32.0706 69.3656 34.0026 72.4936 34.0026C76.1736 34.0026 78.5196 31.5876 78.5196 27.8386V17.0516H76.0356L75.8746 18.5926C75.1846 17.3966 73.7586 16.6836 72.0796 16.6836C68.8366 16.6836 66.6516 19.1446 66.6516 22.4796ZM69.5036 22.4106C69.5036 20.5246 70.6996 19.1446 72.4706 19.1446C74.4026 19.1446 75.6906 20.5476 75.6906 22.4106C75.6906 24.2966 74.4026 25.7456 72.4706 25.7456C70.7226 25.7456 69.5036 24.3196 69.5036 22.4106Z" fill="white"/>
<path d="M79.9082 22.7095C79.9082 26.2055 82.2542 28.6895 85.8192 28.6895C89.3842 28.6895 91.7302 26.2055 91.7302 22.7095C91.7302 19.2135 89.3842 16.7295 85.8192 16.7295C82.2542 16.7295 79.9082 19.2135 79.9082 22.7095ZM82.7372 22.7095C82.7372 20.6625 83.9562 19.2365 85.8192 19.2365C87.6822 19.2365 88.9012 20.6625 88.9012 22.7095C88.9012 24.7335 87.6822 26.1825 85.8192 26.1825C83.9562 26.1825 82.7372 24.7335 82.7372 22.7095Z" fill="white"/>
<path d="M94.7671 14.7286C95.6871 14.7286 96.4461 13.9926 96.4461 13.0496C96.4461 12.1296 95.6871 11.3936 94.7671 11.3936C93.8241 11.3936 93.1111 12.1296 93.1111 13.0496C93.1111 13.9926 93.8241 14.7286 94.7671 14.7286ZM93.3641 28.4136H96.1701V17.0516H93.3641V28.4136Z" fill="white"/>
<path d="M98.6284 33.6805H101.366V26.8495C102.079 28.0225 103.62 28.7125 105.322 28.7125C108.68 28.7125 110.681 26.1365 110.635 22.5945C110.566 19.0295 108.519 16.7065 105.299 16.7065C103.574 16.7065 102.01 17.4655 101.32 18.7765L101.159 17.0515H98.6284V33.6805ZM101.481 22.7325C101.481 20.6855 102.723 19.2595 104.678 19.2595C106.633 19.2595 107.806 20.7085 107.806 22.7325C107.806 24.7565 106.633 26.1825 104.678 26.1825C102.723 26.1825 101.481 24.7795 101.481 22.7325Z" fill="white"/>
<path d="M111.346 25.0095C111.438 27.2635 113.186 28.7125 115.9 28.7125C118.568 28.7125 120.385 27.2865 120.385 25.0785C120.385 23.4455 119.373 22.3415 117.51 21.8815L115.509 21.3985C114.658 21.1685 114.083 20.8695 114.083 20.1335C114.083 19.3515 114.704 18.7995 115.716 18.7995C116.774 18.7995 117.464 19.3975 117.464 20.3865H120.017C119.925 18.1325 118.246 16.7065 115.785 16.7065C113.347 16.7065 111.53 18.1325 111.53 20.2945C111.53 21.7665 112.381 22.9855 114.566 23.5605L116.544 24.0665C117.28 24.2735 117.74 24.6185 117.74 25.2625C117.74 26.1595 116.889 26.5735 115.854 26.5735C114.612 26.5735 113.899 25.9985 113.899 25.0095H111.346Z" fill="white"/>
<path d="M126.206 28.7125C127.747 28.7125 129.219 27.9995 129.886 26.9415L130.07 28.4135H132.692V17.0515H129.886V23.0085C129.886 25.0555 129.104 26.2055 127.264 26.2055C125.838 26.2055 124.849 25.5155 124.849 23.1695V17.0515H122.043V24.1585C122.043 26.8725 123.515 28.7125 126.206 28.7125Z" fill="white"/>
<path d="M137.974 28.4135V21.8815C137.974 20.0415 139.055 19.1675 140.389 19.1675C141.723 19.1675 142.597 20.0185 142.597 21.6285V28.4135H145.334V21.9045C145.334 20.0415 146.392 19.1675 147.726 19.1675C149.083 19.1675 149.957 20.0185 149.957 21.6285V28.4135H152.671V20.9845C152.671 18.3625 151.222 16.7065 148.462 16.7065C146.737 16.7065 145.38 17.5345 144.828 18.8685C144.207 17.5345 142.965 16.7065 141.079 16.7065C139.745 16.7065 138.549 17.3275 137.882 18.3395L137.744 17.0515H135.168V28.4135H137.974Z" fill="white"/>
<path d="M131.248 38.5676C131.666 38.5676 132.029 38.2156 132.029 37.7976C132.029 37.3686 131.666 37.0166 131.248 37.0166C130.819 37.0166 130.456 37.3686 130.456 37.7976C130.456 38.2156 130.819 38.5676 131.248 38.5676Z" fill="white"/>
<path d="M132.835 35.7296C132.835 37.4126 133.869 38.5456 135.376 38.5456C136.674 38.5456 137.664 37.7646 137.873 36.5986H136.883C136.696 37.2476 136.124 37.6326 135.442 37.6326C134.474 37.6326 133.858 36.8846 133.858 35.7186C133.858 34.5306 134.507 33.8046 135.464 33.8046C136.124 33.8046 136.696 34.1566 136.872 34.8496H137.862C137.686 33.6726 136.762 32.8806 135.475 32.8806C133.913 32.8806 132.835 34.0356 132.835 35.7296Z" fill="white"/>
<path d="M138.263 35.7186C138.263 37.3356 139.363 38.5456 141.013 38.5456C142.663 38.5456 143.763 37.3356 143.763 35.7186C143.763 34.1016 142.663 32.8916 141.013 32.8916C139.363 32.8916 138.263 34.1016 138.263 35.7186ZM139.308 35.7186C139.308 34.6186 139.979 33.8156 141.013 33.8156C142.047 33.8156 142.718 34.6186 142.718 35.7186C142.718 36.8186 142.047 37.6216 141.013 37.6216C139.979 37.6216 139.308 36.8186 139.308 35.7186Z" fill="white"/>
<path d="M145.68 38.4246V35.1906C145.68 34.3436 146.208 33.7936 146.978 33.7936C147.715 33.7936 148.177 34.2666 148.177 35.1136V38.4246H149.189V35.2016C149.189 34.3436 149.706 33.7936 150.487 33.7936C151.213 33.7936 151.675 34.2666 151.675 35.1136V38.4246H152.676V34.8936C152.676 33.6506 151.95 32.8916 150.718 32.8916C149.882 32.8916 149.233 33.2986 148.969 33.9586C148.694 33.2986 148.089 32.8916 147.209 32.8916C146.538 32.8916 145.944 33.1996 145.647 33.7276L145.57 33.0456H144.646V38.4246H145.68Z" fill="white"/>
<path fill-rule="evenodd" clip-rule="evenodd" d="M2.72949 22.8489L2.73142 22.6485L2.7354 22.448L2.74144 22.2475L2.74953 22.047L2.75969 21.8465L2.7719 21.646L2.78618 21.4456L2.80251 21.2452L2.82091 21.0449L2.84137 20.8446L2.86389 20.6446L2.88846 20.4446L2.9151 20.2448L2.9438 20.0452L2.97455 19.8458L3.00736 19.6467L3.04223 19.4477L3.07914 19.2491L3.11811 19.0507L3.15913 18.8526L3.2022 18.6548L3.2473 18.4574L3.29446 18.2604L3.34364 18.0637L3.39487 17.8675L3.44812 17.6716L3.50341 17.4762L3.56072 17.2813L3.62005 17.0869L3.68139 16.893L3.74475 16.6996L3.81012 16.5067L3.87749 16.3144L3.94685 16.1227L4.01821 15.9316L4.09155 15.7411L4.16688 15.5513L4.24418 15.3621L4.32345 15.1737L4.40468 14.9859L4.48787 14.7988L4.57301 14.6125L4.66009 14.427L4.74911 14.2422L4.84006 14.0582L4.93293 13.8751L5.02771 13.6928L5.1244 13.5113L5.22298 13.3308L5.32345 13.1511L5.42581 12.9723L5.53003 12.7945L5.63612 12.6176L5.74406 12.4417L5.85385 12.2668L5.96547 12.0929L6.07892 11.9201L6.19419 11.7482L6.31126 11.5775L6.43013 11.4078L6.55078 11.2392L6.6732 11.0718L6.79739 10.9054L6.92333 10.7403L7.05102 10.5763L7.18043 10.4134L7.31156 10.2518L7.4444 10.0914L7.57893 9.93229L7.71515 9.7744L7.85304 9.61779L7.99258 9.46248L8.13377 9.30847L8.2766 9.15579L8.42104 9.00445L8.56709 8.85447L8.71473 8.70586L8.86395 8.55864L9.01474 8.41283L9.16708 8.26844L9.32096 8.1255L9.47636 7.984L9.63327 7.84398L9.79168 7.70544L9.95157 7.56839L10.1129 7.43287L10.2757 7.29888L10.44 7.16643L10.6056 7.03554L10.7727 6.90622L10.9411 6.7785L11.111 6.65237L11.2822 6.52787L11.4547 6.405L11.6285 6.28377L11.8037 6.1642L11.9801 6.04629L12.1578 5.93008L12.3368 5.81556L12.5171 5.70276L12.6985 5.59168L12.8812 5.48233L13.065 5.37474L13.25 5.26891L13.4362 5.16485L13.6235 5.06258L13.8119 4.9621L14.0014 4.86344L14.192 4.76659L14.3837 4.67158L14.5764 4.57841L14.7702 4.48709L14.9649 4.39764L15.1607 4.31007L15.3574 4.22438L15.5551 4.14059L15.7537 4.05871L15.9532 3.97874L16.1536 3.90069L16.3549 3.82459L16.557 3.75042L16.76 3.67822L16.9638 3.60797L17.1684 3.53969L17.3737 3.4734L17.5798 3.40909L17.7867 3.34678L17.9943 3.28648L18.2025 3.22819L18.4115 3.17191L18.6211 3.11766L18.8313 3.06545L19.0421 3.01529L19.2536 2.96716L19.4656 2.9211L19.6781 2.87709L19.8912 2.83515L20.1048 2.79529L20.3189 2.7575L20.5335 2.7218L20.7485 2.68819L20.9639 2.65667L21.1797 2.62726L21.3959 2.59995L21.6125 2.57475L21.8294 2.55165L22.0466 2.53069L22.2641 2.51184L22.4819 2.49511L22.6999 2.48052L23.8723 2.41357L23.9392 8.06224L23.9775 8.0618L24.1394 8.06157L24.3013 8.06293L24.4632 8.06588L24.6253 8.07043L24.7873 8.07657L24.9494 8.08429L25.1115 8.09362L25.2736 8.10455L25.4356 8.11706L25.5977 8.13118L25.7596 8.1469L25.9215 8.16422L26.0832 8.18313L26.2449 8.20364L26.4064 8.22575L26.5678 8.24945L26.729 8.27476L26.8901 8.30166L27.0509 8.33015L27.2116 8.36024L27.372 8.39192L27.5321 8.4252L27.6921 8.46006L27.8517 8.49651L28.011 8.53454L28.1701 8.57416L28.3288 8.61537L28.4871 8.65815L28.6451 8.70251L28.8028 8.74844L28.96 8.79594L29.1168 8.84501L29.2732 8.89565L29.4292 8.94785L29.5847 9.0016L29.7397 9.05691L29.8943 9.11376L30.0483 9.17217L30.2018 9.23211L30.3548 9.2936L30.5072 9.35662L30.659 9.42116L30.8103 9.48723L30.961 9.55482L31.111 9.62392L31.2604 9.69452L31.4092 9.76663L31.5573 9.84024L31.7047 9.91534L31.8514 9.99192L31.9974 10.07L32.1427 10.1495L32.2872 10.2305L32.431 10.313L32.574 10.3969L32.7162 10.4823L32.8576 10.5691L32.9982 10.6573L33.1379 10.747L33.2768 10.838L33.4148 10.9305L33.552 11.0244L33.6882 11.1196L33.8236 11.2163L33.958 11.3143L34.0914 11.4137L34.224 11.5145L34.3555 11.6166L34.4861 11.7201L34.6156 11.8248L34.7442 11.9309L34.8717 12.0384L34.9982 12.1471L35.1237 12.2571L35.2481 12.3684L35.3713 12.481L35.4935 12.5949L35.6146 12.71L35.7346 12.8263L35.8534 12.9439L35.9711 13.0627L36.0876 13.1828L36.203 13.304L36.3171 13.4264L36.4301 13.55L36.5418 13.6748L36.6523 13.8007L36.7616 13.9278L36.8696 14.056L36.9764 14.1853L37.0819 14.3158L37.1861 14.4473L37.289 14.5799L37.3906 14.7136L37.4909 14.8484L37.5898 14.9842L37.6874 15.1211L37.7836 15.259L37.8785 15.3978L37.972 15.5377L38.0641 15.6786L38.1548 15.8205L38.244 15.9633L38.3319 16.107L38.4183 16.2517L38.5033 16.3973L38.5868 16.5438L38.6689 16.6912L38.7495 16.8395L38.8286 16.9886L38.9062 17.1386L38.9823 17.2894L39.0569 17.441L39.13 17.5935L39.2016 17.7467L39.2716 17.9007L39.3401 18.0555L39.407 18.211L39.4723 18.3673L39.5361 18.5242L39.5983 18.6819L39.6589 18.8402L39.7179 18.9993L39.7753 19.1589L39.8311 19.3193L39.8853 19.4802L39.9379 19.6418L39.9888 19.8039L40.0381 19.9666L40.0857 20.1299L40.1317 20.2937L40.176 20.4581L40.2187 20.623L40.2596 20.7883L40.299 20.9542L40.3366 21.1205L40.3725 21.2873L40.4068 21.4544L40.4393 21.6221L40.4701 21.7901L40.4993 21.9585L40.5267 22.1272L40.5524 22.2963L40.5764 22.4658L40.5986 22.6355L40.6191 22.8056L40.6379 22.9759L40.6549 23.1465L40.6702 23.3173L40.6838 23.4884L40.6956 23.6597L40.7056 23.8312L40.7139 24.0028L40.7205 24.1747L40.7252 24.3466L40.7283 24.5187L40.7295 24.6909L40.729 24.8632L40.7267 25.0356L40.7226 25.2081L40.7168 25.3805L40.7092 25.553L40.6999 25.7255L40.6887 25.898L40.6758 26.0705L40.6611 26.2429L40.6446 26.4153L40.6264 26.5876L40.6063 26.7597L40.5845 26.9318L40.561 27.1037L40.5356 27.2755L40.5085 27.4471L40.4796 27.6185L40.4489 27.7897L40.4165 27.9607L40.3823 28.1315L40.3463 28.302L40.3085 28.4722L40.269 28.6422L40.2278 28.8118L40.1847 28.9811L40.1399 29.15L40.0934 29.3186L40.0451 29.4868L39.9951 29.6546L39.9433 29.8221L39.8897 29.989L39.8345 30.1556L39.7775 30.3216L39.7187 30.4872L39.6583 30.6523L39.5961 30.8168L39.5322 30.9808L39.4666 31.1443L39.3993 31.3072L39.3303 31.4695L39.2596 31.6313L39.1872 31.7923L39.1131 31.9528L39.0373 32.1126L38.9599 32.2717L38.8807 32.4302L38.8 32.5879L38.7175 32.745L38.6335 32.9012L38.5477 33.0568L38.4604 33.2115L38.3714 33.3655L38.2808 33.5187L38.1886 33.671L38.0948 33.8226L37.9993 33.9732L37.9023 34.123L37.8038 34.2719L37.7036 34.4199L37.6019 34.567L37.4986 34.7132L37.3938 34.8584L37.2874 35.0027L37.1795 35.146L37.0701 35.2883L36.9592 35.4295L36.8468 35.5698L36.7329 35.709L36.6175 35.8471L36.5006 35.9842L36.3823 36.1202L36.2625 36.2551L36.1413 36.3889L36.0187 36.5216L35.8947 36.6531L35.7692 36.7835L35.6424 36.9126L35.5141 37.0406L35.3845 37.1674L35.2536 37.293L35.1213 37.4174L34.9877 37.5405L34.8527 37.6624L34.7164 37.7829L34.5789 37.9022L34.44 38.0203L34.2999 38.137L34.1585 38.2523L34.0159 38.3664L33.872 38.4791L33.7269 38.5904L33.5806 38.7003L33.4331 38.8089L33.2845 38.9161L33.1346 39.0218L32.9836 39.1262L32.8315 39.2291L32.6783 39.3305L32.5239 39.4305L32.3685 39.5291L32.212 39.6261L32.0544 39.7217L31.8957 39.8157L31.736 39.9083L31.5754 39.9993L31.4136 40.0887L31.251 40.1767L31.0873 40.263L30.9227 40.3478L30.7571 40.4311L30.5906 40.5127L30.4232 40.5927L30.2549 40.6712L30.0857 40.748L29.9157 40.8232L29.7448 40.8967L29.5731 40.9686L29.4006 41.0389L29.2273 41.1075L29.0532 41.1744L28.8783 41.2397L28.7027 41.3032L28.5263 41.3651L28.3493 41.4252L28.1716 41.4837L27.9931 41.5404L27.814 41.5954L27.6343 41.6487L27.454 41.7002L27.273 41.75L27.0915 41.7981L26.9093 41.8443L26.7267 41.8888L26.5435 41.9316L26.3597 41.9725L26.1755 42.0117L25.9908 42.0491L25.8056 42.0847L25.62 42.1185L25.434 42.1504L25.2475 42.1806L25.0607 42.209L24.8734 42.2355L24.6859 42.2602L24.498 42.2831L24.3097 42.3041L24.1212 42.3233L23.9324 42.3407L23.7434 42.3562L23.5541 42.3699L23.3646 42.3817L23.1748 42.3917L22.9849 42.3998L22.7949 42.406L22.6046 42.4104L22.4143 42.4129L22.2238 42.4136L22.0333 42.4124L21.8427 42.4093L21.652 42.4044L21.4613 42.3975L21.2706 42.3888L21.0799 42.3783L20.8893 42.3658L20.6986 42.3515L20.5081 42.3353L20.3176 42.3172L20.1272 42.2973L19.937 42.2755L19.7469 42.2518L19.5569 42.2262L19.3672 42.1987L19.1776 42.1694L18.9883 42.1382L18.7992 42.1052L18.6103 42.0702L18.4218 42.0334L18.2335 41.9948L18.0456 41.9542L17.8579 41.9118L17.6707 41.8676L17.4838 41.8215L17.2973 41.7735L17.1112 41.7237L16.9256 41.6721L16.7404 41.6186L16.5556 41.5633L16.3714 41.5061L16.1877 41.4471L16.0045 41.3863L15.8218 41.3236L15.6397 41.2591L15.4582 41.1929L15.2773 41.1248L15.097 41.0549L14.9174 40.9832L14.7384 40.9097L14.5601 40.8344L14.3825 40.7574L14.2056 40.6786L14.0294 40.598L13.854 40.5156L13.6794 40.4315L13.5056 40.3456L13.3325 40.258L13.1603 40.1687L12.989 40.0776L12.8184 39.9849L12.6488 39.8904L12.4801 39.7942L12.3123 39.6963L12.1454 39.5967L11.9795 39.4955L11.8145 39.3925L11.6505 39.288L11.4876 39.1817L11.3256 39.0739L11.1647 38.9643L11.0049 38.8532L10.8461 38.7405L10.6884 38.6261L10.5318 38.5102L10.3764 38.3926L10.2221 38.2735L10.0689 38.1529L9.9169 38.0306L9.76611 37.9069L9.61652 37.7816L9.46815 37.6548L9.32102 37.5265L9.17515 37.3966L9.03055 37.2653L8.88724 37.1326L8.74522 36.9983L8.60453 36.8627L8.46517 36.7255L8.32715 36.587L8.1905 36.4471L8.05523 36.3057L7.92135 36.163L7.78888 36.0189L7.65784 35.8734L7.52823 35.7266L7.40007 35.5785L7.27338 35.429L7.14817 35.2783L7.02446 35.1262L6.90225 34.9729L6.78157 34.8183L6.66242 34.6625L6.54482 34.5054L6.42878 34.3471L6.31432 34.1876L6.20144 34.0269L6.09017 33.8651L5.98051 33.7021L5.87248 33.5379L5.76609 33.3727L5.66134 33.2063L5.55826 33.0388L5.45686 32.8703L5.35714 32.7006L5.25913 32.53L5.16282 32.3583L5.06823 32.1856L4.97538 32.0118L4.88426 31.8371L4.79491 31.6615L4.70731 31.4849L4.6215 31.3074L4.53747 31.1289L4.45523 30.9496L4.3748 30.7693L4.29618 30.5883L4.21939 30.4063L4.14444 30.2236L4.07132 30.04L4.00006 29.8556L3.93067 29.6705L3.86314 29.4846L3.79749 29.298L3.73372 29.1107L3.67185 28.9226L3.61189 28.7339L3.55383 28.5445L3.4977 28.3545L3.44349 28.1638L3.39121 27.9725L3.34087 27.7807L3.29248 27.5883L3.24604 27.3953L3.20157 27.2018L3.15906 27.0077L3.11852 26.8132L3.07996 26.6182L3.04338 26.4228L3.00879 26.2269L2.9762 26.0306L2.9456 25.8339L2.91701 25.6368L2.89043 25.4393L2.86587 25.2415L2.84332 25.0434L2.82279 24.845L2.80429 24.6464L2.78782 24.4474L2.77338 24.2482L2.76098 24.0488L2.75062 23.8492L2.7423 23.6494L2.73602 23.4495L2.73179 23.2494L2.72962 23.0492L2.72949 22.8489ZM22.1076 8.18056L22.062 4.33036L22.0187 4.33454L21.8199 4.3557L21.6216 4.37878L21.4234 4.40382L21.226 4.43072L21.0288 4.45958L20.8318 4.49037L20.6354 4.52305L20.4392 4.55768L20.244 4.59411L20.0485 4.63258L19.8544 4.67278L19.66 4.71501L19.4666 4.75903L19.2734 4.80501L19.0811 4.85275L18.8893 4.90241L18.698 4.95392L18.5073 5.00729L18.3175 5.06245L18.128 5.11951L17.9395 5.17834L17.7515 5.23904L17.5645 5.30142L17.3778 5.36577L17.1921 5.43184L17.0073 5.49966L16.823 5.56933L16.6397 5.6407L16.4574 5.71379L16.2756 5.78876L16.0947 5.86543L15.9147 5.94385L15.7357 6.02392L15.5576 6.10573L15.3805 6.18919L15.204 6.27449L15.0288 6.36135L14.8545 6.4499L14.6812 6.54012L14.5089 6.63201L14.3378 6.72547L14.1674 6.82066L13.9981 6.9175L13.8303 7.01572L13.663 7.11586L13.4973 7.21733L13.3327 7.32038L13.1689 7.42512L13.0064 7.53139L12.8451 7.63921L12.6853 7.7483L12.5261 7.85932L12.3685 7.97153L12.2121 8.08529L12.0568 8.20061L11.9029 8.3173L11.7504 8.43539L11.5988 8.55514L11.4489 8.67603L11.3001 8.79851L11.1527 8.92232L11.0066 9.04757L10.862 9.17402L10.7185 9.30207L10.5766 9.43126L10.4359 9.56194L10.2969 9.69372L10.1591 9.82693L10.0229 9.96134L9.88802 10.0971L9.75448 10.2342L9.62269 10.3723L9.49238 10.5116L9.36323 10.6525L9.23587 10.7943L9.11007 10.9371L8.98556 11.0814L8.86286 11.2266L8.74152 11.3731L8.62181 11.5206L8.50367 11.6693L8.38707 11.819L8.27219 11.9697L8.15881 12.1215L8.04699 12.2745L7.93697 12.4282L7.82842 12.5832L7.7216 12.739L7.61643 12.8958L7.51284 13.0536L7.411 13.2123L7.31083 13.3718L7.21234 13.5323L7.11561 13.6936L7.02047 13.8559L6.92704 14.0191L6.83545 14.1829L6.7455 14.3476L6.65727 14.5132L6.57083 14.6795L6.48609 14.8466L6.40317 15.0143L6.32198 15.1828L6.24258 15.352L6.16491 15.522L6.08908 15.6925L6.01497 15.8638L5.94267 16.0357L5.87222 16.2081L5.80353 16.3812L5.73664 16.5549L5.67159 16.7291L5.60834 16.9039L5.54696 17.0791L5.48735 17.255L5.42959 17.4313L5.37368 17.6081L5.31962 17.7852L5.26736 17.963L5.21699 18.141L5.16846 18.3195L5.12177 18.4983L5.07694 18.6776L5.03398 18.8571L4.99288 19.037L4.95364 19.2172L4.91627 19.3977L4.88077 19.5784L4.84713 19.7594L4.81537 19.9406L4.78548 20.1221L4.75747 20.3037L4.73133 20.4855L4.70707 20.6675L4.68468 20.8496L4.66417 21.0318L4.64554 21.2142L4.62879 21.3966L4.61391 21.579L4.60091 21.7616L4.58979 21.9442L4.58054 22.1267L4.57317 22.3093L4.56767 22.4918L4.56405 22.6743L4.56229 22.8567L4.56241 23.0391L4.56439 23.2213L4.56824 23.4035L4.57395 23.5855L4.58152 23.7673L4.59096 23.949L4.60224 24.1304L4.61538 24.3117L4.63037 24.4927L4.64721 24.6735L4.66588 24.8541L4.6864 25.0343L4.70875 25.2143L4.73293 25.3939L4.75894 25.5732L4.78678 25.7522L4.81642 25.9307L4.84789 26.1089L4.88116 26.2867L4.91623 26.464L4.9531 26.641L4.99176 26.8174L5.03221 26.9934L5.07444 27.1689L5.11844 27.3439L5.16422 27.5184L5.21174 27.6922L5.26104 27.8656L5.31208 28.0384L5.36486 28.2106L5.41938 28.3822L5.47561 28.5531L5.53357 28.7234L5.59325 28.893L5.65463 29.062L5.71769 29.2302L5.78248 29.3978L5.84891 29.5646L5.91702 29.7307L5.98681 29.896L6.05824 30.0605L6.13133 30.2243L6.20605 30.3873L6.2824 30.5494L6.36036 30.7107L6.43994 30.8711L6.52111 31.0307L6.60388 31.1894L6.68822 31.3472L6.77414 31.5041L6.86161 31.66L6.95063 31.815L7.04119 31.9691L7.13329 32.1221L7.22686 32.2742L7.322 32.4253L7.41859 32.5753L7.51669 32.7244L7.61626 32.8724L7.71727 33.0193L7.81973 33.1652L7.92366 33.31L8.02898 33.4537L8.13575 33.5963L8.24387 33.7377L8.35344 33.878L8.46432 34.0171L8.5766 34.1551L8.69026 34.292L8.80519 34.4276L8.92149 34.562L9.03908 34.6952L9.15801 34.8272L9.27819 34.9579L9.39962 35.0874L9.52234 35.2156L9.64629 35.3426L9.77151 35.4683L9.89791 35.5926L10.0256 35.7157L10.1543 35.8374L10.2843 35.9579L10.4155 36.077L10.5478 36.1947L10.6811 36.311L10.8157 36.426L10.9514 36.5396L11.088 36.6518L11.2259 36.7627L11.3647 36.872L11.5046 36.98L11.6455 37.0866L11.7875 37.1917L11.9304 37.2953L12.0743 37.3975L12.2191 37.4982L12.365 37.5975L12.5117 37.6952L12.6595 37.7915L12.808 37.8863L12.9575 37.9795L13.1079 38.0713L13.259 38.1615L13.4111 38.2502L13.5639 38.3373L13.7176 38.4229L13.872 38.5069L14.0273 38.5894L14.1832 38.6703L14.3399 38.7497L14.4974 38.8274L14.6556 38.9036L14.8144 38.9782L14.9739 39.0512L15.134 39.1225L15.2949 39.1923L15.4563 39.2604L15.6184 39.327L15.781 39.3919L15.9442 39.4551L16.108 39.5168L16.2722 39.5768L16.437 39.6351L16.6024 39.6918L16.7682 39.7469L16.9345 39.8003L17.1011 39.852L17.2684 39.9021L17.4359 39.9505L17.6039 39.9972L17.7723 40.0423L17.941 40.0857L18.1101 40.1274L18.2794 40.1674L18.4492 40.2058L18.6192 40.2424L18.7894 40.2774L18.96 40.3107L19.1308 40.3423L19.3018 40.3722L19.473 40.4004L19.6444 40.4269L19.816 40.4517L19.9878 40.4748L20.1596 40.4963L20.3316 40.516L20.5037 40.534L20.6759 40.5504L20.8482 40.565L21.0205 40.578L21.1928 40.5892L21.3652 40.5988L21.5375 40.6066L21.7098 40.6128L21.8821 40.6173L22.0544 40.62L22.2265 40.6211L22.3986 40.6205L22.5706 40.6182L22.7424 40.6143L22.9141 40.6086L23.0857 40.6013L23.2571 40.5923L23.4282 40.5816L23.5992 40.5693L23.77 40.5553L23.9405 40.5396L24.1107 40.5222L24.2807 40.5032L24.4503 40.4826L24.6197 40.4603L24.7887 40.4363L24.9574 40.4107L25.1257 40.3835L25.2937 40.3546L25.4613 40.3241L25.6284 40.292L25.7951 40.2583L25.9614 40.2229L26.1272 40.186L26.2925 40.1474L26.4574 40.1072L26.6217 40.0655L26.7855 40.0221L26.9487 39.9772L27.1115 39.9307L27.2736 39.8826L27.4352 39.833L27.5961 39.7819L27.7565 39.7291L27.9162 39.6749L28.0751 39.6191L28.2336 39.5617L28.3913 39.5029L28.5483 39.4425L28.7046 39.3807L28.8601 39.3174L29.0149 39.2525L29.169 39.1862L29.3223 39.1184L29.4747 39.0492L29.6265 38.9785L29.7774 38.9063L29.9274 38.8328L30.0767 38.7577L30.225 38.6813L30.3725 38.6035L30.5192 38.5242L30.6648 38.4436L30.8096 38.3616L30.9534 38.2783L31.0965 38.1935L31.2383 38.1075L31.3795 38.02L31.5194 37.9313L31.6584 37.8412L31.7965 37.7498L31.9336 37.657L32.0694 37.5632L32.2043 37.4679L32.3382 37.3714L32.471 37.2737L32.6028 37.1746L32.7333 37.0745L32.863 36.9729L32.9913 36.8703L33.1185 36.7665L33.2448 36.6614L33.3698 36.5551L33.4935 36.4478L33.6162 36.3392L33.7376 36.2296L33.8579 36.1188L33.977 36.0069L34.0947 35.894L34.2114 35.7798L34.3268 35.6646L34.4409 35.5484L34.5538 35.4311L34.6653 35.3129L34.7755 35.1937L34.8847 35.0731L34.9923 34.9519L35.0988 34.8295L35.2038 34.7063L35.3076 34.582L35.41 34.4569L35.511 34.3308L35.6108 34.2037L35.7091 34.0759L35.8062 33.947L35.9017 33.8174L35.996 33.6868L36.089 33.5553L36.1802 33.4233L36.2703 33.2902L36.3588 33.1565L36.446 33.0218L36.5319 32.8863L36.6161 32.7503L36.6989 32.6135L36.7804 32.4756L36.8602 32.3375L36.9387 32.1984L37.0158 32.0586L37.0912 31.9184L37.1653 31.7772L37.2379 31.6354L37.3088 31.4935L37.3784 31.3504L37.4465 31.2068L37.513 31.0628L37.578 30.9182L37.6415 30.773L37.7034 30.6274L37.7639 30.481L37.8228 30.3342L37.8801 30.1873L37.9359 30.0393L37.9901 29.8913L38.0429 29.7426L38.0941 29.5936L38.1437 29.4441L38.1916 29.2946L38.2382 29.144L38.283 28.9936L38.3263 28.8427L38.3681 28.6916L38.4083 28.5399L38.4468 28.3882L38.4839 28.236L38.5193 28.0835L38.5532 27.9309L38.5855 27.7779L38.6161 27.625L38.6452 27.4714L38.6727 27.3182L38.6986 27.1644L38.7229 27.0105L38.7456 26.8566L38.7668 26.7024L38.7863 26.5484L38.8043 26.3937L38.8206 26.2396L38.8354 26.085L38.8485 25.9307L38.8601 25.7759L38.8701 25.6217L38.8785 25.467L38.8853 25.3122L38.8905 25.1578L38.8942 25.0037L38.8962 24.849L38.8967 24.6946L38.8956 24.5404L38.8929 24.3863L38.8886 24.2322L38.8827 24.0787L38.8753 23.9246L38.8663 23.7712L38.8557 23.6178L38.8436 23.4649L38.8299 23.3117L38.8147 23.1592L38.7979 23.0066L38.7795 22.8545L38.7596 22.7025L38.7382 22.551L38.7151 22.3994L38.6906 22.2485L38.6646 22.0981L38.637 21.9476L38.6078 21.7976L38.5772 21.6482L38.545 21.4987L38.5115 21.3503L38.4762 21.2017L38.4397 21.0541L38.4014 20.9063L38.3618 20.7596L38.3207 20.6131L38.2781 20.4669L38.2341 20.3216L38.1886 20.1768L38.1415 20.0321L38.0932 19.8885L38.0432 19.745L37.992 19.6024L37.9392 19.4601L37.8851 19.3188L37.8294 19.1777L37.7724 19.0374L37.7141 18.898L37.6544 18.7592L37.593 18.6206L37.5307 18.4833L37.4666 18.3461L37.4014 18.2102L37.3348 18.0748L37.2667 17.9399L37.1975 17.8061L37.1268 17.6729L37.0547 17.5403L36.9817 17.409L36.907 17.278L36.8312 17.1481L36.7539 17.0188L36.6757 16.8908L36.5958 16.7631L36.515 16.6366L36.4327 16.5107L36.3493 16.3859L36.2648 16.2622L36.1788 16.139L36.0917 16.0169L36.0035 15.8957L35.914 15.7756L35.8234 15.6562L35.7316 15.538L35.6387 15.4206L35.5446 15.3043L35.4494 15.189L35.353 15.0746L35.2555 14.9613L35.157 14.849L35.0575 14.7378L34.9568 14.6276L34.8548 14.5183L34.7523 14.4105L34.6481 14.3033L34.5434 14.1976L34.4375 14.0927L34.3307 13.9891L34.2225 13.8863L34.1139 13.7851L34.0039 13.6847L33.893 13.5855L33.7815 13.4876L33.6689 13.3908L33.555 13.2949L33.4405 13.2004L33.3252 13.1071L33.2089 13.015L33.0917 12.924L32.9739 12.8345L32.8548 12.7457L32.7353 12.6586L32.6148 12.5726L32.4934 12.4877L32.3715 12.4042L32.2483 12.3217L32.1251 12.2409L32.0005 12.161L31.8755 12.0825L31.7495 12.0052L31.623 11.9292L31.4958 11.8546L31.3681 11.7814L31.2392 11.7091L31.1103 11.6385L30.9803 11.569L30.8498 11.5009L30.7188 11.4342L30.587 11.3687L30.4547 11.3045L30.3219 11.2418L30.1884 11.1803L30.0546 11.1203L29.9201 11.0615L29.7808 11.0023L29.6498 10.9482L29.5135 10.8934L29.3774 10.8403L29.2402 10.7882L29.103 10.7378L28.9652 10.6886L28.8271 10.6409L28.6884 10.5944L28.5496 10.5495L28.4102 10.5059L28.2705 10.4637L28.1307 10.423L27.9903 10.3835L27.8494 10.3455L27.7087 10.3089L27.5677 10.2738L27.4258 10.2399L27.2844 10.2076L27.1423 10.1766L27.0002 10.1471L26.8576 10.119L26.7152 10.0923L26.5724 10.067L26.4297 10.0432L26.2863 10.0207L26.1433 9.99966L26 9.98004L25.8565 9.96183L25.713 9.94505L25.5695 9.92971L25.4259 9.91577L25.2822 9.90325L25.1384 9.89214L24.9945 9.88244L24.851 9.87418L24.7074 9.86733L24.5633 9.86188L24.42 9.85786L24.2764 9.85524L24.1329 9.85404L23.9892 9.85424L23.9604 9.85457L24.0057 13.6768L24.0872 13.6764L24.1921 13.677L24.297 13.6786L24.402 13.6813L24.5071 13.685L24.6122 13.6898L24.7173 13.6956L24.8225 13.7024L24.9277 13.7103L25.0329 13.7192L25.1381 13.7292L25.2432 13.7402L25.3484 13.7523L25.4535 13.7654L25.5585 13.7795L25.6635 13.7948L25.7684 13.811L25.8732 13.8283L25.978 13.8467L26.0826 13.8661L26.1871 13.8866L26.2915 13.9081L26.3958 13.9306L26.4999 13.9542L26.6038 13.9789L26.7076 14.0046L26.8111 14.0313L26.9145 14.0591L27.0177 14.0879L27.1207 14.1178L27.2235 14.1487L27.326 14.1806L27.4282 14.2136L27.5302 14.2476L27.632 14.2827L27.7334 14.3188L27.8346 14.3559L27.9354 14.394L28.036 14.4332L28.1362 14.4734L28.2361 14.5146L28.3356 14.5569L28.4348 14.6001L28.5336 14.6444L28.632 14.6896L28.73 14.7359L28.8277 14.7832L28.9249 14.8315L29.0217 14.8808L29.1181 14.9311L29.214 14.9823L29.3095 15.0346L29.4045 15.0878L29.499 15.142L29.5931 15.1972L29.6867 15.2534L29.7797 15.3105L29.8722 15.3686L29.9642 15.4277L30.0557 15.4877L30.1466 15.5486L30.237 15.6105L30.3268 15.6734L30.416 15.7371L30.5046 15.8018L30.5926 15.8675L30.6801 15.934L30.7668 16.0015L30.853 16.0699L30.9385 16.1391L31.0234 16.2093L31.1076 16.2804L31.1912 16.3523L31.2741 16.4251L31.3563 16.4988L31.4378 16.5734L31.5185 16.6488L31.5986 16.7251L31.6779 16.8022L31.7565 16.8802L31.8344 16.959L31.9115 17.0387L31.9879 17.1191L32.0634 17.2004L32.1382 17.2825L32.2122 17.3654L32.2854 17.449L32.3578 17.5335L32.4294 17.6187L32.5002 17.7047L32.5701 17.7915L32.6392 17.879L32.7074 17.9673L32.7748 18.0563L32.8413 18.1461L32.9069 18.2365L32.9717 18.3277L33.0355 18.4196L33.0985 18.5122L33.1605 18.6055L33.2216 18.6994L33.2818 18.7941L33.3411 18.8894L33.3995 18.9853L33.4569 19.0819L33.5133 19.1792L33.5688 19.277L33.6233 19.3755L33.6768 19.4746L33.7294 19.5743L33.781 19.6746L33.8315 19.7755L33.8811 19.877L33.9297 19.979L33.9772 20.0815L34.0237 20.1847L34.0692 20.2883L34.1137 20.3925L34.1571 20.4972L34.1995 20.6024L34.2408 20.7081L34.281 20.8142L34.3202 20.9209L34.3583 21.028L34.3954 21.1356L34.4314 21.2436L34.4662 21.3521L34.5 21.4609L34.5327 21.5702L34.5643 21.6799L34.5948 21.79L34.6241 21.9005L34.6524 22.0113L34.6795 22.1225L34.7055 22.234L34.7304 22.3459L34.7541 22.4581L34.7767 22.5706L34.7981 22.6834L34.8184 22.7966L34.8376 22.91L34.8556 23.0236L34.8724 23.1376L34.8881 23.2517L34.9026 23.3661L34.916 23.4808L34.9281 23.5957L34.9391 23.7107L34.949 23.826L34.9576 23.9414L34.9651 24.057L34.9713 24.1727L34.9764 24.2886L34.9803 24.4047L34.983 24.5208L34.9845 24.6371L34.9848 24.7535L34.9839 24.8699L34.9818 24.9864L34.9785 25.103L34.974 25.2197L34.9683 25.3363L34.9614 25.453L34.9533 25.5698L34.944 25.6865L34.9334 25.8032L34.9217 25.9199L34.9087 26.0365L34.8946 26.1532L34.8792 26.2697L34.8626 26.3862L34.8448 26.5026L34.8258 26.6189L34.8056 26.7351L34.7841 26.8512L34.7615 26.9672L34.7376 27.083L34.7125 27.1987L34.6863 27.3142L34.6588 27.4295L34.6301 27.5446L34.6002 27.6596L34.5691 27.7743L34.5368 27.8888L34.5033 28.003L34.4686 28.117L34.4327 28.2308L34.3955 28.3443L34.3572 28.4574L34.3177 28.5703L34.2771 28.6829L34.2352 28.7951L34.1921 28.907L34.1479 29.0186L34.1025 29.1298L34.0559 29.2407L34.0081 29.3511L33.9592 29.4612L33.9091 29.5709L33.8578 29.6801L33.8054 29.7889L33.7518 29.8973L33.697 30.0052L33.6411 30.1127L33.5841 30.2196L33.5259 30.3261L33.4666 30.4321L33.4062 30.5376L33.3446 30.6425L33.2819 30.747L33.2181 30.8508L33.1532 30.9542L33.0871 31.0569L33.02 31.1591L32.9517 31.2606L32.8824 31.3616L32.812 31.462L32.7405 31.5617L32.6679 31.6608L32.5943 31.7593L32.5196 31.8571L32.4438 31.9542L32.367 32.0506L32.2891 32.1464L32.2102 32.2414L32.1303 32.3358L32.0493 32.4294L31.9673 32.5223L31.8843 32.6144L31.8003 32.7058L31.7153 32.7964L31.6294 32.8863L31.5424 32.9753L31.4545 33.0636L31.3655 33.151L31.2757 33.2377L31.1848 33.3235L31.0931 33.4084L31.0004 33.4926L30.9067 33.5758L30.8122 33.6582L30.7167 33.7398L30.6204 33.8204L30.5231 33.9002L30.425 33.979L30.3259 34.0569L30.226 34.1339L30.1253 34.21L30.0237 34.2851L29.9212 34.3593L29.818 34.4326L29.7139 34.5048L29.609 34.5761L29.5032 34.6464L29.3967 34.7157L29.2894 34.784L29.1814 34.8513L29.0725 34.9175L28.963 34.9828L28.8526 35.047L28.7416 35.1101L28.6298 35.1722L28.5173 35.2333L28.4041 35.2933L28.2902 35.3522L28.1756 35.41L28.0604 35.4667L27.9445 35.5224L27.8279 35.5769L27.7107 35.6303L27.5929 35.6826L27.4745 35.7338L27.3554 35.7838L27.2358 35.8327L27.1156 35.8805L26.9948 35.9271L26.8735 35.9726L26.7516 36.0169L26.6292 36.06L26.5062 36.1019L26.3828 36.1427L26.2588 36.1822L26.1344 36.2206L26.0095 36.2578L25.8841 36.2937L25.7583 36.3285L25.632 36.362L25.5053 36.3943L25.3782 36.4254L25.2507 36.4553L25.1227 36.4839L24.9945 36.5113L24.8658 36.5374L24.7368 36.5623L24.6075 36.586L24.4778 36.6084L24.3478 36.6295L24.2176 36.6493L24.087 36.6679L23.9561 36.6852L23.825 36.7013L23.6937 36.716L23.5621 36.7295L23.4303 36.7417L23.2983 36.7526L23.1661 36.7622L23.0337 36.7705L22.9011 36.7775L22.7684 36.7832L22.6355 36.7876L22.5025 36.7907L22.3694 36.7925L22.2361 36.793L22.1028 36.7922L21.9695 36.79L21.836 36.7866L21.7025 36.7818L21.569 36.7757L21.4354 36.7683L21.3019 36.7596L21.1683 36.7496L21.0348 36.7382L20.9013 36.7255L20.7678 36.7115L20.6344 36.6962L20.5011 36.6796L20.3678 36.6616L20.2347 36.6423L20.1017 36.6217L19.9688 36.5998L19.836 36.5765L19.7034 36.552L19.571 36.5261L19.4388 36.4988L19.3067 36.4703L19.1749 36.4405L19.0433 36.4093L18.9119 36.3768L18.7808 36.343L18.6499 36.3079L18.5193 36.2715L18.3891 36.2338L18.2591 36.1948L18.1294 36.1545L18.0001 36.1128L17.8712 36.0699L17.7425 36.0257L17.6143 35.9802L17.4865 35.9334L17.359 35.8853L17.232 35.8359L17.1054 35.7853L16.9792 35.7333L16.8535 35.6801L16.7283 35.6257L16.6036 35.5699L16.4793 35.5129L16.3556 35.4547L16.2324 35.3952L16.1097 35.3344L15.9875 35.2724L15.866 35.2092L15.745 35.1447L15.6246 35.079L15.5048 35.0121L15.3856 34.9439L15.267 34.8746L15.1491 34.804L15.0318 34.7322L14.9152 34.6593L14.7993 34.5851L14.6841 34.5098L14.5696 34.4332L14.4558 34.3555L14.3427 34.2767L14.2304 34.1967L14.1188 34.1155L14.008 34.0332L13.8979 33.9497L13.7887 33.8651L13.6803 33.7794L13.5727 33.6925L13.4659 33.6046L13.3599 33.5155L13.2548 33.4254L13.1506 33.3341L13.0472 33.2418L12.9447 33.1484L12.8432 33.054L12.7425 32.9585L12.6427 32.8619L12.5439 32.7643L12.4461 32.6657L12.3492 32.566L12.2532 32.4654L12.1582 32.3637L12.0643 32.2611L11.9713 32.1574L11.8793 32.0528L11.7884 31.9472L11.6984 31.8407L11.6096 31.7332L11.5217 31.6247L11.435 31.5154L11.3493 31.4051L11.2647 31.2939L11.1812 31.1818L11.0987 31.0689L11.0174 30.955L10.9373 30.8403L10.8582 30.7247L10.7803 30.6083L10.7036 30.4911L10.628 30.373L10.5535 30.2541L10.4803 30.1344L10.4082 30.0139L10.3374 29.8927L10.2677 29.7706L10.1993 29.6479L10.132 29.5243L10.0661 29.4001L10.0013 29.2751L9.93778 29.1494L9.87553 29.023L9.81454 28.8959L9.75482 28.7682L9.69638 28.6397L9.63922 28.5107L9.58336 28.381L9.5288 28.2506L9.47554 28.1197L9.42361 27.9882L9.37299 27.856L9.3237 27.7233L9.27574 27.5901L9.22913 27.4562L9.18387 27.3219L9.13996 27.187L9.09741 27.0516L9.05623 26.9158L9.01642 26.7794L8.97799 26.6426L8.94094 26.5053L8.90529 26.3675L8.87103 26.2294L8.83816 26.0908L8.80671 25.9518L8.77666 25.8124L8.74803 25.6727L8.72082 25.5326L8.69503 25.3921L8.67067 25.2513L8.64775 25.1102L8.62626 24.9688L8.60621 24.8271L8.58761 24.6851L8.57046 24.5428L8.55476 24.4003L8.54051 24.2576L8.52772 24.1146L8.5164 23.9714L8.50654 23.8281L8.49814 23.6845L8.49122 23.5408L8.48577 23.397L8.4818 23.253L8.4793 23.1089L8.47828 22.9646L8.47875 22.8203L8.48069 22.6759L8.48413 22.5315L8.48904 22.387L8.49545 22.2424L8.50335 22.0979L8.51273 21.9533L8.52361 21.8088L8.53597 21.6642L8.54983 21.5198L8.56519 21.3753L8.58203 21.231L8.60037 21.0867L8.6202 20.9425L8.64152 20.7984L8.66434 20.6545L8.68864 20.5107L8.71444 20.3671L8.74173 20.2236L8.77051 20.0803L8.80077 19.9373L8.83253 19.7944L8.86577 19.6518L8.90049 19.5094L8.93669 19.3673L8.97438 19.2255L9.01354 19.0839L9.05418 18.9427L9.0963 18.8018L9.13988 18.6612L9.18494 18.5209L9.23146 18.3811L9.27944 18.2416L9.32889 18.1025L9.37979 17.9638L9.43214 17.8255L9.48594 17.6877L9.54119 17.5503L9.59788 17.4134L9.65601 17.277L9.71557 17.141L9.77657 17.0056L9.83898 16.8707L9.90282 16.7363L9.96807 16.6025L10.0347 16.4693L10.1028 16.3366L10.1723 16.2046L10.2431 16.0731L10.3154 15.9423L10.389 15.8121L10.4641 15.6825L10.5404 15.5537L10.6182 15.4255L10.6973 15.298L10.7778 15.1712L10.8596 15.0451L10.9428 14.9198L11.0272 14.7952L11.1131 14.6714L11.2002 14.5483L11.2886 14.426L11.3784 14.3046L11.4694 14.1839L11.5618 14.0641L11.6554 13.9451L11.7503 13.827L11.8464 13.7098L11.9438 13.5934L12.0425 13.4779L12.1424 13.3633L12.2435 13.2497L12.3459 13.137L12.4494 13.0252L12.5542 12.9144L12.6602 12.8045L12.7673 12.6957L12.8756 12.5878L12.9851 12.4809L13.0958 12.3751L13.2076 12.2702L13.3205 12.1665L13.4346 12.0637L13.5498 11.9621L13.666 11.8615L13.7834 11.762L13.9019 11.6636L14.0214 11.5663L14.142 11.4701L14.2637 11.3751L14.3864 11.2812L14.5101 11.1885L14.6349 11.0969L14.7606 11.0065L14.8873 10.9173L15.0151 10.8293L15.1438 10.7425L15.2734 10.657L15.4041 10.5726L15.5356 10.4895L15.6681 10.4076L15.8015 10.327L15.9358 10.2477L16.0709 10.1696L16.207 10.0928L16.3439 10.0173L16.4816 9.94316L16.6202 9.8703L16.7596 9.79876L16.8998 9.72855L17.0408 9.65968L17.1826 9.59216L17.3252 9.526L17.4685 9.4612L17.6126 9.39777L17.7574 9.33573L17.9029 9.27508L18.0491 9.21582L18.1959 9.15797L18.3435 9.10153L18.4917 9.04651L18.6406 8.99292L18.7901 8.94076L18.9402 8.89004L19.0909 8.84077L19.2421 8.79296L19.394 8.7466L19.5464 8.70171L19.6994 8.6583L19.8528 8.61636L20.0068 8.57591L20.1613 8.53695L20.3163 8.49949L20.4717 8.46354L20.6276 8.42908L20.7839 8.39614L20.9406 8.36472L21.0978 8.33483L21.2553 8.30646L21.4132 8.27962L21.5715 8.25432L21.7301 8.23056L21.889 8.20835L22.0482 8.18768L22.1076 8.18056ZM22.1748 13.8497L22.129 9.98546L21.9985 10.0037L21.8582 10.0247L21.7178 10.0472L21.5783 10.0709L21.4386 10.096L21.2996 10.1225L21.1609 10.1503L21.0227 10.1794L20.8848 10.2099L20.7472 10.2417L20.61 10.2749L20.4734 10.3093L20.3369 10.3452L20.2058 10.381L20.0661 10.4207L19.9312 10.4604L19.7969 10.5014L19.6633 10.5436L19.53 10.5872L19.3972 10.6321L19.265 10.6782L19.1335 10.7255L19.0025 10.7742L18.8721 10.824L18.7422 10.8752L18.6133 10.9275L18.4844 10.9812L18.3565 11.036L18.2292 11.092L18.1028 11.1492L17.9767 11.2077L17.8513 11.2674L17.727 11.3281L17.6029 11.3902L17.4801 11.4533L17.3575 11.5178L17.2361 11.5831L17.1149 11.65L16.9949 11.7176L16.8757 11.7865L16.7571 11.8566L16.6394 11.9277L16.5223 12.0001L16.4064 12.0733L16.291 12.1478L16.1767 12.2233L16.0632 12.2998L15.9505 12.3775L15.8385 12.4563L15.7278 12.5358L15.6177 12.6167L15.5085 12.6985L15.4003 12.7813L15.2931 12.865L15.1866 12.9499L15.0813 13.0356L14.9769 13.1223L14.8733 13.2102L14.771 13.2987L14.6694 13.3884L14.5688 13.479L14.4693 13.5704L14.3709 13.6627L14.2732 13.7561L14.1769 13.8501L14.0815 13.9451L13.987 14.0411L13.8937 14.1378L13.8014 14.2355L13.7102 14.3339L13.6201 14.4331L13.531 14.5332L13.4429 14.6342L13.3563 14.7357L13.2705 14.8382L13.1858 14.9415L13.1023 15.0454L13.02 15.15L12.9386 15.2556L12.8585 15.3617L12.7795 15.4686L12.7017 15.5762L12.625 15.6845L12.5496 15.7933L12.4753 15.9029L12.4021 16.0132L12.3301 16.1241L12.2594 16.2355L12.1899 16.3476L12.1215 16.4605L12.0543 16.5737L11.9884 16.6876L11.9236 16.8021L11.8602 16.9169L11.7979 17.0325L11.7367 17.1487L11.677 17.2651L11.6184 17.3823L11.5611 17.4999L11.505 17.6178L11.4502 17.7364L11.3966 17.8553L11.3443 17.9747L11.2932 18.0945L11.2435 18.2147L11.195 18.3353L11.1477 18.4564L11.1017 18.5778L11.0571 18.6995L11.0136 18.8217L10.9716 18.944L10.9307 19.0668L10.8912 19.1899L10.8529 19.3133L10.816 19.4369L10.7803 19.5608L10.746 19.6849L10.7129 19.8094L10.6811 19.934L10.6507 20.0589L10.6216 20.184L10.5937 20.3092L10.5672 20.4347L10.5419 20.5603L10.518 20.686L10.4954 20.812L10.4741 20.938L10.4541 21.0642L10.4354 21.1903L10.418 21.3167L10.402 21.4431L10.3872 21.5696L10.3738 21.6961L10.3616 21.8227L10.3508 21.9493L10.3413 22.0758L10.3331 22.2025L10.3261 22.3291L10.3205 22.4556L10.3162 22.5821L10.3132 22.7085L10.3115 22.8349L10.3111 22.9613L10.312 23.0875L10.3142 23.2136L10.3177 23.3396L10.3224 23.4654L10.3285 23.5912L10.3358 23.7168L10.3444 23.8421L10.3544 23.9674L10.3655 24.0924L10.378 24.2172L10.3917 24.3418L10.4067 24.4662L10.423 24.5904L10.4405 24.7142L10.4593 24.8379L10.4793 24.9611L10.5006 25.0842L10.5232 25.207L10.5469 25.3293L10.5719 25.4515L10.5982 25.5732L10.6257 25.6947L10.6544 25.8156L10.6843 25.9363L10.7154 26.0566L10.7478 26.1765L10.7813 26.2959L10.8161 26.415L10.852 26.5336L10.8892 26.6518L10.9275 26.7696L10.967 26.8868L11.0077 27.0035L11.0495 27.1198L11.0925 27.2356L11.1367 27.3509L11.182 27.4656L11.2284 27.5798L11.276 27.6935L11.3247 27.8066L11.3746 27.9191L11.4255 28.0311L11.4776 28.1424L11.5308 28.2532L11.585 28.3634L11.6404 28.4729L11.6968 28.5819L11.7543 28.6902L11.8129 28.7978L11.8725 28.9048L11.9332 29.0111L11.9949 29.1167L12.0577 29.2216L12.1215 29.3259L12.1863 29.4294L12.2521 29.5322L12.319 29.6344L12.3867 29.7356L12.4556 29.8363L12.5253 29.9361L12.5961 30.0352L12.6678 30.1335L12.7405 30.231L12.8141 30.3277L12.8887 30.4237L12.9641 30.5188L13.0405 30.6131L13.1178 30.7066L13.196 30.7993L13.2751 30.891L13.3551 30.9821L13.4359 31.0721L13.5176 31.1614L13.6001 31.2497L13.6835 31.3372L13.7677 31.4238L13.8528 31.5095L13.9386 31.5943L14.0253 31.6782L14.1128 31.7612L14.2009 31.8432L14.29 31.9244L14.3797 32.0045L14.4702 32.0837L14.5615 32.162L14.6535 32.2393L14.7462 32.3157L14.8396 32.391L14.9337 32.4654L15.0285 32.5388L15.124 32.6113L15.2202 32.6827L15.3169 32.7531L15.4143 32.8225L15.5124 32.8909L15.6111 32.9583L15.7105 33.0247L15.8104 33.09L15.9109 33.1543L16.012 33.2176L16.1136 33.2798L16.2158 33.341L16.3186 33.4011L16.4218 33.4601L16.5257 33.5181L16.6299 33.575L16.7348 33.6309L16.8401 33.6857L16.9458 33.7393L17.0521 33.792L17.1589 33.8435L17.266 33.894L17.3735 33.9433L17.4816 33.9916L17.5899 34.0387L17.6987 34.0847L17.8079 34.1297L17.9175 34.1735L18.0273 34.2162L18.1376 34.2578L18.2482 34.2983L18.3591 34.3377L18.4703 34.3759L18.5819 34.4131L18.6937 34.449L18.8058 34.4839L18.9182 34.5176L19.0308 34.5502L19.1436 34.5817L19.2567 34.612L19.37 34.6413L19.4835 34.6693L19.5972 34.6962L19.7111 34.722L19.8252 34.7467L19.9394 34.7702L20.0537 34.7925L20.1683 34.8137L20.2828 34.8338L20.3976 34.8528L20.5124 34.8705L20.6273 34.8872L20.7423 34.9027L20.8573 34.9171L20.9724 34.9303L21.0875 34.9424L21.2027 34.9533L21.3179 34.9631L21.4331 34.9717L21.5483 34.9793L21.6634 34.9856L21.7785 34.9909L21.8937 34.995L22.0087 34.998L22.1236 34.9998L22.2385 35.0005L22.3533 35.0001L22.468 34.9985L22.5826 34.9959L22.697 34.9921L22.8114 34.9872L22.9255 34.9811L23.0395 34.974L23.1533 34.9657L23.267 34.9563L23.3804 34.9458L23.4937 34.9342L23.6068 34.9215L23.7196 34.9077L23.8322 34.8928L23.9445 34.8769L24.0566 34.8598L24.1684 34.8416L24.2798 34.8224L24.3911 34.802L24.502 34.7806L24.6126 34.7582L24.723 34.7346L24.8328 34.71L24.9424 34.6844L25.0516 34.6576L25.1605 34.6299L25.269 34.6011L25.3771 34.5712L25.4848 34.5403L25.5921 34.5084L25.6989 34.4755L25.8053 34.4415L25.9114 34.4065L26.0169 34.3705L26.122 34.3335L26.2266 34.2955L26.3307 34.2565L26.4343 34.2165L26.5374 34.1755L26.6401 34.1335L26.7422 34.0906L26.8437 34.0467L26.9448 34.0019L27.0452 33.9561L27.1452 33.9093L27.2446 33.8616L27.3432 33.8131L27.4416 33.7634L27.5391 33.713L27.6362 33.6615L27.7324 33.6093L27.8282 33.5561L27.9234 33.502L28.0178 33.447L28.1117 33.3911L28.2049 33.3344L28.2973 33.2768L28.3893 33.2183L28.4803 33.1591L28.5708 33.0989L28.6607 33.0378L28.7497 32.976L28.8379 32.9135L28.9257 32.8499L29.0125 32.7858L29.0987 32.7207L29.1842 32.6548L29.2686 32.5883L29.3527 32.5208L29.4359 32.4526L29.518 32.3838L29.5998 32.3139L29.6805 32.2436L29.7604 32.1726L29.8398 32.1005L29.918 32.0281L29.9956 31.9548L30.0724 31.8808L30.1482 31.8062L30.2233 31.7308L30.2976 31.6548L30.371 31.5781L30.4434 31.5008L30.5151 31.4228L30.586 31.3442L30.6558 31.2651L30.725 31.1851L30.7931 31.1047L30.8603 31.0237L30.9268 30.9419L30.9922 30.8599L31.0568 30.777L31.1205 30.6937L31.1833 30.6097L31.2451 30.5253L31.3059 30.4405L31.366 30.3548L31.425 30.2689L31.4831 30.1824L31.5404 30.0953L31.5964 30.008L31.6518 29.92L31.7061 29.8315L31.7595 29.7427L31.8118 29.6534L31.8634 29.5635L31.9137 29.4736L31.9633 29.3828L32.0118 29.2919L32.0592 29.2006L32.1059 29.1086L32.1513 29.0168L32.196 28.924L32.2394 28.8315L32.2822 28.738L32.3236 28.6447L32.3643 28.5506L32.4039 28.4566L32.4424 28.3622L32.48 28.2674L32.5166 28.1723L32.552 28.0772L32.5867 27.9815L32.6201 27.8857L32.6526 27.7897L32.6841 27.6934L32.7146 27.5968L32.7441 27.5001L32.7725 27.4033L32.7999 27.3061L32.8262 27.2089L32.8516 27.1114L32.8759 27.0138L32.8992 26.9162L32.9215 26.8181L32.9427 26.7201L32.963 26.622L32.9821 26.5239L33.0003 26.4256L33.0174 26.3269L33.0335 26.2286L33.0486 26.13L33.0626 26.0313L33.0756 25.9328L33.0876 25.8341L33.0986 25.7351L33.1085 25.6368L33.1175 25.5377L33.1254 25.439L33.1322 25.3405L33.1381 25.2417L33.1429 25.1431L33.1467 25.0446L33.1495 24.9458L33.1512 24.8476L33.152 24.749L33.1517 24.6507L33.1505 24.5524L33.1482 24.4545L33.1449 24.3564L33.1406 24.2585L33.1353 24.161L33.129 24.0632L33.1217 23.9657L33.1135 23.8687L33.1042 23.7714L33.0939 23.6747L33.0826 23.5778L33.0704 23.4814L33.0572 23.3851L33.043 23.2889L33.0278 23.1931L33.0117 23.0976L32.9946 23.0023L32.9765 22.9073L32.9574 22.8122L32.9374 22.7178L32.9165 22.6237L32.8946 22.5297L32.8717 22.4359L32.848 22.3429L32.8232 22.2496L32.7976 22.1571L32.771 22.0647L32.7435 21.9729L32.7151 21.8812L32.6857 21.7899L32.6555 21.6992L32.6244 21.6088L32.5922 21.5185L32.5594 21.429L32.5255 21.3397L32.4908 21.251L32.4552 21.1625L32.4187 21.0744L32.3814 20.9871L32.3431 20.8999L32.3041 20.8134L32.2642 20.7274L32.2234 20.6416L32.1817 20.5563L32.1394 20.4718L32.096 20.3875L32.052 20.304L32.0071 20.221L31.9613 20.1381L31.9149 20.0562L31.8675 19.9746L31.8194 19.8937L31.7704 19.8131L31.7209 19.7334L31.6703 19.6539L31.6192 19.5753L31.5672 19.4972L31.5145 19.4197L31.4609 19.3426L31.4067 19.2663L31.3519 19.1907L31.2961 19.1154L31.2398 19.041L31.1826 18.9671L31.125 18.894L31.0664 18.8213L31.0072 18.7494L30.9473 18.6781L30.8868 18.6074L30.8257 18.5376L30.7637 18.4682L30.7013 18.3997L30.6381 18.3317L30.5745 18.2647L30.5099 18.198L30.445 18.1323L30.3792 18.067L30.313 18.0027L30.2463 17.9391L30.1789 17.8761L30.1108 17.8138L30.0422 17.7524L29.9731 17.6917L29.9032 17.6315L29.8333 17.5725L29.7624 17.5138L29.6911 17.4561L29.6193 17.3992L29.5469 17.3428L29.4741 17.2874L29.401 17.2329L29.327 17.1789L29.2525 17.1256L29.178 17.0735L29.1025 17.0218L29.0271 16.9713L28.951 16.9213L28.8744 16.8721L28.7973 16.8237L28.7201 16.7763L28.6421 16.7295L28.564 16.6837L28.4852 16.6385L28.4065 16.5944L28.3271 16.551L28.2473 16.5083L28.1672 16.4665L28.0869 16.4257L28.0061 16.3855L27.9249 16.3462L27.8436 16.3078L27.7621 16.2703L27.6797 16.2334L27.5977 16.1976L27.5151 16.1626L27.4321 16.1283L27.349 16.095L27.2658 16.0626L27.1822 16.031L27.0981 16.0001L27.0142 15.9703L26.9298 15.9412L26.8452 15.913L26.7607 15.8857L26.6758 15.8593L26.5909 15.8337L26.5053 15.8089L26.42 15.7851L26.3345 15.7621L26.2488 15.74L26.163 15.7187L26.0768 15.6983L25.9908 15.6788L25.9048 15.6602L25.8184 15.6424L25.7318 15.6254L25.6457 15.6095L25.559 15.5943L25.4725 15.58L25.3856 15.5665L25.2992 15.554L25.2121 15.5422L25.1256 15.5315L25.0388 15.5215L24.952 15.5124L24.8653 15.5042L24.7784 15.4968L24.6919 15.4903L24.6049 15.4847L24.5183 15.4799L24.4319 15.476L24.3449 15.4729L24.2586 15.4707L24.1722 15.4694L24.0859 15.4689L24.0269 15.4691L24.0716 19.2445L24.0983 19.2446L24.1479 19.2453L24.1976 19.2465L24.2474 19.2481L24.2972 19.2504L24.3471 19.2531L24.397 19.2563L24.447 19.2601L24.497 19.2644L24.5471 19.2692L24.5972 19.2745L24.6473 19.2803L24.6975 19.2867L24.7476 19.2936L24.7978 19.301L24.848 19.309L24.8982 19.3175L24.9483 19.3265L24.9985 19.3361L25.0486 19.3461L25.0987 19.3568L25.1488 19.3679L25.1989 19.3796L25.2488 19.3918L25.2988 19.4045L25.3487 19.4178L25.3985 19.4316L25.4483 19.4459L25.498 19.4608L25.5476 19.4762L25.5971 19.4922L25.6466 19.5087L25.6959 19.5257L25.7452 19.5432L25.7943 19.5613L25.8433 19.5799L25.8922 19.599L25.941 19.6187L25.9896 19.6389L26.0381 19.6596L26.0865 19.6809L26.1347 19.7027L26.1828 19.725L26.2307 19.7479L26.2784 19.7712L26.326 19.7951L26.3733 19.8196L26.4205 19.8445L26.4675 19.87L26.5143 19.896L26.5609 19.9225L26.6073 19.9495L26.6534 19.977L26.6994 20.0051L26.7451 20.0337L26.7906 20.0628L26.8358 20.0923L26.8808 20.1224L26.9256 20.1531L26.9701 20.1842L27.0143 20.2158L27.0583 20.2479L27.102 20.2805L27.1454 20.3136L27.1885 20.3472L27.2314 20.3813L27.2739 20.4159L27.3161 20.4509L27.3581 20.4865L27.3997 20.5225L27.441 20.559L27.482 20.596L27.5226 20.6335L27.5629 20.6714L27.6028 20.7098L27.6425 20.7487L27.6817 20.788L27.7206 20.8278L27.7592 20.868L27.7973 20.9087L27.8351 20.9499L27.8725 20.9915L27.9096 21.0335L27.9462 21.076L27.9824 21.1189L28.0183 21.1622L28.0537 21.206L28.0887 21.2502L28.1233 21.2948L28.1575 21.3399L28.1913 21.3853L28.2246 21.4312L28.2574 21.4774L28.2899 21.5241L28.3219 21.5712L28.3534 21.6187L28.3845 21.6665L28.4152 21.7148L28.4453 21.7634L28.475 21.8124L28.5042 21.8618L28.5329 21.9115L28.5612 21.9616L28.5889 22.0121L28.6162 22.0629L28.643 22.1141L28.6692 22.1656L28.695 22.2174L28.7202 22.2696L28.7449 22.3222L28.7691 22.375L28.7928 22.4282L28.816 22.4817L28.8386 22.5355L28.8607 22.5896L28.8822 22.644L28.9032 22.6987L28.9237 22.7537L28.9436 22.809L28.9629 22.8646L28.9817 22.9204L28.9999 22.9765L29.0175 23.0329L29.0346 23.0895L29.0511 23.1464L29.067 23.2036L29.0824 23.2609L29.0972 23.3185L29.1113 23.3764L29.1249 23.4345L29.1379 23.4927L29.1503 23.5513L29.1621 23.61L29.1732 23.6688L29.1838 23.728L29.1938 23.7873L29.2032 23.8467L29.2119 23.9064L29.22 23.9662L29.2275 24.0262L29.2344 24.0864L29.2407 24.1467L29.2463 24.2071L29.2513 24.2677L29.2557 24.3285L29.2594 24.3893L29.2625 24.4503L29.2649 24.5114L29.2668 24.5726L29.2679 24.6339L29.2685 24.6953L29.2683 24.7567L29.2676 24.8183L29.2662 24.88L29.2641 24.9417L29.2614 25.0035L29.258 25.0653L29.254 25.1272L29.2493 25.1891L29.2439 25.2511L29.2379 25.3131L29.2313 25.3751L29.2239 25.4371L29.2159 25.4992L29.2073 25.5613L29.198 25.6233L29.188 25.6853L29.1773 25.7473L29.166 25.8093L29.154 25.8713L29.1414 25.9332L29.128 25.9951L29.114 26.0569L29.0994 26.1187L29.084 26.1804L29.068 26.2421L29.0514 26.3036L29.034 26.3651L29.016 26.4264L28.9973 26.4877L28.978 26.5489L28.958 26.6099L28.9373 26.6709L28.916 26.7317L28.8939 26.7923L28.8712 26.8529L28.8479 26.9132L28.8239 26.9735L28.7992 27.0335L28.7739 27.0934L28.7479 27.1531L28.7212 27.2127L28.6939 27.272L28.6659 27.3311L28.6372 27.3901L28.608 27.4488L28.578 27.5073L28.5474 27.5656L28.5161 27.6236L28.4842 27.6814L28.4517 27.739L28.4185 27.7963L28.3846 27.8534L28.3502 27.9101L28.315 27.9667L28.2793 28.0229L28.2429 28.0788L28.2058 28.1345L28.1682 28.1898L28.1299 28.2449L28.091 28.2996L28.0514 28.354L28.0113 28.4081L27.9705 28.4618L27.9291 28.5152L27.8871 28.5683L27.8445 28.621L27.8013 28.6733L27.7575 28.7253L27.7131 28.7769L27.668 28.8281L27.6224 28.8789L27.5762 28.9294L27.5294 28.9794L27.4821 29.029L27.4341 29.0783L27.3856 29.1271L27.3365 29.1754L27.2869 29.2234L27.2366 29.2709L27.1858 29.3179L27.1345 29.3645L27.0826 29.4107L27.0302 29.4564L26.9772 29.5016L26.9237 29.5463L26.8696 29.5906L26.815 29.6344L26.7599 29.6776L26.7043 29.7204L26.6482 29.7627L26.5915 29.8045L26.5344 29.8457L26.4767 29.8864L26.4186 29.9267L26.3599 29.9663L26.3008 30.0055L26.2412 30.044L26.1811 30.0821L26.1205 30.1196L26.0595 30.1565L25.998 30.1928L25.9361 30.2286L25.8737 30.2638L25.8108 30.2984L25.7476 30.3325L25.6839 30.3659L25.6198 30.3988L25.5552 30.431L25.4903 30.4627L25.4249 30.4937L25.3591 30.5241L25.293 30.5539L25.2264 30.583L25.1595 30.6116L25.0922 30.6395L25.0245 30.6667L24.9564 30.6933L24.888 30.7193L24.8192 30.7446L24.7501 30.7693L24.6807 30.7933L24.6109 30.8166L24.5408 30.8393L24.4704 30.8612L24.3997 30.8825L24.3286 30.9032L24.2573 30.9231L24.1857 30.9424L24.1138 30.9609L24.0416 30.9788L23.9691 30.9959L23.8964 31.0124L23.8234 31.0281L23.7502 31.0432L23.6767 31.0575L23.603 31.0711L23.5291 31.084L23.4549 31.0962L23.3806 31.1076L23.306 31.1183L23.2313 31.1283L23.1563 31.1376L23.0812 31.1461L23.0059 31.1538L22.9304 31.1609L22.8548 31.1671L22.779 31.1727L22.703 31.1774L22.627 31.1815L22.5508 31.1848L22.4745 31.1873L22.398 31.189L22.3215 31.19L22.2449 31.1903L22.1682 31.1898L22.0914 31.1885L22.0145 31.1864L21.9376 31.1836L21.8606 31.18L21.7835 31.1756L21.7064 31.1705L21.6293 31.1646L21.5522 31.1579L21.475 31.1504L21.3979 31.1422L21.3207 31.1331L21.2436 31.1233L21.1664 31.1127L21.0893 31.1014L21.0122 31.0892L20.9352 31.0763L20.8582 31.0626L20.7813 31.0481L20.7044 31.0329L20.6276 31.0168L20.5509 31L20.4743 30.9823L20.3978 30.9639L20.3213 30.9448L20.245 30.9248L20.1689 30.904L20.0928 30.8825L20.017 30.8602L19.9412 30.8371L19.8656 30.8132L19.7902 30.7886L19.7149 30.7632L19.6399 30.737L19.565 30.71L19.4903 30.6822L19.4159 30.6537L19.3416 30.6244L19.2676 30.5943L19.1938 30.5635L19.1203 30.5319L19.047 30.4995L18.9739 30.4664L18.9012 30.4325L18.8286 30.3978L18.7564 30.3624L18.6845 30.3262L18.6129 30.2893L18.5416 30.2516L18.4706 30.2132L18.3999 30.174L18.3296 30.1341L18.2595 30.0934L18.1899 30.052L18.1206 30.0099L18.0517 29.967L17.9831 29.9234L17.9149 29.8791L17.8471 29.834L17.7797 29.7882L17.7128 29.7417L17.6462 29.6945L17.58 29.6466L17.5143 29.5979L17.449 29.5486L17.3842 29.4986L17.3198 29.4478L17.2559 29.3964L17.1924 29.3443L17.1294 29.2915L17.0669 29.238L17.0049 29.1838L16.9434 29.129L16.8824 29.0735L16.8219 29.0173L16.7619 28.9605L16.7025 28.903L16.6435 28.8449L16.5852 28.7861L16.5274 28.7267L16.4701 28.6666L16.4134 28.606L16.3573 28.5446L16.3018 28.4827L16.2468 28.4202L16.1925 28.357L16.1387 28.2933L16.0855 28.2289L16.033 28.1639L15.9811 28.0984L15.9298 28.0323L15.8791 27.9656L15.8291 27.8983L15.7798 27.8305L15.7311 27.7621L15.683 27.6931L15.6356 27.6236L15.5889 27.5536L15.5429 27.483L15.4976 27.4119L15.4529 27.3403L15.409 27.2682L15.3657 27.1955L15.3232 27.1224L15.2814 27.0487L15.2403 26.9746L15.1999 26.9L15.1603 26.8249L15.1214 26.7493L15.0832 26.6733L15.0458 26.5969L15.0092 26.5199L14.9733 26.4426L14.9382 26.3648L14.9039 26.2866L14.8703 26.2079L14.8375 26.1289L14.8055 26.0494L14.7743 25.9696L14.7439 25.8893L14.7144 25.8087L14.6856 25.7277L14.6576 25.6464L14.6304 25.5647L14.6041 25.4826L14.5786 25.4002L14.5539 25.3175L14.53 25.2344L14.507 25.151L14.4849 25.0673L14.4635 24.9833L14.4431 24.899L14.4235 24.8145L14.4047 24.7296L14.3868 24.6445L14.3698 24.5591L14.3536 24.4735L14.3383 24.3876L14.3239 24.3015L14.3104 24.2152L14.2977 24.1286L14.2859 24.0419L14.2751 23.9549L14.2651 23.8678L14.256 23.7804L14.2478 23.6929L14.2405 23.6052L14.2341 23.5174L14.2286 23.4294L14.224 23.3413L14.2203 23.2531L14.2175 23.1647L14.2157 23.0762L14.2148 22.9877L14.2147 22.899L14.2156 22.8102L14.2175 22.7214L14.2202 22.6325L14.2239 22.5435L14.2285 22.4545L14.234 22.3655L14.2404 22.2764L14.2478 22.1873L14.2561 22.0982L14.2653 22.0091L14.2755 21.92L14.2866 21.8309L14.2986 21.7419L14.3116 21.6529L14.3255 21.5639L14.3404 21.475L14.3561 21.3861L14.3728 21.2973L14.3905 21.2086L14.4091 21.12L14.4286 21.0315L14.449 20.9431L14.4704 20.8549L14.4927 20.7667L14.516 20.6787L14.5402 20.5909L14.5653 20.5032L14.5913 20.4156L14.6183 20.3283L14.6462 20.2411L14.675 20.1541L14.7048 20.0674L14.7355 19.9808L14.7671 19.8945L14.7996 19.8084L14.8331 19.7226L14.8675 19.637L14.9028 19.5516L14.939 19.4666L14.9761 19.3818L15.0142 19.2973L15.0531 19.2131L15.093 19.1292L15.1337 19.0457L15.1754 18.9624L15.2179 18.8795L15.2614 18.797L15.3057 18.7148L15.351 18.633L15.3971 18.5515L15.4441 18.4704L15.492 18.3898L15.5408 18.3095L15.5904 18.2296L15.641 18.1502L15.6924 18.0711L15.7446 17.9925L15.7977 17.9144L15.8517 17.8367L15.9065 17.7595L15.9622 17.6828L16.0187 17.6065L16.076 17.5307L16.1342 17.4555L16.1932 17.3807L16.2531 17.3065L16.3138 17.2327L16.3752 17.1596L16.4375 17.0869L16.5006 17.0148L16.5645 16.9433L16.6292 16.8723L16.6947 16.802L16.761 16.7322L16.8281 16.663L16.8959 16.5944L16.9645 16.5264L17.0339 16.459L17.104 16.3923L17.1749 16.3262L17.2465 16.2607L17.3188 16.1959L17.3919 16.1317L17.4658 16.0683L17.5403 16.0054L17.6156 15.9433L17.6915 15.8819L17.7682 15.8211L17.8455 15.7611L17.9236 15.7018L18.0023 15.6432L18.0817 15.5853L18.1618 15.5282L18.2425 15.4718L18.3239 15.4161L18.406 15.3612L18.4886 15.3071L18.5719 15.2538L18.6559 15.2012L18.7404 15.1494L18.8256 15.0984L18.9113 15.0482L18.9977 14.9988L19.0846 14.9502L19.1721 14.9024L19.2602 14.8555L19.3488 14.8094L19.438 14.7641L19.5277 14.7197L19.618 14.6761L19.7088 14.6334L19.8001 14.5915L19.8919 14.5505L19.9842 14.5104L20.0771 14.4711L20.1704 14.4327L20.2641 14.3953L20.3584 14.3587L20.4531 14.323L20.5482 14.2882L20.6438 14.2544L20.7399 14.2214L20.8363 14.1894L20.9332 14.1583L21.0304 14.1281L21.1281 14.0989L21.2261 14.0706L21.3245 14.0433L21.4233 14.0169L21.5224 13.9914L21.6219 13.9669L21.7217 13.9434L21.8219 13.9209L21.9223 13.8993L22.0231 13.8787L22.1241 13.8591L22.1748 13.8497ZM23.4167 21.11L22.2641 21.3854L22.1964 15.6759L22.1421 15.6881L22.0603 15.7074L21.9786 15.7275L21.8975 15.7483L21.8165 15.7699L21.736 15.7923L21.6555 15.8156L21.5758 15.8394L21.4959 15.8642L21.417 15.8895L21.3379 15.9158L21.2593 15.9428L21.1811 15.9705L21.1032 15.9989L21.026 16.028L20.9489 16.058L20.8722 16.0886L20.796 16.1199L20.7199 16.1521L20.6448 16.1847L20.5697 16.2183L20.4953 16.2524L20.421 16.2874L20.3474 16.3229L20.274 16.3592L20.2014 16.3961L20.1291 16.4337L20.0573 16.472L19.986 16.5109L19.9151 16.5505L19.8447 16.5908L19.7751 16.6316L19.7054 16.6733L19.6366 16.7154L19.5684 16.7582L19.5006 16.8016L19.4332 16.8457L19.3665 16.8904L19.3003 16.9357L19.2346 16.9815L19.1696 17.0279L19.1049 17.075L19.0409 17.1227L18.9775 17.1709L18.9146 17.2197L18.8524 17.2689L18.7908 17.3188L18.7296 17.3693L18.669 17.4204L18.6092 17.4718L18.5499 17.5239L18.4912 17.5764L18.4331 17.6295L18.3756 17.6832L18.3188 17.7373L18.2626 17.7918L18.2069 17.847L18.152 17.9025L18.0977 17.9586L18.0441 18.015L17.9909 18.0722L17.9386 18.1295L17.8869 18.1874L17.8358 18.2458L17.7855 18.3044L17.7357 18.3637L17.6868 18.4231L17.6383 18.4833L17.5907 18.5436L17.5436 18.6045L17.4973 18.6658L17.4517 18.7273L17.4067 18.7892L17.3625 18.8515L17.3189 18.9143L17.276 18.9773L17.2339 19.0408L17.1925 19.1044L17.1518 19.1684L17.1117 19.2329L17.0725 19.2975L17.0338 19.3627L16.996 19.4278L16.9588 19.4935L16.9223 19.5594L16.8867 19.6255L16.8517 19.6919L16.8175 19.7586L16.7839 19.8257L16.7512 19.8927L16.7191 19.9603L16.6878 20.0279L16.6573 20.0958L16.6274 20.1639L16.5983 20.2323L16.57 20.3007L16.5424 20.3695L16.5156 20.4384L16.4894 20.5075L16.4641 20.5766L16.4395 20.6461L16.4156 20.7157L16.3925 20.7854L16.3701 20.8552L16.3485 20.9253L16.3276 20.9954L16.3076 21.0655L16.2882 21.1359L16.2695 21.2064L16.2517 21.2769L16.2346 21.3475L16.2182 21.4182L16.2026 21.489L16.1878 21.5599L16.1737 21.6307L16.1603 21.7016L16.1477 21.7727L16.1359 21.8436L16.1248 21.9146L16.1144 21.9858L16.1048 22.0567L16.096 22.1279L16.0879 22.1988L16.0805 22.2699L16.0739 22.3411L16.068 22.412L16.0629 22.483L16.0585 22.554L16.0548 22.6248L16.0519 22.6956L16.0497 22.7663L16.0483 22.8371L16.0475 22.9077L16.0476 22.9782L16.0483 23.0486L16.0498 23.119L16.052 23.1892L16.0549 23.2593L16.0585 23.3293L16.0629 23.3991L16.068 23.4688L16.0738 23.5384L16.0803 23.6078L16.0875 23.6772L16.0954 23.7461L16.104 23.8152L16.1133 23.8838L16.1234 23.9525L16.1341 24.0208L16.1455 24.089L16.1576 24.1571L16.1704 24.2248L16.1839 24.2924L16.198 24.3596L16.2129 24.4268L16.2284 24.4936L16.2446 24.5603L16.2614 24.6265L16.279 24.6928L16.2971 24.7585L16.3159 24.8242L16.3354 24.8894L16.3555 24.9545L16.3763 25.0192L16.3977 25.0835L16.4198 25.1478L16.4425 25.2116L16.4658 25.275L16.4897 25.3383L16.5143 25.4012L16.5395 25.4637L16.5653 25.5259L16.5916 25.5877L16.6187 25.6493L16.6463 25.7105L16.6745 25.7713L16.7033 25.8317L16.7326 25.8917L16.7627 25.9516L16.7931 26.0108L16.8242 26.0697L16.8559 26.1283L16.8882 26.1864L16.921 26.2442L16.9543 26.3016L16.9882 26.3584L17.0227 26.415L17.0576 26.4711L17.0931 26.5267L17.1292 26.582L17.1657 26.6368L17.2028 26.6913L17.2403 26.745L17.2784 26.7986L17.317 26.8516L17.356 26.9041L17.3957 26.9563L17.4357 27.0079L17.4762 27.059L17.5172 27.1097L17.5587 27.16L17.6005 27.2096L17.643 27.2589L17.6858 27.3077L17.729 27.3559L17.7729 27.4037L17.8169 27.4508L17.8615 27.4977L17.9065 27.5439L17.9518 27.5896L17.9977 27.6348L18.0439 27.6795L18.0905 27.7237L18.1375 27.7673L18.1849 27.8104L18.2327 27.853L18.2808 27.895L18.3293 27.9365L18.3781 27.9775L18.4273 28.0179L18.4769 28.0578L18.5269 28.0971L18.577 28.1358L18.6276 28.174L18.6785 28.2117L18.7297 28.2488L18.7812 28.2853L18.833 28.3213L18.8851 28.3567L18.9375 28.3915L18.9901 28.4257L19.043 28.4594L19.0964 28.4926L19.1498 28.525L19.2035 28.557L19.2576 28.5884L19.3117 28.6191L19.3661 28.6493L19.421 28.679L19.4759 28.708L19.531 28.7364L19.5863 28.7642L19.642 28.7915L19.6976 28.8181L19.7537 28.8442L19.8098 28.8697L19.866 28.8945L19.9226 28.9188L19.9793 28.9425L20.036 28.9656L20.093 28.9881L20.1501 29.0099L20.2075 29.0312L20.2647 29.0519L20.3224 29.072L20.3799 29.0914L20.4376 29.1103L20.4955 29.1286L20.5535 29.1463L20.6115 29.1633L20.6696 29.1798L20.7279 29.1956L20.7862 29.2109L20.8445 29.2255L20.9029 29.2396L20.9613 29.253L21.0198 29.2658L21.0784 29.2781L21.137 29.2897L21.1956 29.3008L21.2542 29.3112L21.3129 29.3211L21.3716 29.3303L21.4303 29.339L21.4888 29.347L21.5475 29.3544L21.6061 29.3613L21.6648 29.3676L21.7234 29.3732L21.782 29.3783L21.8405 29.3828L21.8989 29.3867L21.9574 29.39L22.0157 29.3927L22.0739 29.3949L22.1323 29.3964L22.1903 29.3974L22.2483 29.3978L22.3063 29.3976L22.3641 29.3969L22.422 29.3955L22.4797 29.3936L22.5371 29.3912L22.5945 29.3881L22.652 29.3845L22.709 29.3803L22.7661 29.3756L22.8229 29.3703L22.8797 29.3645L22.9363 29.358L22.9926 29.3511L23.049 29.3436L23.105 29.3355L23.1608 29.3269L23.2167 29.3178L23.2722 29.3081L23.3275 29.2979L23.3827 29.2871L23.4377 29.2758L23.4923 29.264L23.5467 29.2517L23.6011 29.2388L23.6552 29.2254L23.709 29.2116L23.7626 29.1972L23.8159 29.1823L23.8692 29.1668L23.922 29.1509L23.9744 29.1345L24.027 29.1175L24.079 29.1001L24.1308 29.0823L24.1823 29.0639L24.2335 29.045L24.2846 29.0256L24.3353 29.0058L24.3856 28.9855L24.4357 28.9648L24.4855 28.9435L24.5351 28.9218L24.5841 28.8997L24.6331 28.8771L24.6816 28.8541L24.7297 28.8306L24.7777 28.8067L24.8251 28.7824L24.8724 28.7576L24.9193 28.7323L24.9658 28.7067L25.0119 28.6807L25.0578 28.6542L25.1033 28.6273L25.1483 28.6L25.193 28.5723L25.2374 28.5442L25.2814 28.5158L25.3251 28.4869L25.3683 28.4577L25.4112 28.428L25.4537 28.398L25.4957 28.3677L25.5374 28.3369L25.5787 28.3058L25.6196 28.2743L25.6601 28.2425L25.7003 28.2103L25.7399 28.1779L25.7792 28.1451L25.818 28.1119L25.8564 28.0784L25.8945 28.0446L25.9321 28.0104L25.9693 27.976L26.0059 27.9413L26.0423 27.9062L26.0782 27.8708L26.1137 27.8352L26.1487 27.7993L26.1832 27.763L26.2173 27.7266L26.2511 27.6897L26.2842 27.6528L26.3171 27.6154L26.3494 27.5778L26.3812 27.5401L26.4128 27.5019L26.4436 27.4637L26.4742 27.4251L26.5043 27.3864L26.5338 27.3474L26.563 27.3081L26.5916 27.2688L26.6198 27.229L26.6476 27.1891L26.6748 27.1492L26.7016 27.1088L26.728 27.0684L26.7537 27.0278L26.7791 26.987L26.804 26.946L26.8284 26.9048L26.8524 26.8635L26.8758 26.822L26.8988 26.7804L26.9213 26.7385L26.9433 26.6967L26.9648 26.6546L26.9859 26.6124L27.0065 26.5701L27.0266 26.5275L27.0462 26.485L27.0653 26.4423L27.0839 26.3996L27.1021 26.3566L27.1197 26.3137L27.137 26.2704L27.1536 26.2275L27.1699 26.1839L27.1855 26.141L27.2008 26.0974L27.2156 26.0538L27.2298 26.0104L27.2436 25.9668L27.2569 25.9233L27.2698 25.8793L27.282 25.8359L27.294 25.7918L27.3053 25.7484L27.3162 25.7044L27.3266 25.6604L27.3365 25.6167L27.3459 25.5731L27.3549 25.5289L27.3634 25.4852L27.3714 25.4411L27.3789 25.3975L27.386 25.3537L27.3926 25.3098L27.3987 25.2659L27.4043 25.2221L27.4095 25.1785L27.4142 25.135L27.4184 25.0911L27.4222 25.0476L27.4255 25.004L27.4283 24.9605L27.4307 24.9171L27.4326 24.8738L27.434 24.8307L27.435 24.7873L27.4356 24.744L27.4357 24.7011L27.4353 24.6582L27.4345 24.6154L27.4332 24.5727L27.4315 24.5298L27.4293 24.4877L27.4267 24.4447L27.4237 24.4028L27.4202 24.3607L27.4163 24.3183L27.4119 24.2764L27.4072 24.2349L27.4019 24.1928L27.3963 24.1516L27.3902 24.1101L27.3838 24.0692L27.3768 24.0279L27.3695 23.9869L27.3618 23.9463L27.3537 23.9058L27.3451 23.8652L27.3361 23.8251L27.3268 23.785L27.317 23.7452L27.3069 23.7057L27.2962 23.6659L27.2854 23.6269L27.274 23.5875L27.2623 23.5488L27.2502 23.5101L27.2377 23.4717L27.2248 23.4334L27.2115 23.3952L27.198 23.3576L27.184 23.3201L27.1696 23.2825L27.1549 23.2455L27.1398 23.2083L27.1245 23.172L27.1086 23.1353L27.0926 23.0992L27.0761 23.0634L27.0593 23.0276L27.0422 22.9922L27.0247 22.957L27.0069 22.922L26.9888 22.8874L26.9703 22.853L26.9516 22.8189L26.9325 22.785L26.913 22.7514L26.8934 22.7181L26.8734 22.6851L26.853 22.6522L26.8324 22.6199L26.8115 22.5877L26.7903 22.5558L26.7688 22.5241L26.7471 22.4929L26.725 22.4618L26.7027 22.4311L26.6801 22.4007L26.6572 22.3706L26.6342 22.3408L26.6107 22.3112L26.5871 22.2821L26.5632 22.2532L26.5391 22.2246L26.5147 22.1963L26.4902 22.1684L26.4653 22.1408L26.4402 22.1135L26.4149 22.0864L26.3894 22.0598L26.3636 22.0335L26.3376 22.0074L26.3115 21.9818L26.2851 21.9565L26.2586 21.9315L26.2316 21.9067L26.2048 21.8824L26.1776 21.8583L26.1503 21.8347L26.1227 21.8113L26.095 21.7884L26.0671 21.7657L26.0391 21.7434L26.0109 21.7214L25.9825 21.6997L25.954 21.6785L25.9253 21.6575L25.8964 21.6369L25.8675 21.6167L25.8384 21.5967L25.8092 21.5772L25.7798 21.558L25.7502 21.5391L25.7207 21.5206L25.6908 21.5024L25.661 21.4846L25.6311 21.4672L25.601 21.4501L25.5707 21.4333L25.5405 21.4169L25.5102 21.4008L25.4797 21.3851L25.4493 21.3698L25.4185 21.3547L25.3879 21.3401L25.3571 21.3259L25.3263 21.3119L25.2954 21.2983L25.2643 21.285L25.2335 21.2722L25.2023 21.2597L25.1711 21.2475L25.14 21.2357L25.1088 21.2242L25.0776 21.2131L25.0463 21.2023L25.015 21.1918L24.9838 21.1818L24.9524 21.172L24.921 21.1626L24.8898 21.1536L24.8582 21.1449L24.827 21.1366L24.7956 21.1286L24.7642 21.1209L24.7328 21.1136L24.7015 21.1066L24.6701 21.1L24.6388 21.0937L24.6076 21.0877L24.5764 21.0821L24.545 21.0768L24.514 21.0719L24.4826 21.0673L24.4517 21.063L24.4205 21.059L24.3895 21.0554L24.3587 21.0521L24.3277 21.0492L24.2969 21.0465L24.2661 21.0442L24.2354 21.0422L24.2047 21.0405L24.1741 21.0392L24.1438 21.0382L24.1133 21.0374L24.083 21.037L24.0527 21.0369L24.0226 21.0372L23.9925 21.0377L23.9626 21.0385L23.9327 21.0397L23.9031 21.0411L23.8733 21.0429L23.8439 21.0449L23.8145 21.0472L23.7852 21.0499L23.7561 21.0528L23.7269 21.056L23.6981 21.0595L23.6693 21.0633L23.6407 21.0674L23.6121 21.0718L23.5838 21.0764L23.5555 21.0813L23.5276 21.0865L23.4995 21.092L23.4718 21.0977L23.4441 21.1037L23.4167 21.11Z" fill="white"/>
</svg>
