<svg width="125" height="33" viewBox="0 0 125 33" fill="none" xmlns="http://www.w3.org/2000/svg">
<path d="M37.5996 10.4835H40.5996V22.6135H37.5996V10.4835ZM41.7896 18.0335C41.7896 15.0335 43.6296 13.2435 46.4696 13.2435C49.3096 13.2435 51.1496 15.0335 51.1496 18.0335C51.1496 21.0335 49.3496 22.8335 46.4696 22.8335C43.5896 22.8335 41.7896 21.0835 41.7896 18.0335ZM48.1396 18.0335C48.1396 16.3835 47.4896 15.4135 46.4696 15.4135C45.4496 15.4135 44.8096 16.4135 44.8096 18.0335C44.8096 19.6535 45.4396 20.6335 46.4696 20.6335C47.4996 20.6335 48.1396 19.7135 48.1396 18.0435V18.0335ZM52.2796 23.2035H55.1596C55.2967 23.508 55.5284 23.7601 55.8203 23.9223C56.1122 24.0844 56.4487 24.148 56.7796 24.1035C57.9196 24.1035 58.5196 23.4835 58.5196 22.5835V20.9035H58.4596C58.2206 21.4184 57.8327 21.8498 57.3461 22.1422C56.8595 22.4345 56.2964 22.5743 55.7296 22.5435C53.5396 22.5435 52.0896 20.8735 52.0896 18.0035C52.0896 15.1335 53.4696 13.3235 55.7696 13.3235C56.3542 13.3006 56.9318 13.4569 57.4251 13.7714C57.9184 14.086 58.3038 14.5438 58.5296 15.0835V13.4135H61.5296V22.5135C61.5296 24.7035 59.5996 26.0635 56.7496 26.0635C54.0996 26.0635 52.4496 24.8735 52.2796 23.2135V23.2035ZM58.5296 18.0235C58.5296 16.5635 57.8596 15.6435 56.7996 15.6435C55.7396 15.6435 55.0896 16.5535 55.0896 18.0235C55.0896 19.4935 55.7296 20.3235 56.7996 20.3235C57.8696 20.3235 58.5296 19.5135 58.5296 18.0335V18.0235ZM62.6596 18.0235C62.6596 15.0235 64.4996 13.2335 67.3396 13.2335C70.1796 13.2335 72.0296 15.0235 72.0296 18.0235C72.0296 21.0235 70.2296 22.8235 67.3396 22.8235C64.4496 22.8235 62.6596 21.0835 62.6596 18.0335V18.0235ZM69.0096 18.0235C69.0096 16.3735 68.3596 15.4035 67.3396 15.4035C66.3196 15.4035 65.7296 16.4135 65.7296 18.0435C65.7296 19.6735 66.3596 20.6435 67.3796 20.6435C68.3996 20.6435 69.0096 19.7135 69.0096 18.0435V18.0235ZM73.1696 11.2335C73.1617 10.9306 73.244 10.6322 73.4059 10.3761C73.5679 10.12 73.8022 9.91778 74.0792 9.79502C74.3562 9.67226 74.6634 9.63451 74.9619 9.68656C75.2604 9.73862 75.5367 9.87813 75.7558 10.0874C75.975 10.2967 76.127 10.5663 76.1927 10.8621C76.2584 11.1579 76.2348 11.4665 76.1248 11.7489C76.0149 12.0312 75.8236 12.2746 75.5752 12.4481C75.3269 12.6216 75.0325 12.7175 74.7296 12.7235C74.5288 12.7373 74.3273 12.7094 74.1378 12.6416C73.9482 12.5738 73.7748 12.4676 73.6283 12.3295C73.4818 12.1915 73.3654 12.0246 73.2865 11.8394C73.2075 11.6543 73.1677 11.4548 73.1696 11.2535V11.2335ZM73.1696 13.4335H76.1696V22.6135H73.1696V13.4335ZM87.0596 18.0235C87.0596 21.0235 85.7296 22.7335 83.4496 22.7335C82.865 22.771 82.2829 22.6281 81.7821 22.3241C81.2813 22.02 80.886 21.5695 80.6496 21.0335H80.5896V25.5535H77.5896V13.4135H80.5896V15.0535H80.6496C80.875 14.5086 81.2628 14.0464 81.7602 13.7297C82.2576 13.413 82.8405 13.2572 83.4296 13.2835C85.7296 13.3235 87.0996 15.0435 87.0996 18.0435L87.0596 18.0235ZM84.0596 18.0235C84.0596 16.5635 83.3896 15.6335 82.3396 15.6335C81.2896 15.6335 80.6196 16.5735 80.6096 18.0235C80.5996 19.4735 81.2896 20.4035 82.3396 20.4035C83.3896 20.4035 84.0596 19.4935 84.0596 18.0435V18.0235ZM92.2096 13.2235C94.6996 13.2235 96.2096 14.4035 96.2796 16.2935H93.5496C93.5496 15.6435 93.0096 15.2335 92.1796 15.2335C91.3496 15.2335 90.9796 15.5535 90.9796 16.0235C90.9796 16.4935 91.3096 16.6435 91.9796 16.7835L93.8996 17.1735C95.7296 17.5635 96.5096 18.3035 96.5096 19.6935C96.5096 21.5935 94.7796 22.8135 92.2296 22.8135C89.6796 22.8135 88.0096 21.5935 87.8796 19.7235H90.7696C90.8596 20.4035 91.3996 20.8035 92.2796 20.8035C93.1596 20.8035 93.5596 20.5135 93.5596 20.0335C93.5596 19.5535 93.2796 19.4535 92.5596 19.3035L90.8296 18.9335C89.0396 18.5635 88.0996 17.6135 88.0996 16.2135C88.1196 14.4135 89.7296 13.2435 92.2096 13.2435V13.2235ZM106.52 22.5935H103.63V20.8835H103.57C103.411 21.4576 103.061 21.9601 102.577 22.3076C102.093 22.655 101.505 22.8265 100.91 22.7935C100.454 22.8194 99.9978 22.7472 99.5723 22.5817C99.1468 22.4162 98.7618 22.1614 98.4433 21.8343C98.1248 21.5073 97.8801 21.1156 97.726 20.6859C97.5718 20.2562 97.5117 19.7984 97.5496 19.3435V13.4135H100.55V18.6535C100.55 19.7435 101.11 20.3235 102.04 20.3235C102.258 20.3239 102.474 20.2778 102.673 20.1881C102.871 20.0984 103.049 19.9672 103.193 19.8034C103.336 19.6395 103.444 19.4468 103.507 19.2382C103.57 19.0295 103.589 18.8097 103.56 18.5935V13.4135H106.56L106.52 22.5935ZM107.97 13.4135H110.87V15.1835H110.93C111.089 14.617 111.432 14.1192 111.904 13.7682C112.376 13.4172 112.952 13.2326 113.54 13.2435C114.139 13.1956 114.733 13.3747 115.206 13.7453C115.678 14.1159 115.994 14.6507 116.09 15.2435H116.15C116.331 14.6444 116.707 14.1228 117.218 13.7607C117.728 13.3986 118.345 13.2166 118.97 13.2435C119.378 13.2298 119.784 13.3021 120.162 13.4557C120.541 13.6092 120.882 13.8407 121.165 14.1349C121.448 14.4292 121.666 14.7797 121.805 15.1636C121.943 15.5475 122 15.9564 121.97 16.3635V22.6135H118.97V17.1635C118.97 16.1635 118.52 15.7035 117.68 15.7035C117.493 15.7019 117.307 15.7405 117.136 15.8167C116.965 15.8929 116.812 16.0049 116.688 16.1452C116.564 16.2855 116.471 16.4507 116.416 16.6298C116.361 16.809 116.346 16.9978 116.37 17.1835V22.6135H113.52V17.1235C113.52 16.2035 113.07 15.7035 112.25 15.7035C112.061 15.7036 111.873 15.7438 111.701 15.8215C111.528 15.8993 111.373 16.0128 111.248 16.1545C111.122 16.2962 111.028 16.463 110.971 16.6439C110.915 16.8247 110.897 17.0154 110.92 17.2035V22.6135H107.92L107.97 13.4135Z" fill="white"/>
<path d="M29.2096 11.0335C28.7007 9.86983 28.0272 8.7854 27.2096 7.81347C26.0011 6.33381 24.4929 5.12686 22.7843 4.27207C21.0757 3.41729 19.2054 2.93404 17.2966 2.85413C15.3878 2.77422 13.4837 3.09946 11.7096 3.80846C9.93556 4.51745 8.33176 5.59412 7.00379 6.9676C5.67581 8.34107 4.65376 9.98022 4.00491 11.7772C3.35606 13.5741 3.09511 15.4881 3.23925 17.3931C3.3834 19.2982 3.92935 21.1511 4.84119 22.8299C5.75303 24.5088 7.01008 25.9755 8.5296 27.1335C9.5046 27.8914 10.5819 28.5075 11.7296 28.9635C13.3386 29.6229 15.0607 29.9625 16.7996 29.9635C20.389 29.9556 23.8288 28.5248 26.3651 25.9848C28.9013 23.4448 30.327 20.0029 30.3296 16.4135C30.3322 14.562 29.9509 12.7301 29.2096 11.0335ZM16.7896 5.60346C18.3512 5.6033 19.8939 5.9446 21.3096 6.60346C20.9644 6.75263 20.6014 6.85682 20.2296 6.91347C19.0062 7.09056 17.8729 7.65854 16.9988 8.53264C16.1247 9.40673 15.5567 10.5401 15.3796 11.7635C15.3019 12.4496 14.9898 13.0879 14.4961 13.5707C14.0024 14.0535 13.3573 14.3511 12.6696 14.4135C11.4462 14.5906 10.3129 15.1586 9.43877 16.0327C8.56468 16.9068 7.99669 18.0401 7.8196 19.2635C7.75964 19.9159 7.48129 20.529 7.0296 21.0035C6.25025 19.3568 5.90015 17.5396 6.01187 15.7212C6.12359 13.9028 6.6935 12.1422 7.66857 10.6032C8.64363 9.06426 9.99217 7.79698 11.5887 6.91931C13.1852 6.04164 14.9778 5.58211 16.7996 5.58346L16.7896 5.60346ZM8.5196 23.4135C8.6396 23.3035 8.7596 23.2035 8.8796 23.0835C9.76925 22.221 10.3403 21.0824 10.4996 19.8535C10.5642 19.1627 10.8726 18.5175 11.3696 18.0335C11.8479 17.5357 12.4916 17.2298 13.1796 17.1735C14.403 16.9964 15.5363 16.4284 16.4104 15.5543C17.2845 14.6802 17.8525 13.5469 18.0296 12.3235C18.0729 11.601 18.3829 10.9203 18.8996 10.4135C19.3897 9.92532 20.0395 9.63057 20.7296 9.58346C21.8535 9.42883 22.9017 8.92918 23.7296 8.15347C24.6723 8.93554 25.4709 9.87636 26.0896 10.9335C26.0516 10.9848 26.008 11.0318 25.9596 11.0735C25.4823 11.5757 24.8394 11.8883 24.1496 11.9535C22.9249 12.1275 21.7899 12.6945 20.9152 13.5691C20.0406 14.4438 19.4736 15.5788 19.2996 16.8035C19.2291 17.4919 18.9228 18.1348 18.4326 18.6232C17.9423 19.1117 17.2983 19.4156 16.6096 19.4835C15.3826 19.6592 14.2451 20.2261 13.3659 21.0998C12.4868 21.9736 11.9129 23.1076 11.7296 24.3335C11.6758 24.8222 11.5079 25.2915 11.2396 25.7035C10.2136 25.0943 9.29469 24.3207 8.5196 23.4135ZM16.7896 27.2735C15.7749 27.2746 14.765 27.1332 13.7896 26.8535C14.1233 26.2315 14.3402 25.5536 14.4296 24.8535C14.4997 24.1666 14.8046 23.5249 15.2928 23.0367C15.781 22.5485 16.4227 22.2436 17.1096 22.1735C18.3348 21.9984 19.4704 21.4313 20.3465 20.557C21.2225 19.6828 21.792 18.5483 21.9696 17.3235C22.0397 16.6366 22.3446 15.9949 22.8328 15.5067C23.321 15.0185 23.9627 14.7136 24.6496 14.6435C25.5716 14.5236 26.4504 14.1803 27.2096 13.6435C27.6312 15.2414 27.6811 16.9146 27.3556 18.5348C27.0301 20.155 26.3377 21.6792 25.3317 22.9903C24.3257 24.3013 23.0328 25.3646 21.552 26.0984C20.0713 26.8322 18.4422 27.2171 16.7896 27.2235V27.2735Z" fill="white"/>
</svg>
