<svg width="133" height="36" viewBox="0 0 133 36" fill="none" xmlns="http://www.w3.org/2000/svg">
<path d="M31.2495 13.1636C31.6095 13.1636 31.7295 13.2936 31.7295 13.6436V21.5636H35.7995C36.1495 21.5636 36.2795 21.6936 36.2795 22.0436V22.7436C36.2795 23.0936 36.1495 23.2236 35.7995 23.2236H30.4395C30.0895 23.2236 29.9495 23.0936 29.9495 22.7436V13.6436C29.9495 13.2936 30.0895 13.1636 30.4395 13.1636H31.2495Z" fill="white"/>
<path d="M39.8296 16.6536C39.8296 14.3436 41.2896 12.9536 43.8296 12.9536C46.3696 12.9536 47.8296 14.3436 47.8296 16.6536V19.7336C47.8296 22.0436 46.3596 23.4336 43.8296 23.4336C41.2996 23.4336 39.8296 22.0436 39.8296 19.7336V16.6536ZM46.1496 16.6536C46.1496 15.3536 45.3396 14.6536 43.8796 14.6536C42.4196 14.6536 41.6196 15.3636 41.6196 16.6536V19.7536C41.6196 21.0636 42.4196 21.7536 43.8796 21.7536C45.3396 21.7536 46.1496 21.0336 46.1496 19.7536V16.6536Z" fill="white"/>
<path d="M59.7394 17.7136C60.1294 17.7136 60.2194 17.8436 60.2194 18.1936V20.0936C60.23 20.5411 60.1403 20.9854 59.9569 21.3937C59.7734 21.8021 59.501 22.1642 59.1594 22.4536C58.3111 23.1291 57.2415 23.4642 56.1594 23.3936C53.5694 23.3936 52.1594 22.0036 52.1594 19.6936V16.5936C52.1594 14.3136 53.6194 12.9136 56.1594 12.9136C58.1594 12.9136 59.4594 13.7036 60.0094 15.2836C60.0402 15.343 60.0567 15.4087 60.0576 15.4755C60.0585 15.5424 60.0438 15.6086 60.0147 15.6687C59.9856 15.7289 59.9428 15.7815 59.8898 15.8223C59.8368 15.863 59.775 15.8909 59.7094 15.9036L58.9294 16.1736C58.5894 16.2936 58.4494 16.2236 58.3294 15.8736C58.1637 15.4465 57.8604 15.0867 57.4674 14.8513C57.0744 14.6159 56.6142 14.5181 56.1594 14.5736C54.6894 14.5736 53.8894 15.2836 53.8894 16.5736V19.7536C53.8894 21.0636 54.6994 21.7536 56.1594 21.7536C57.6194 21.7536 58.5194 21.0836 58.5194 20.1036V19.3636H56.3494C55.9894 19.3636 55.8594 19.2236 55.8594 18.8736V18.1936C55.8594 17.8436 55.9894 17.7136 56.3494 17.7136H59.7394Z" fill="white"/>
<path d="M64.3496 16.6536C64.3496 14.3436 65.8096 12.9536 68.3496 12.9536C70.8896 12.9536 72.3496 14.3436 72.3496 16.6536V19.7336C72.3496 22.0436 70.8796 23.4336 68.3496 23.4336C65.8196 23.4336 64.3496 22.0436 64.3496 19.7336V16.6536ZM70.6596 16.6536C70.6596 15.3536 69.8496 14.6536 68.3996 14.6536C66.9496 14.6536 66.1296 15.3636 66.1296 16.6536V19.7536C66.1296 21.0636 66.9396 21.7536 68.3996 21.7536C69.8596 21.7536 70.6596 21.0336 70.6596 19.7536V16.6536Z" fill="white"/>
<path d="M77.0596 13.4536C77.0596 13.2336 77.1296 13.1636 77.3496 13.1636H77.8096C78.0296 13.1636 78.0796 13.2336 78.0796 13.4536V22.9336C78.0796 23.1536 78.0796 23.2236 77.8096 23.2236H77.3496C77.1296 23.2236 77.0596 23.1536 77.0596 22.9336V13.4536Z" fill="white"/>
<path d="M87.1894 13.1636C88.0222 13.1636 88.8208 13.4944 89.4097 14.0833C89.9986 14.6721 90.3294 15.4708 90.3294 16.3036C90.3294 17.1364 89.9986 17.9351 89.4097 18.5239C88.8208 19.1128 88.0222 19.4436 87.1894 19.4436H84.1894V22.9336C84.1894 23.1536 84.1394 23.2236 83.9294 23.2236H83.4594C83.2494 23.2236 83.1694 23.1536 83.1694 22.9336V13.4536C83.1694 13.2336 83.2494 13.1636 83.4594 13.1636H87.1894ZM87.0994 18.4536C87.3857 18.4536 87.6692 18.3972 87.9337 18.2877C88.1981 18.1781 88.4385 18.0175 88.6409 17.8151C88.8433 17.6127 89.0039 17.3723 89.1135 17.1079C89.223 16.8434 89.2794 16.5599 89.2794 16.2736C89.2794 15.9873 89.223 15.7038 89.1135 15.4393C89.0039 15.1749 88.8433 14.9345 88.6409 14.7321C88.4385 14.5297 88.1981 14.3691 87.9337 14.2595C87.6692 14.15 87.3857 14.0936 87.0994 14.0936H84.0994V18.4536H87.0994Z" fill="white"/>
<path d="M98.1396 12.9637C98.9117 12.8785 99.6906 13.0446 100.361 13.4373C101.031 13.8301 101.557 14.4285 101.86 15.1437C101.94 15.3037 101.86 15.4337 101.7 15.5137L101.26 15.7137C101.08 15.7837 101.01 15.7737 100.9 15.5837C100.673 15.0529 100.283 14.6079 99.7873 14.3131C99.2912 14.0183 98.7141 13.8889 98.1396 13.9437C96.4496 13.9437 95.5296 14.6137 95.5296 15.8137C95.5198 16.1804 95.6429 16.5384 95.8764 16.8214C96.1098 17.1044 96.4377 17.2935 96.7996 17.3537C97.3374 17.5291 97.8951 17.6366 98.4596 17.6737C99.1429 17.7101 99.817 17.8483 100.46 18.0837C100.953 18.2396 101.377 18.5602 101.661 18.9918C101.945 19.4234 102.072 19.9396 102.02 20.4537C102.02 22.3237 100.66 23.4537 98.1596 23.4537C97.3396 23.5475 96.5122 23.3575 95.8153 22.9153C95.1184 22.4732 94.594 21.8055 94.3296 21.0237C94.3119 20.9881 94.3024 20.949 94.3016 20.9092C94.3008 20.8694 94.3089 20.83 94.3251 20.7937C94.3413 20.7574 94.3654 20.7251 94.3956 20.6992C94.4257 20.6732 94.4612 20.6543 94.4996 20.6437L94.9396 20.4837C94.9742 20.4695 95.0115 20.4627 95.0489 20.4637C95.0863 20.4647 95.1231 20.4735 95.157 20.4895C95.1908 20.5055 95.221 20.5283 95.2455 20.5566C95.2701 20.5849 95.2885 20.6179 95.2996 20.6537C95.5233 21.2186 95.9211 21.6976 96.4353 22.0213C96.9495 22.3449 97.5535 22.4964 98.1596 22.4537C100.05 22.4537 100.98 21.7937 100.98 20.4537C100.998 20.1015 100.89 19.7544 100.675 19.4742C100.461 19.1941 100.154 18.999 99.8096 18.9237C99.2922 18.7694 98.7586 18.6754 98.2196 18.6437L97.1396 18.5037C96.8016 18.432 96.4678 18.3418 96.1396 18.2337C95.8154 18.1358 95.5132 17.9762 95.2496 17.7637C94.9843 17.5235 94.7752 17.2279 94.6369 16.8978C94.4987 16.5677 94.4347 16.2113 94.4496 15.8537C94.5196 14.1037 95.8296 12.9637 98.1396 12.9637Z" fill="white"/>
<path d="M107.409 19.8036C107.451 20.5108 107.762 21.1751 108.278 21.6608C108.794 22.1465 109.476 22.4169 110.184 22.4169C110.892 22.4169 111.574 22.1465 112.09 21.6608C112.606 21.1751 112.916 20.5108 112.959 19.8036V13.4536C112.959 13.2336 113.029 13.1636 113.249 13.1636H113.709C113.929 13.1636 113.999 13.2336 113.999 13.4536V19.7936C113.999 22.0636 112.659 23.4336 110.189 23.4336C107.719 23.4336 106.379 22.0636 106.379 19.7936V13.4536C106.379 13.2336 106.449 13.1636 106.659 13.1636H107.129C107.339 13.1636 107.409 13.2336 107.409 13.4536V19.8036Z" fill="white"/>
<path d="M127.799 13.1636C128.019 13.1636 128.089 13.2336 128.089 13.4536V22.9336C128.089 23.1536 128.019 23.2236 127.799 23.2236H127.379C127.169 23.2236 127.099 23.1536 127.099 22.9336V17.1636C127.099 16.3241 127.156 15.4855 127.269 14.6536H127.209C126.897 15.4143 126.532 16.1527 126.119 16.8636L123.969 20.6536C123.943 20.7194 123.897 20.7756 123.838 20.8149C123.779 20.8541 123.71 20.8746 123.639 20.8736H123.359C123.287 20.874 123.217 20.8533 123.156 20.8143C123.096 20.7752 123.048 20.7194 123.019 20.6536L120.839 16.8236C120.452 16.1229 120.118 15.3942 119.839 14.6436H119.779C119.881 15.4831 119.935 16.3279 119.939 17.1736V22.9336C119.939 23.1536 119.869 23.2236 119.649 23.2236H119.259C119.039 23.2236 118.969 23.1536 118.969 22.9336V13.4536C118.969 13.2336 119.039 13.1636 119.259 13.1636H119.619C119.701 13.156 119.784 13.1739 119.855 13.2151C119.927 13.2563 119.984 13.3187 120.019 13.3936L123.519 19.6136L126.999 13.4536C127.109 13.2436 127.169 13.2136 127.389 13.2136L127.799 13.1636Z" fill="white"/>
<path d="M13.4595 21.7036V28.9336C13.4595 29.2108 13.3494 29.4766 13.1534 29.6725C12.9575 29.8685 12.6917 29.9786 12.4145 29.9786C12.1374 29.9786 11.8716 29.8685 11.6756 29.6725C11.4796 29.4766 11.3695 29.2108 11.3695 28.9336V21.7136C11.6605 21.9261 12.0093 22.0447 12.3695 22.0536C12.7621 22.0648 13.1468 21.9413 13.4595 21.7036ZM22.3595 19.6136C22.0943 19.6136 21.8399 19.719 21.6524 19.9065C21.4649 20.094 21.3595 20.3484 21.3595 20.6136V21.8736C21.3595 22.1508 21.4696 22.4166 21.6656 22.6125C21.8615 22.8085 22.1273 22.9186 22.4045 22.9186C22.6817 22.9186 22.9475 22.8085 23.1434 22.6125C23.3394 22.4166 23.4495 22.1508 23.4495 21.8736V20.6636C23.4573 20.5202 23.4341 20.3768 23.3815 20.2432C23.3289 20.1096 23.2482 19.9888 23.1447 19.8892C23.0413 19.7896 22.9176 19.7134 22.7822 19.6658C22.6467 19.6183 22.5025 19.6005 22.3595 19.6136ZM9.09949 24.4436C8.73966 24.4328 8.39132 24.3144 8.09949 24.1036V31.3536C8.09949 31.6321 8.21011 31.8992 8.40703 32.0961C8.60394 32.293 8.87101 32.4036 9.14949 32.4036C9.42797 32.4036 9.69504 32.293 9.89195 32.0961C10.0889 31.8992 10.1995 31.6321 10.1995 31.3536V24.1536C9.87294 24.3647 9.48765 24.4663 9.09949 24.4436ZM19.0995 17.4436C18.964 17.4368 18.8286 17.4577 18.7014 17.5049C18.5743 17.5521 18.4581 17.6247 18.3598 17.7182C18.2616 17.8118 18.1835 17.9243 18.1301 18.049C18.0768 18.1737 18.0493 18.308 18.0495 18.4436V24.0136C18.0495 24.2921 18.1601 24.5592 18.357 24.7561C18.554 24.953 18.821 25.0636 19.0995 25.0636C19.378 25.0636 19.6451 24.953 19.842 24.7561C20.0389 24.5592 20.1495 24.2921 20.1495 24.0136V18.5136C20.1575 18.3693 20.1341 18.225 20.0809 18.0906C20.0277 17.9562 19.9461 17.8349 19.8415 17.7351C19.7369 17.6353 19.612 17.5593 19.4753 17.5125C19.3386 17.4656 19.1933 17.4489 19.0495 17.4636L19.0995 17.4436ZM15.7795 19.5836C15.4028 19.581 15.0362 19.4623 14.7295 19.2436V26.5136C14.7295 26.7921 14.8401 27.0592 15.037 27.2561C15.234 27.453 15.501 27.5636 15.7795 27.5636C16.058 27.5636 16.325 27.453 16.522 27.2561C16.7189 27.0592 16.8295 26.7921 16.8295 26.5136V19.2536C16.5123 19.4899 16.125 19.6131 15.7295 19.6036L15.7795 19.5836ZM6.82949 25.1536V4.84357C6.82686 4.596 6.72666 4.35948 6.55066 4.18535C6.37466 4.01122 6.13707 3.91356 5.88949 3.91357H5.66949C5.42191 3.91356 5.18432 4.01122 5.00832 4.18535C4.83232 4.35948 4.73212 4.596 4.72949 4.84357V25.1536C4.72949 25.4029 4.82853 25.642 5.00481 25.8183C5.18109 25.9946 5.42019 26.0936 5.66949 26.0936H5.88949C6.1388 26.0936 6.37789 25.9946 6.55417 25.8183C6.73046 25.642 6.82949 25.4029 6.82949 25.1536ZM9.20949 23.6736H8.98949C8.74019 23.6736 8.50109 23.5746 8.32481 23.3983C8.14853 23.222 8.04949 22.9829 8.04949 22.7336V7.26357C8.05213 7.01601 8.15232 6.77947 8.32832 6.60535C8.50432 6.43122 8.74191 6.33356 8.98949 6.33357H9.20949C9.45707 6.33356 9.69466 6.43122 9.87066 6.60535C10.0467 6.77947 10.1469 7.01601 10.1495 7.26357V22.7536C10.1495 23.0029 10.0505 23.242 9.87417 23.4183C9.69789 23.5946 9.45879 23.6936 9.20949 23.6936V23.6736ZM12.5195 21.2936H12.2895C12.0429 21.2936 11.8063 21.1956 11.6319 21.0212C11.4575 20.8468 11.3595 20.6103 11.3595 20.3636V9.66357C11.3582 9.5406 11.3813 9.41859 11.4274 9.3046C11.4735 9.19061 11.5418 9.08691 11.6283 8.99949C11.7148 8.91207 11.8178 8.84267 11.9313 8.79531C12.0448 8.74795 12.1665 8.72356 12.2895 8.72357H12.5195C12.7671 8.72621 13.0036 8.8264 13.1777 9.0024C13.3519 9.1784 13.4495 9.41599 13.4495 9.66357V20.3636C13.4495 20.6103 13.3515 20.8468 13.1771 21.0212C13.0027 21.1956 12.7662 21.2936 12.5195 21.2936ZM15.8295 18.8436H15.6195C15.3719 18.8436 15.1343 18.746 14.9583 18.5718C14.7823 18.3977 14.6821 18.1612 14.6795 17.9136V12.1536C14.6713 12.0252 14.6895 11.8965 14.7331 11.7754C14.7766 11.6544 14.8446 11.5435 14.9327 11.4498C15.0208 11.356 15.1272 11.2814 15.2454 11.2304C15.3635 11.1795 15.4908 11.1533 15.6195 11.1536H15.8395C16.0888 11.1536 16.3279 11.2526 16.5042 11.4289C16.6805 11.6052 16.7795 11.8443 16.7795 12.0936V17.8936C16.7808 18.0179 16.7575 18.1412 16.7108 18.2564C16.6642 18.3716 16.5952 18.4764 16.5077 18.5648C16.4203 18.6531 16.3163 18.7232 16.2015 18.7711C16.0868 18.819 15.9638 18.8436 15.8395 18.8436H15.8295ZM19.1495 16.6936H18.9295C18.6802 16.6936 18.4411 16.5946 18.2648 16.4183C18.0885 16.242 17.9895 16.0029 17.9895 15.7536V14.2636C17.9921 14.016 18.0923 13.7795 18.2683 13.6054C18.4443 13.4312 18.6819 13.3336 18.9295 13.3336H19.1495C19.3971 13.3336 19.6347 13.4312 19.8107 13.6054C19.9867 13.7795 20.0869 14.016 20.0895 14.2636V15.7536C20.0895 16.0012 19.9919 16.2388 19.8177 16.4148C19.6436 16.5908 19.4071 16.691 19.1595 16.6936H19.1495Z" fill="white"/>
</svg>
