<svg width="133" height="41" viewBox="0 0 133 41" fill="none" xmlns="http://www.w3.org/2000/svg">
<path d="M23.9595 11.8036H25.9595V25.7236H31.9595V27.7236H23.9595V11.8036ZM38.1895 11.8036C39.3762 11.8036 40.5362 12.1555 41.5229 12.8148C42.5096 13.4741 43.2787 14.4111 43.7328 15.5075C44.1869 16.6039 44.3057 17.8103 44.0742 18.9741C43.8427 20.138 43.2713 21.2071 42.4321 22.0462C41.593 22.8854 40.5239 23.4568 39.36 23.6883C38.1962 23.9198 36.9898 23.801 35.8934 23.3469C34.797 22.8927 33.86 22.1237 33.2007 21.137C32.5414 20.1503 32.1895 18.9903 32.1895 17.8036C32.1895 17.0157 32.3447 16.2354 32.6462 15.5075C32.9477 14.7795 33.3897 14.1181 33.9469 13.561C34.504 13.0038 35.1654 12.5618 35.8934 12.2603C36.6213 11.9588 37.4016 11.8036 38.1895 11.8036ZM38.1895 21.8036C38.9806 21.8036 39.754 21.569 40.4118 21.1295C41.0696 20.6899 41.5823 20.0652 41.885 19.3343C42.1878 18.6034 42.267 17.7992 42.1126 17.0232C41.9583 16.2473 41.5773 15.5346 41.0179 14.9752C40.4585 14.4158 39.7458 14.0348 38.9699 13.8805C38.1939 13.7261 37.3897 13.8053 36.6588 14.1081C35.9279 14.4108 35.3031 14.9235 34.8636 15.5813C34.4241 16.2391 34.1895 17.0125 34.1895 17.8036C34.1948 18.861 34.6185 19.8733 35.3681 20.6191C36.1177 21.3649 37.1321 21.7836 38.1895 21.7836V21.8036ZM34.1895 25.7436H42.1895V27.7436H34.1895V25.7436ZM59.7895 27.7436H57.7895V26.3136C56.4997 27.2164 54.9639 27.7016 53.3895 27.7036C52.047 27.7126 50.7238 27.3836 49.5419 26.7469C48.3599 26.1101 47.3572 25.1862 46.6262 24.0602C45.8951 22.9342 45.4591 21.6423 45.3585 20.3035C45.2578 18.9648 45.4957 17.6222 46.0502 16.3996C46.6047 15.1769 47.458 14.1134 48.5314 13.3072C49.6049 12.5009 50.864 11.9777 52.1927 11.7859C53.5215 11.594 54.8772 11.7397 56.1348 12.2094C57.3925 12.6791 58.5118 13.4577 59.3895 14.4736L57.9195 15.7836C57.2519 15.0372 56.4082 14.4698 55.4651 14.1331C54.5221 13.7963 53.5098 13.7009 52.5205 13.8556C51.5311 14.0103 50.5963 14.4102 49.801 15.0187C49.0058 15.6273 48.3755 16.4251 47.9677 17.3397C47.5598 18.2542 47.3873 19.2562 47.4659 20.2545C47.5445 21.2528 47.8716 22.2155 48.4176 23.0549C48.9636 23.8943 49.7109 24.5838 50.5916 25.0604C51.4722 25.537 52.4582 25.7856 53.4595 25.7836C54.2905 25.7853 55.1121 25.6075 55.8681 25.2623C56.624 24.9171 57.2965 24.4127 57.8395 23.7836H52.4395V21.7836H59.8095L59.7895 27.7436ZM67.1495 11.8436C68.3362 11.8436 69.4962 12.1955 70.4829 12.8548C71.4696 13.5141 72.2387 14.4511 72.6928 15.5475C73.1469 16.6439 73.2657 17.8503 73.0342 19.0141C72.8027 20.178 72.2313 21.2471 71.3921 22.0862C70.553 22.9254 69.4839 23.4968 68.32 23.7283C67.1562 23.9598 65.9498 23.841 64.8534 23.3869C63.757 22.9327 62.82 22.1637 62.1607 21.177C61.5014 20.1903 61.1495 19.0303 61.1495 17.8436C61.1442 17.0506 61.2962 16.2645 61.5966 15.5306C61.897 14.7967 62.3399 14.1296 62.8997 13.568C63.4595 13.0063 64.1251 12.5612 64.858 12.2583C65.5909 11.9555 66.3765 11.8009 67.1695 11.8036L67.1495 11.8436ZM67.1495 21.8436C67.9406 21.8436 68.714 21.609 69.3718 21.1695C70.0296 20.7299 70.5423 20.1052 70.845 19.3743C71.1478 18.6434 71.227 17.8392 71.0726 17.0632C70.9183 16.2873 70.5373 15.5746 69.9779 15.0152C69.4185 14.4558 68.7058 14.0748 67.9299 13.9205C67.1539 13.7661 66.3497 13.8453 65.6188 14.1481C64.8879 14.4508 64.2631 14.9635 63.8236 15.6213C63.3841 16.2791 63.1495 17.0525 63.1495 17.8436C63.1653 18.8975 63.5964 19.9026 64.3492 20.6404C65.1019 21.3781 66.1155 21.789 67.1695 21.7836L67.1495 21.8436ZM63.1495 25.7836H71.1495V27.7836H63.1495V25.7836ZM75.2795 11.8036H77.2795V27.7036H75.2795V11.8036ZM80.0495 11.8036H82.0495C82.1525 11.7927 82.2564 11.7927 82.3595 11.8036C83.1971 11.7127 84.0445 11.7993 84.8464 12.0576C85.6483 12.316 86.3869 12.7403 87.0139 13.303C87.641 13.8657 88.1425 14.5542 88.4858 15.3236C88.8292 16.093 89.0066 16.9261 89.0066 17.7686C89.0066 18.6111 88.8292 19.4442 88.4858 20.2136C88.1425 20.983 87.641 21.6715 87.0139 22.2342C86.3869 22.7969 85.6483 23.2212 84.8464 23.4796C84.0445 23.7379 83.1971 23.8245 82.3595 23.7336H82.0495V27.7336H80.0495V11.8036ZM82.0495 13.8036V21.7136H82.3595C82.9244 21.7888 83.4988 21.7425 84.0444 21.5776C84.5899 21.4128 85.0939 21.1333 85.5226 20.7579C85.9514 20.3825 86.2949 19.9198 86.5303 19.4008C86.7657 18.8818 86.8875 18.3185 86.8875 17.7486C86.8875 17.1787 86.7657 16.6154 86.5303 16.0964C86.2949 15.5774 85.9514 15.1147 85.5226 14.7393C85.0939 14.3638 84.5899 14.0844 84.0444 13.9195C83.4988 13.7547 82.9244 13.7084 82.3595 13.7836C82.2506 13.7949 82.1432 13.8184 82.0395 13.8536L82.0495 13.8036ZM96.4595 12.9536L94.9795 14.1236C94.7242 13.8568 94.398 13.6684 94.0393 13.5806C93.6806 13.4928 93.3043 13.5092 92.9546 13.6279C92.6048 13.7465 92.2963 13.9625 92.0651 14.2505C91.8339 14.5385 91.6897 14.8865 91.6495 15.2536V15.4136C91.6495 16.2936 92.2595 16.8836 93.4495 16.9636C98.0295 17.2436 100.129 19.3936 100.129 22.2336V22.4136C100.011 23.5376 99.5726 24.604 98.8658 25.486C98.159 26.368 97.2137 27.0283 96.1425 27.3886C95.0712 27.7488 93.919 27.7938 92.8229 27.5181C91.7268 27.2425 90.7329 26.6578 89.9595 25.8336L91.4895 24.6536C91.8456 25.0353 92.2805 25.3349 92.764 25.5318C93.2475 25.7286 93.768 25.818 94.2895 25.7936C95.2527 25.8444 96.1982 25.5211 96.9286 24.8912C97.6591 24.2614 98.118 23.3737 98.2095 22.4136V22.2736C98.2095 19.6036 95.5895 19.1136 93.3195 18.8936C91.2195 18.6936 89.7095 17.3836 89.7095 15.4936V15.4136C89.7835 14.4296 90.2326 13.5116 90.9639 12.8492C91.6952 12.1867 92.653 11.8303 93.6395 11.8536C94.1623 11.8382 94.6824 11.9325 95.1665 12.1306C95.6505 12.3287 96.0876 12.6261 96.4495 13.0036L96.4595 12.9536ZM107.959 25.6736C110.449 25.6736 112.419 22.9836 112.419 19.6736V11.6736H114.419V19.6736C114.419 24.0736 111.539 27.6236 107.999 27.6236C104.459 27.6236 101.579 24.0736 101.579 19.6736V11.6736H103.579V19.6736C103.499 23.0336 105.469 25.7236 107.949 25.7236L107.959 25.6736ZM129.769 27.6736H127.769V17.7736L123.159 23.7736L118.549 17.7736V27.7036H116.549V11.8036L123.149 20.4936L129.749 11.8036L129.769 27.6736Z" fill="white"/>
<path d="M14.3595 9.41363C14.3595 7.97085 13.7864 6.58716 12.7662 5.56697C11.746 4.54677 10.3623 3.97363 8.91949 3.97363C7.47671 3.97363 6.09303 4.54677 5.07283 5.56697C4.05263 6.58716 3.47949 7.97085 3.47949 9.41363V25.8636L7.95949 29.0736V36.8936H9.87949V29.0736L14.3595 25.8636V9.41363ZM12.4395 18.6136L9.87949 21.1736V18.7736L12.4395 16.2136V18.6136ZM5.43949 16.2136L7.99949 18.7736V21.1736L5.43949 18.6136V16.2136ZM12.4395 13.4936L8.91949 17.0136L5.39949 13.4136V11.0136L8.91949 14.5336L12.4395 11.0136V13.4936ZM8.91949 5.89363C9.69364 5.89705 10.4453 6.15416 11.0594 6.62556C11.6735 7.09696 12.1161 7.75666 12.3195 8.50363L8.91949 11.8936L5.51949 8.50363C5.71543 7.74923 6.15486 7.08058 6.76962 6.60144C7.38438 6.12229 8.14008 5.85942 8.91949 5.85362V5.89363ZM5.39949 24.8936V21.2936L7.95949 23.8536V26.7136L5.39949 24.8936ZM9.87949 26.7236V23.8536L12.4395 21.2936V24.8836L9.87949 26.7236Z" fill="white"/>
</svg>
