<svg width="40" height="40" viewBox="0 0 40 40" fill="none" xmlns="http://www.w3.org/2000/svg">
<path d="M8.33331 14.9987C8.33331 9.49898 8.33331 6.74911 10.0419 5.04058C11.7504 3.33203 14.5003 3.33203 20 3.33203C25.4996 3.33203 28.2495 3.33203 29.9581 5.04058C31.6666 6.74911 31.6666 9.49898 31.6666 14.9987V24.9987C31.6666 30.4984 31.6666 33.2482 29.9581 34.9569C28.2495 36.6654 25.4996 36.6654 20 36.6654C14.5003 36.6654 11.7504 36.6654 10.0419 34.9569C8.33331 33.2482 8.33331 30.4984 8.33331 24.9987V14.9987Z" stroke="#141B34" stroke-width="2.5" stroke-linecap="round"/>
<path d="M18.3333 31.668H21.6666" stroke="#141B34" stroke-width="2.5" stroke-linecap="round" stroke-linejoin="round"/>
<path d="M15 3.33203L15.1483 4.22206C15.4698 6.15085 15.6305 7.11525 16.292 7.7021C16.982 8.31426 17.9602 8.33203 20 8.33203C22.0398 8.33203 23.018 8.31426 23.708 7.7021C24.3695 7.11525 24.5302 6.15085 24.8517 4.22206L25 3.33203" stroke="#141B34" stroke-width="2.5" stroke-linejoin="round"/>
</svg>
