<svg width="40" height="40" viewBox="0 0 40 40" fill="none" xmlns="http://www.w3.org/2000/svg">
<path d="M36.6667 12.139C36.6667 16.5416 32.9352 20.1113 28.3333 20.1113C27.7922 20.112 27.2527 20.062 26.7212 19.9621C26.3385 19.8903 26.1472 19.8545 26.0137 19.8748C25.8802 19.8951 25.6908 19.9958 25.3123 20.1971C24.2417 20.7665 22.9932 20.9676 21.7925 20.7443C22.2488 20.183 22.5605 19.5095 22.698 18.7875C22.7813 18.3458 22.575 17.9168 22.2657 17.6028C20.861 16.1764 20 14.2543 20 12.139C20 7.73638 23.7313 4.16675 28.3333 4.16675C32.9352 4.16675 36.6667 7.73638 36.6667 12.139Z" stroke="#A9F04A" stroke-width="2.5" stroke-linejoin="round"/>
<path d="M25.8203 12.5001H25.8338M30.8203 12.5001H30.8338" stroke="#A9F04A" stroke-width="2.5" stroke-linecap="round"/>
<path d="M12.5028 35.8337H7.86329C7.32448 35.8337 6.78336 35.7578 6.28846 35.5452C4.67744 34.853 3.86007 33.939 3.47916 33.3672C3.26241 33.042 3.29329 32.6275 3.52844 32.3152C5.39494 29.836 9.73044 28.3387 12.5108 28.3385C15.2911 28.3387 19.6187 29.836 21.4852 32.3152C21.7203 32.6275 21.7512 33.042 21.5345 33.3672C21.1535 33.939 20.3362 34.853 18.7252 35.5452C18.2302 35.7578 17.6892 35.8337 17.1503 35.8337H12.5028Z" stroke="#A9F04A" stroke-width="2.5" stroke-linecap="round" stroke-linejoin="round"/>
<path d="M17.1424 19.6482C17.1424 22.2004 15.0688 24.2694 12.5111 24.2694C9.95335 24.2694 7.87988 22.2004 7.87988 19.6482C7.87988 17.096 9.95335 15.0271 12.5111 15.0271C15.0688 15.0271 17.1424 17.096 17.1424 19.6482Z" stroke="#A9F04A" stroke-width="2.5" stroke-linecap="round" stroke-linejoin="round"/>
</svg>
