<svg width="41" height="40" viewBox="0 0 41 40" fill="none" xmlns="http://www.w3.org/2000/svg">
<path d="M9.13306 16.668V31.668" stroke="#101010" stroke-width="2.5" stroke-linecap="round"/>
<path d="M10.4805 15.4692C9.85862 16.2679 9.54772 16.6673 9.13306 16.6673C8.71839 16.6673 8.40749 16.2679 7.78566 15.4692L6.54269 13.8725C4.75397 11.5748 3.85962 10.426 4.20687 9.48085C4.24226 9.38455 4.28572 9.29162 4.33679 9.20307C4.83806 8.33398 6.26972 8.33398 9.13306 8.33398C11.9964 8.33398 13.4281 8.33398 13.9293 9.20307C13.9804 9.29162 14.0239 9.38455 14.0592 9.48085C14.4065 10.426 13.5121 11.5748 11.7234 13.8725L10.4805 15.4692Z" stroke="#101010" stroke-width="2.5" stroke-linecap="round"/>
<path d="M15.8 21.668V31.668" stroke="#101010" stroke-width="2.5" stroke-linecap="round"/>
<path d="M22.4663 18.334V31.6673" stroke="#101010" stroke-width="2.5" stroke-linecap="round"/>
<path d="M29.1331 16.668V31.668" stroke="#101010" stroke-width="2.5" stroke-linecap="round"/>
<path d="M35.8 31.668H37.4667" stroke="#101010" stroke-width="2.5" stroke-linecap="round"/>
</svg>
