<svg width="41" height="40" viewBox="0 0 41 40" fill="none" xmlns="http://www.w3.org/2000/svg">
<path d="M28.8333 36.6667C33.4357 36.6667 37.1667 32.9357 37.1667 28.3333C37.1667 23.731 33.4357 20 28.8333 20C24.231 20 20.5 23.731 20.5 28.3333C20.5 32.9357 24.231 36.6667 28.8333 36.6667Z" stroke="#95D243" stroke-width="2.5"/>
<path d="M12.9999 21.6666H11.1666C7.70962 21.6666 5.98114 21.6666 4.9072 20.5926C3.83325 19.5188 3.83325 17.7903 3.83325 14.3333V10.6666C3.83325 7.20962 3.83325 5.48114 4.9072 4.4072C5.98114 3.33325 7.70962 3.33325 11.1666 3.33325H14.8333C18.2903 3.33325 20.0188 3.33325 21.0926 4.4072C22.1666 5.48114 22.1666 7.20962 22.1666 10.6666V12.4999" stroke="#95D243" stroke-width="2.5"/>
<path d="M20.5581 31.6665C15.7956 30.8675 12.1667 26.7257 12.1667 21.7362C12.1667 16.1748 16.6751 11.6665 22.2364 11.6665C27.2259 11.6665 31.3677 15.2954 32.1667 20.0578" stroke="#95D243" stroke-width="2.5"/>
</svg>
